# Blender v2.79 (sub 0) OBJ File: 'Bolt.blend'
# www.blender.org
mtllib Bolt.mtl
o Plane
v -0.216692 2.528413 0.382385
v 0.004302 2.525986 0.601146
v 0.037554 2.743866 0.397970
v -0.186696 2.527645 0.491558
v -0.170092 2.636443 0.390103
v -0.141693 2.631126 0.494331
v 0.021378 2.634339 0.579639
v -0.105578 2.526754 0.571857
v -0.084584 2.630499 0.550864
v -0.076768 2.715527 0.395824
v 0.033584 2.714314 0.505061
v -0.075991 2.686804 0.498358
v 0.834479 2.525986 0.601146
v 1.072097 2.539013 0.383176
v 0.929440 2.743866 0.397970
v 0.949620 2.530108 0.572107
v 0.878385 2.632401 0.579494
v 0.986867 2.631894 0.550968
v 1.084258 2.643687 0.390644
v 1.036840 2.534890 0.492099
v 1.048272 2.635261 0.494639
v 0.913242 2.712376 0.504916
v 1.031895 2.718881 0.396074
v 1.011407 2.688199 0.498462
v -0.216692 2.528413 -0.382384
v 0.037554 2.743866 -0.397969
v 0.004302 2.525986 -0.601146
v -0.170092 2.636443 -0.390102
v -0.186696 2.527645 -0.491557
v -0.141693 2.631126 -0.494330
v 0.033584 2.714314 -0.505060
v -0.076769 2.715527 -0.395823
v -0.075991 2.686804 -0.498358
v -0.105578 2.526754 -0.571856
v 0.021378 2.634339 -0.579638
v -0.084584 2.630499 -0.550863
v 1.072097 2.539013 -0.383175
v 0.834479 2.525986 -0.601146
v 0.929440 2.743866 -0.397969
v 1.036840 2.534890 -0.492098
v 1.084258 2.643687 -0.390643
v 1.048272 2.635261 -0.494639
v 0.878385 2.632401 -0.579494
v 0.949620 2.530108 -0.572106
v 0.986867 2.631894 -0.550967
v 1.031895 2.718881 -0.396073
v 0.913242 2.712376 -0.504916
v 1.011407 2.688199 -0.498462
v -0.646513 -0.055911 0.201671
v -0.463934 -0.271364 0.187124
v -0.424711 -0.053484 0.420772
v -0.635847 -0.163940 0.194281
v -0.616261 -0.055143 0.310952
v -0.605680 -0.158624 0.299253
v -0.458074 -0.241812 0.298348
v -0.568830 -0.243024 0.188942
v -0.558498 -0.214301 0.295493
v -0.534847 -0.054252 0.391375
v -0.443677 -0.161837 0.384111
v -0.548362 -0.157996 0.355873
v -0.119426 -0.053484 0.420772
v -0.185611 -0.271364 0.187124
v -0.005983 -0.486305 0.171625
v 0.215409 -0.489244 0.390301
v 0.346175 -0.053484 0.420772
v -0.140548 -0.160303 0.380977
v 0.035774 -0.053484 0.420772
v -0.004339 -0.183578 0.385331
v -0.083881 -0.303468 0.182151
v -0.164489 -0.239117 0.296459
v -0.047128 -0.271438 0.304687
v 0.027510 -0.483164 0.279274
v -0.019512 -0.380491 0.176597
v 0.019954 -0.357448 0.298727
v 0.243985 -0.372276 0.398480
v 0.107391 -0.484224 0.358176
v 0.114191 -0.352132 0.373218
v 0.190975 -0.053484 0.420772
v 0.291795 -0.212773 0.409634
v 0.140590 -0.204971 0.398699
v -0.646513 -0.055911 -0.201670
v -0.424711 -0.053484 -0.420772
v -0.463934 -0.271364 -0.187123
v -0.616261 -0.055143 -0.310951
v -0.635847 -0.163940 -0.194280
v -0.605680 -0.158624 -0.299252
v -0.443677 -0.161837 -0.384111
v -0.534847 -0.054252 -0.391374
v -0.548362 -0.157996 -0.355872
v -0.568830 -0.243024 -0.188941
v -0.458074 -0.241812 -0.298348
v -0.558498 -0.214301 -0.295493
v -0.005983 -0.486305 -0.171624
v -0.185611 -0.271364 -0.187123
v -0.119426 -0.053484 -0.420772
v 0.346175 -0.053484 -0.420771
v 0.215409 -0.489244 -0.390300
v -0.019512 -0.380491 -0.176597
v 0.027510 -0.483164 -0.279273
v 0.019954 -0.357448 -0.298726
v -0.164489 -0.239117 -0.296458
v -0.083881 -0.303468 -0.182151
v -0.047128 -0.271438 -0.304686
v 0.035774 -0.053484 -0.420772
v -0.140548 -0.160303 -0.380976
v -0.004339 -0.183578 -0.385331
v 0.291795 -0.212773 -0.409633
v 0.190975 -0.053484 -0.420771
v 0.140590 -0.204972 -0.398699
v 0.107391 -0.484224 -0.358175
v 0.243985 -0.372276 -0.398479
v 0.114191 -0.352132 -0.373217
v -0.386378 0.176999 -0.436888
v -0.607372 0.179426 -0.218127
v -0.535705 0.610332 -0.248259
v -0.313903 0.612759 -0.467360
v -0.494321 0.181342 -0.404709
v -0.362219 0.322252 -0.447046
v -0.477662 0.323858 -0.414878
v -0.583483 0.323061 -0.228171
v -0.577264 0.182619 -0.327670
v -0.550691 0.323955 -0.342654
v -0.502135 0.614675 -0.356014
v -0.559594 0.466697 -0.238215
v -0.526714 0.468130 -0.352732
v -0.338061 0.467506 -0.457203
v -0.423972 0.615636 -0.438316
v -0.453590 0.468572 -0.425000
v 0.126955 0.612759 -0.467360
v 0.354938 0.599733 -0.247567
v 0.497595 0.394879 -0.233712
v 0.431409 0.176999 -0.436888
v -0.034192 0.176999 -0.436888
v 0.234001 0.593395 -0.433565
v 0.073239 0.467506 -0.457203
v 0.208850 0.461034 -0.430513
v 0.350420 0.498435 -0.243097
v 0.316350 0.588690 -0.354173
v 0.306752 0.472796 -0.358531
v 0.476424 0.362503 -0.338721
v 0.401018 0.425776 -0.238182
v 0.362619 0.393602 -0.353208
v 0.276209 0.176999 -0.436888
v 0.452580 0.284011 -0.411916
v 0.317891 0.306302 -0.419664
v 0.019524 0.322252 -0.447046
v 0.121008 0.176999 -0.436888
v 0.172531 0.320681 -0.435544
v 0.431409 0.176999 0.436889
v 0.497595 0.394879 0.233712
v 0.354938 0.599733 0.247568
v 0.126955 0.612759 0.467360
v -0.034192 0.176999 0.436889
v 0.452580 0.284011 0.411917
v 0.276209 0.176999 0.436889
v 0.317891 0.306302 0.419665
v 0.401018 0.425776 0.238183
v 0.476423 0.362503 0.338722
v 0.362619 0.393602 0.353208
v 0.316350 0.588690 0.354174
v 0.350420 0.498435 0.243097
v 0.306752 0.472796 0.358532
v 0.073239 0.467506 0.457203
v 0.234001 0.593395 0.433565
v 0.208850 0.461034 0.430513
v 0.121008 0.176999 0.436889
v 0.019524 0.322252 0.447046
v 0.172531 0.320681 0.435545
v -0.313903 0.612759 0.467360
v -0.535704 0.610332 0.248259
v -0.607372 0.179426 0.218127
v -0.386378 0.176999 0.436889
v -0.422100 0.615551 0.435075
v -0.338061 0.467506 0.457203
v -0.453590 0.468572 0.425001
v -0.559594 0.466697 0.238215
v -0.505341 0.615076 0.357907
v -0.526714 0.468130 0.352732
v -0.574058 0.182218 0.325778
v -0.583483 0.323061 0.228171
v -0.550691 0.323955 0.342655
v -0.362219 0.322252 0.447046
v -0.496193 0.181427 0.407951
v -0.477662 0.323858 0.414879
v 0.774812 -0.465572 0.173075
v 0.971827 -0.075712 0.200377
v 0.739153 -0.053484 0.420772
v 0.517122 -0.489244 0.390301
v 0.840484 -0.335618 0.182176
v 0.724777 -0.492218 0.278504
v 0.801738 -0.345962 0.296883
v 0.929999 -0.087251 0.306906
v 0.906156 -0.205665 0.191276
v 0.870234 -0.210773 0.306408
v 0.665143 -0.198737 0.410615
v 0.845914 -0.079218 0.386553
v 0.789765 -0.208460 0.379639
v 0.631527 -0.500784 0.357111
v 0.591132 -0.343991 0.400458
v 0.718374 -0.348761 0.369859
v 0.774812 -0.465572 -0.173074
v 0.517122 -0.489244 -0.390300
v 0.739153 -0.053484 -0.420772
v 0.971827 -0.075712 -0.200377
v 0.724777 -0.492218 -0.278503
v 0.840484 -0.335618 -0.182175
v 0.801738 -0.345962 -0.296882
v 0.591132 -0.343991 -0.400457
v 0.631527 -0.500784 -0.357110
v 0.718374 -0.348761 -0.369858
v 0.845914 -0.079218 -0.386552
v 0.665143 -0.198737 -0.410614
v 0.789766 -0.208460 -0.379639
v 0.906156 -0.205665 -0.191276
v 0.929999 -0.087251 -0.306905
v 0.870234 -0.210773 -0.306407
v 0.853514 0.176999 0.436889
v 1.108246 0.199227 0.219603
v 0.986912 0.394879 0.233712
v 0.974071 0.184033 0.408066
v 0.913484 0.281731 0.415112
v 1.026537 0.284119 0.386801
v 1.134185 0.300990 0.226854
v 1.067573 0.192192 0.328309
v 1.092365 0.289863 0.330649
v 0.962449 0.361706 0.340534
v 1.089648 0.372806 0.232033
v 1.061010 0.340424 0.334295
v 0.853514 0.176999 -0.436888
v 0.986912 0.394879 -0.233712
v 1.108246 0.199227 -0.219602
v 0.913484 0.281731 -0.415111
v 0.974071 0.184033 -0.408066
v 1.026537 0.284119 -0.386800
v 1.089648 0.372806 -0.232033
v 0.962449 0.361706 -0.340533
v 1.061010 0.340424 -0.334295
v 1.067573 0.192192 -0.328309
v 1.134185 0.300990 -0.226854
v 1.092365 0.289863 -0.330649
v 0.170357 -1.111528 0.327162
v -0.421851 -2.791055 0.000000
v 0.008965 -1.572415 0.248928
v -0.206751 -2.168634 0.133007
v 0.170357 -1.111528 -0.327161
v 0.008965 -1.572415 -0.248927
v -0.206751 -2.168634 -0.133006
vn -0.0000 -0.0698 0.9976
vn -0.0000 -0.0698 -0.9976
vn -0.9841 0.1776 0.0000
vn 0.0000 -0.1009 0.9949
vn 0.0000 -1.0000 0.0000
vn 0.0000 1.0000 -0.0000
vn 0.9379 -0.3468 0.0000
vn -0.9864 0.1641 0.0000
vn 0.8892 -0.4576 0.0000
vn -0.0000 -0.1009 -0.9949
vn 0.8958 -0.4445 -0.0000
vn -0.8919 0.3736 0.2547
vn -0.6748 0.2751 0.6848
vn -0.2557 0.2339 0.9380
vn -0.2143 0.6834 0.6978
vn -0.2435 0.9354 0.2563
vn -0.6394 0.7391 0.2119
vn -0.5531 0.6118 0.5655
vn 0.2464 0.1020 0.9638
vn 0.6757 -0.0955 0.7309
vn 0.9432 -0.1236 0.3083
vn 0.7892 0.5268 0.3158
vn 0.2383 0.9188 0.3146
vn 0.2024 0.6193 0.7587
vn 0.6145 0.3779 0.6925
vn -0.8919 0.3736 -0.2547
vn -0.6393 0.7391 -0.2119
vn -0.2435 0.9354 -0.2563
vn -0.2143 0.6834 -0.6978
vn -0.2557 0.2339 -0.9380
vn -0.6748 0.2751 -0.6848
vn -0.5531 0.6118 -0.5655
vn 0.9432 -0.1236 -0.3083
vn 0.6757 -0.0955 -0.7309
vn 0.2464 0.1020 -0.9638
vn 0.2024 0.6192 -0.7587
vn 0.2383 0.9188 -0.3146
vn 0.7892 0.5268 -0.3158
vn 0.6145 0.3779 -0.6925
vn -0.9546 -0.1205 0.2726
vn -0.7320 -0.6367 0.2426
vn -0.2542 -0.9294 0.2676
vn -0.2105 -0.6971 0.6854
vn -0.2527 -0.2767 0.9271
vn -0.6939 -0.1506 0.7041
vn -0.5887 -0.5395 0.6019
vn -0.0377 -0.2936 0.9552
vn -0.1800 -0.6551 0.7338
vn -0.2717 -0.9078 0.3195
vn -0.7144 -0.6013 0.3579
vn -0.9424 -0.1188 0.3128
vn -0.6562 -0.1020 0.7477
vn -0.2398 -0.0563 0.9692
vn -0.1356 -0.0851 0.9871
vn -0.0379 -0.0935 0.9949
vn -0.0567 -0.1823 0.9816
vn -0.3834 -0.3397 0.8589
vn -0.9546 -0.1205 -0.2726
vn -0.6939 -0.1506 -0.7041
vn -0.2527 -0.2767 -0.9271
vn -0.2105 -0.6971 -0.6854
vn -0.2542 -0.9294 -0.2676
vn -0.7320 -0.6367 -0.2426
vn -0.5887 -0.5395 -0.6019
vn -0.9424 -0.1188 -0.3128
vn -0.7144 -0.6013 -0.3579
vn -0.2717 -0.9078 -0.3195
vn -0.1800 -0.6551 -0.7338
vn -0.0377 -0.2936 -0.9552
vn -0.0567 -0.1823 -0.9816
vn -0.0379 -0.0935 -0.9949
vn -0.1356 -0.0851 -0.9871
vn -0.2398 -0.0563 -0.9692
vn -0.6562 -0.1020 -0.7477
vn -0.3834 -0.3397 -0.8589
vn -0.2774 -0.0285 -0.9603
vn -0.6906 0.0412 -0.7220
vn -0.9532 0.1455 -0.2650
vn -0.9522 0.1394 -0.2717
vn -0.9489 0.1456 -0.2799
vn -0.7120 0.0921 -0.6961
vn -0.2624 -0.0292 -0.9645
vn -0.2686 -0.0227 -0.9630
vn -0.7016 0.0671 -0.7095
vn 0.2292 -0.1111 -0.9670
vn 0.6427 -0.0860 -0.7613
vn 0.9392 -0.0612 -0.3378
vn 0.7632 0.5081 -0.3992
vn 0.2939 0.8928 -0.3415
vn 0.1958 0.5831 -0.7884
vn 0.0391 0.1656 -0.9854
vn 0.0550 0.0490 -0.9973
vn 0.0370 -0.0439 -0.9983
vn 0.1294 -0.0585 -0.9899
vn 0.3801 0.2052 -0.9019
vn 0.0391 0.1656 0.9854
vn 0.1958 0.5831 0.7884
vn 0.2939 0.8928 0.3415
vn 0.7632 0.5081 0.3992
vn 0.9392 -0.0612 0.3378
vn 0.6427 -0.0860 0.7613
vn 0.2292 -0.1111 0.9670
vn 0.1294 -0.0585 0.9899
vn 0.0370 -0.0439 0.9983
vn 0.0550 0.0490 0.9973
vn 0.3801 0.2052 0.9019
vn -0.2772 -0.0137 0.9607
vn -0.6886 0.0865 0.7200
vn -0.9546 0.1348 0.2656
vn -0.9522 0.1394 0.2717
vn -0.9508 0.1310 0.2808
vn -0.7143 0.0468 0.6983
vn -0.2622 -0.0184 0.9648
vn -0.2686 -0.0227 0.9630
vn -0.7016 0.0671 0.7095
vn 0.8462 -0.4632 0.2634
vn 0.8572 -0.4512 0.2482
vn 0.8592 -0.4354 0.2687
vn 0.6360 -0.3123 0.7057
vn 0.2422 -0.1742 0.9544
vn 0.2237 -0.1808 0.9577
vn 0.2372 -0.2016 0.9503
vn 0.6101 -0.4060 0.6804
vn 0.6208 -0.3639 0.6944
vn 0.8462 -0.4632 -0.2634
vn 0.6101 -0.4060 -0.6804
vn 0.2372 -0.2016 -0.9503
vn 0.2237 -0.1808 -0.9577
vn 0.2422 -0.1742 -0.9544
vn 0.6360 -0.3123 -0.7057
vn 0.8592 -0.4354 -0.2687
vn 0.8572 -0.4512 -0.2482
vn 0.6208 -0.3639 -0.6944
vn 0.2340 0.0752 0.9693
vn 0.6473 -0.1820 0.7402
vn 0.9102 -0.2475 0.3322
vn 0.8004 0.4695 0.3728
vn 0.2107 0.9162 0.3408
vn 0.1805 0.6094 0.7720
vn 0.5989 0.3185 0.7347
vn 0.2340 0.0752 -0.9693
vn 0.1805 0.6094 -0.7720
vn 0.2107 0.9162 -0.3408
vn 0.8004 0.4695 -0.3728
vn 0.9102 -0.2475 -0.3322
vn 0.6473 -0.1820 -0.7402
vn 0.5989 0.3185 -0.7347
vn -0.9182 0.3961 0.0000
vn -0.6465 0.7629 -0.0000
vn -0.2406 0.9706 -0.0000
vn 0.0003 0.1969 0.9804
vn 0.0016 0.6817 0.7316
vn 0.0011 0.9616 0.2744
vn 0.9933 -0.1154 0.0000
vn 0.8206 0.5715 0.0000
vn 0.2369 0.9715 -0.0000
vn 0.0003 0.1969 -0.9804
vn 0.0016 0.6817 -0.7316
vn 0.0011 0.9616 -0.2743
vn -0.2608 -0.9654 0.0000
vn -0.7629 -0.6465 0.0000
vn -0.9952 -0.0983 -0.0000
vn 0.0054 -0.9631 0.2692
vn 0.0109 -0.7325 0.6806
vn 0.0057 -0.3358 0.9419
vn -0.3009 -0.9536 0.0000
vn -0.7673 -0.6413 0.0000
vn -0.9919 -0.1268 -0.0000
vn 0.0054 -0.9631 -0.2692
vn 0.0109 -0.7325 -0.6806
vn 0.0057 -0.3358 -0.9419
vn -0.2719 -0.0148 -0.9622
vn -0.6900 0.0702 -0.7204
vn -0.9552 0.1395 -0.2610
vn 0.2581 -0.1628 -0.9523
vn 0.6552 -0.2919 -0.6968
vn 0.8933 -0.3504 -0.2814
vn -0.2720 -0.0229 0.9620
vn -0.6903 0.0637 0.7207
vn -0.9551 0.1407 0.2609
vn -0.2567 -0.0248 -0.9662
vn -0.7127 0.0690 -0.6981
vn -0.9511 0.1380 -0.2764
vn 0.2581 -0.1628 0.9523
vn 0.6552 -0.2919 0.6968
vn 0.8933 -0.3504 0.2814
vn -0.2567 -0.0254 0.9662
vn -0.7123 0.0754 0.6978
vn -0.9501 0.1452 0.2760
vn 0.3047 0.9524 0.0000
vn 0.9990 -0.0446 -0.0000
vn 0.8925 -0.4510 -0.0000
vn 0.2473 -0.1938 0.9493
vn 0.6233 -0.3601 0.6941
vn 0.8500 -0.4412 0.2878
vn 0.2473 -0.1938 -0.9493
vn 0.6233 -0.3601 -0.6941
vn 0.8500 -0.4412 -0.2878
vn 0.9690 -0.2470 -0.0000
vn 0.8498 0.5270 -0.0000
vn 0.2101 0.9777 -0.0000
vn 0.0002 0.9553 0.2957
vn -0.0016 0.6824 0.7310
vn -0.0030 0.2167 0.9762
vn -0.0030 0.2167 -0.9762
vn -0.0016 0.6824 -0.7310
vn 0.0002 0.9553 -0.2957
vn -0.2677 -0.0744 -0.9606
vn -0.5296 -0.0146 -0.8481
vn -0.7903 0.0804 -0.6074
vn -0.2677 -0.0744 0.9606
vn -0.5296 -0.0146 0.8481
vn -0.7903 0.0804 0.6074
vn 0.7097 -0.4223 0.5639
vn 0.5176 -0.3642 0.7743
vn 0.2656 -0.2463 0.9321
vn 0.7097 -0.4223 -0.5639
vn 0.5176 -0.3642 -0.7743
vn 0.2656 -0.2463 -0.9321
usemtl Material.001
s off
f 2//1 169//1 152//1 13//1
f 172//1 51//1 61//1 153//1
f 96//2 132//2 229//2 203//2
f 63//3 93//3 242//3
f 188//4 64//4 241//4
f 50//5 83//5 94//5 62//5
f 3//6 15//6 39//6 26//6
f 38//2 129//2 116//2 27//2
f 14//7 151//7 130//7 37//7
f 114//8 81//8 49//8 171//8
f 149//1 65//1 187//1 217//1
f 201//9 185//9 242//9
f 97//10 202//10 245//10
f 131//6 150//6 219//6 230//6
f 133//2 95//2 82//2 113//2
f 218//11 186//11 204//11 231//11
f 1//12 4//12 6//12 5//12
f 4//13 8//13 9//13 6//13
f 2//14 7//14 9//14 8//14
f 7//15 11//15 12//15 9//15
f 3//16 10//16 12//16 11//16
f 10//17 5//17 6//17 12//17
f 6//18 9//18 12//18
f 13//19 16//19 18//19 17//19
f 16//20 20//20 21//20 18//20
f 14//21 19//21 21//21 20//21
f 19//22 23//22 24//22 21//22
f 15//23 22//23 24//23 23//23
f 22//24 17//24 18//24 24//24
f 18//25 21//25 24//25
f 25//26 28//26 30//26 29//26
f 28//27 32//27 33//27 30//27
f 26//28 31//28 33//28 32//28
f 31//29 35//29 36//29 33//29
f 27//30 34//30 36//30 35//30
f 34//31 29//31 30//31 36//31
f 30//32 33//32 36//32
f 37//33 40//33 42//33 41//33
f 40//34 44//34 45//34 42//34
f 38//35 43//35 45//35 44//35
f 43//36 47//36 48//36 45//36
f 39//37 46//37 48//37 47//37
f 46//38 41//38 42//38 48//38
f 42//39 45//39 48//39
f 49//40 52//40 54//40 53//40
f 52//41 56//41 57//41 54//41
f 50//42 55//42 57//42 56//42
f 55//43 59//43 60//43 57//43
f 51//44 58//44 60//44 59//44
f 58//45 53//45 54//45 60//45
f 54//46 57//46 60//46
f 61//47 66//47 68//47 67//47
f 66//48 70//48 71//48 68//48
f 62//49 69//49 71//49 70//49
f 69//50 73//50 74//50 71//50
f 63//51 72//51 74//51 73//51
f 72//52 76//52 77//52 74//52
f 64//53 75//53 77//53 76//53
f 75//54 79//54 80//54 77//54
f 65//55 78//55 80//55 79//55
f 78//56 67//56 68//56 80//56
f 68//57 71//57 74//57 77//57 80//57
f 81//58 84//58 86//58 85//58
f 84//59 88//59 89//59 86//59
f 82//60 87//60 89//60 88//60
f 87//61 91//61 92//61 89//61
f 83//62 90//62 92//62 91//62
f 90//63 85//63 86//63 92//63
f 86//64 89//64 92//64
f 93//65 98//65 100//65 99//65
f 98//66 102//66 103//66 100//66
f 94//67 101//67 103//67 102//67
f 101//68 105//68 106//68 103//68
f 95//69 104//69 106//69 105//69
f 104//70 108//70 109//70 106//70
f 96//71 107//71 109//71 108//71
f 107//72 111//72 112//72 109//72
f 97//73 110//73 112//73 111//73
f 110//74 99//74 100//74 112//74
f 100//75 103//75 106//75 109//75 112//75
f 113//76 117//76 119//76 118//76
f 117//77 121//77 122//77 119//77
f 114//78 120//78 122//78 121//78
f 120//79 124//79 125//79 122//79
f 115//80 123//80 125//80 124//80
f 123//81 127//81 128//81 125//81
f 116//82 126//82 128//82 127//82
f 126//83 118//83 119//83 128//83
f 119//84 122//84 125//84 128//84
f 129//85 134//85 136//85 135//85
f 134//86 138//86 139//86 136//86
f 130//87 137//87 139//87 138//87
f 137//88 141//88 142//88 139//88
f 131//89 140//89 142//89 141//89
f 140//90 144//90 145//90 142//90
f 132//91 143//91 145//91 144//91
f 143//92 147//92 148//92 145//92
f 133//93 146//93 148//93 147//93
f 146//94 135//94 136//94 148//94
f 136//95 139//95 142//95 145//95 148//95
f 149//96 154//96 156//96 155//96
f 154//97 158//97 159//97 156//97
f 150//98 157//98 159//98 158//98
f 157//99 161//99 162//99 159//99
f 151//100 160//100 162//100 161//100
f 160//101 164//101 165//101 162//101
f 152//102 163//102 165//102 164//102
f 163//103 167//103 168//103 165//103
f 153//104 166//104 168//104 167//104
f 166//105 155//105 156//105 168//105
f 156//106 159//106 162//106 165//106 168//106
f 169//107 173//107 175//107 174//107
f 173//108 177//108 178//108 175//108
f 170//109 176//109 178//109 177//109
f 176//110 180//110 181//110 178//110
f 171//111 179//111 181//111 180//111
f 179//112 183//112 184//112 181//112
f 172//113 182//113 184//113 183//113
f 182//114 174//114 175//114 184//114
f 175//115 178//115 181//115 184//115
f 185//116 189//116 191//116 190//116
f 189//117 193//117 194//117 191//117
f 186//118 192//118 194//118 193//118
f 192//119 196//119 197//119 194//119
f 187//120 195//120 197//120 196//120
f 195//121 199//121 200//121 197//121
f 188//122 198//122 200//122 199//122
f 198//123 190//123 191//123 200//123
f 191//124 194//124 197//124 200//124
f 201//125 205//125 207//125 206//125
f 205//126 209//126 210//126 207//126
f 202//127 208//127 210//127 209//127
f 208//128 212//128 213//128 210//128
f 203//129 211//129 213//129 212//129
f 211//130 215//130 216//130 213//130
f 204//131 214//131 216//131 215//131
f 214//132 206//132 207//132 216//132
f 207//133 210//133 213//133 216//133
f 217//134 220//134 222//134 221//134
f 220//135 224//135 225//135 222//135
f 218//136 223//136 225//136 224//136
f 223//137 227//137 228//137 225//137
f 219//138 226//138 228//138 227//138
f 226//139 221//139 222//139 228//139
f 222//140 225//140 228//140
f 229//141 232//141 234//141 233//141
f 232//142 236//142 237//142 234//142
f 230//143 235//143 237//143 236//143
f 235//144 239//144 240//144 237//144
f 231//145 238//145 240//145 239//145
f 238//146 233//146 234//146 240//146
f 234//147 237//147 240//147
f 25//148 1//148 5//148 28//148
f 28//149 5//149 10//149 32//149
f 32//150 10//150 3//150 26//150
f 2//151 13//151 17//151 7//151
f 7//152 17//152 22//152 11//152
f 11//153 22//153 15//153 3//153
f 14//154 37//154 41//154 19//154
f 19//155 41//155 46//155 23//155
f 23//156 46//156 39//156 15//156
f 38//157 27//157 35//157 43//157
f 43//158 35//158 31//158 47//158
f 47//159 31//159 26//159 39//159
f 83//160 50//160 56//160 90//160
f 90//161 56//161 52//161 85//161
f 85//162 52//162 49//162 81//162
f 50//163 62//163 70//163 55//163
f 55//164 70//164 66//164 59//164
f 59//165 66//165 61//165 51//165
f 62//166 94//166 102//166 69//166
f 69//167 102//167 98//167 73//167
f 73//168 98//168 93//168 63//168
f 94//169 83//169 91//169 101//169
f 101//170 91//170 87//170 105//170
f 105//171 87//171 82//171 95//171
f 113//172 82//172 88//172 117//172
f 117//173 88//173 84//173 121//173
f 121//174 84//174 81//174 114//174
f 129//175 38//175 44//175 134//175
f 134//176 44//176 40//176 138//176
f 138//177 40//177 37//177 130//177
f 153//1 61//1 67//1 166//1
f 166//1 67//1 78//1 155//1
f 155//1 78//1 65//1 149//1
f 169//178 2//178 8//178 173//178
f 173//179 8//179 4//179 177//179
f 177//180 4//180 1//180 170//180
f 27//181 116//181 127//181 34//181
f 34//182 127//182 123//182 29//182
f 29//183 123//183 115//183 25//183
f 95//2 133//2 147//2 104//2
f 104//2 147//2 143//2 108//2
f 108//2 143//2 132//2 96//2
f 13//184 152//184 164//184 16//184
f 16//185 164//185 160//185 20//185
f 20//186 160//186 151//186 14//186
f 51//187 172//187 183//187 58//187
f 58//188 183//188 179//188 53//188
f 53//189 179//189 171//189 49//189
f 114//8 171//8 180//8 120//8
f 120//8 180//8 176//8 124//8
f 124//8 176//8 170//8 115//8
f 150//190 131//190 141//190 157//190
f 157//155 141//155 137//155 161//155
f 161//191 137//191 130//191 151//191
f 172//1 153//1 167//1 182//1
f 182//1 167//1 163//1 174//1
f 174//1 163//1 152//1 169//1
f 133//2 113//2 118//2 146//2
f 146//2 118//2 126//2 135//2
f 135//2 126//2 116//2 129//2
f 185//192 201//192 206//192 189//192
f 189//192 206//192 214//192 193//192
f 193//192 214//192 204//192 186//192
f 217//193 187//193 196//193 220//193
f 220//194 196//194 192//194 224//194
f 224//195 192//195 186//195 218//195
f 203//196 229//196 233//196 211//196
f 211//197 233//197 238//197 215//197
f 215//198 238//198 231//198 204//198
f 218//199 231//199 239//199 223//199
f 223//200 239//200 235//200 227//200
f 227//201 235//201 230//201 219//201
f 64//1 188//1 199//1 75//1
f 75//1 199//1 195//1 79//1
f 79//1 195//1 187//1 65//1
f 219//202 150//202 158//202 226//202
f 226//203 158//203 154//203 221//203
f 221//204 154//204 149//204 217//204
f 96//2 203//2 212//2 107//2
f 107//2 212//2 208//2 111//2
f 111//2 208//2 202//2 97//2
f 229//205 132//205 144//205 232//205
f 232//206 144//206 140//206 236//206
f 236//207 140//207 131//207 230//207
f 97//208 245//208 246//208 110//208
f 110//209 246//209 247//209 99//209
f 99//210 247//210 242//210 93//210
f 241//211 64//211 76//211 243//211
f 243//212 76//212 72//212 244//212
f 244//213 72//213 63//213 242//213
f 242//214 185//214 190//214 244//214
f 244//215 190//215 198//215 243//215
f 243//216 198//216 188//216 241//216
f 201//217 242//217 247//217 205//217
f 205//218 247//218 246//218 209//218
f 209//219 246//219 245//219 202//219
f 25//8 115//8 170//8 1//8
