# Blender v2.79 (sub 0) OBJ File: 'Bulb.blend'
# www.blender.org
mtllib Bulb.mtl
o Circle
v 0.000000 -0.000491 -0.100344
v -0.070954 -0.000491 -0.070954
v -0.100344 -0.000491 0.000000
v -0.070954 -0.000491 0.070954
v 0.000000 -0.000491 0.100344
v 0.070954 -0.000491 0.070954
v 0.100344 -0.000491 -0.000000
v 0.070954 -0.000491 -0.070954
v -0.000000 0.039701 -0.150791
v -0.106625 0.039701 -0.106625
v -0.150791 0.039701 0.000000
v -0.106625 0.039701 0.106625
v 0.000000 0.039701 0.150791
v 0.106625 0.039701 0.106625
v 0.150791 0.039701 -0.000000
v 0.106625 0.039701 -0.106625
v -0.000000 0.300344 -0.179667
v -0.127044 0.300344 -0.127044
v -0.179667 0.300344 0.000000
v -0.127044 0.300344 0.127044
v 0.000000 0.300344 0.179667
v 0.127044 0.300344 0.127044
v 0.179667 0.300344 -0.000000
v 0.127044 0.300344 -0.127044
v -0.000000 0.328113 -0.202073
v -0.142888 0.328113 -0.142888
v -0.202073 0.328113 0.000000
v -0.142888 0.328113 0.142888
v 0.000000 0.328113 0.202073
v 0.142888 0.328113 0.142887
v 0.202073 0.328113 -0.000000
v 0.142888 0.328113 -0.142887
v -0.000000 0.567806 -0.229895
v -0.162560 0.567806 -0.162560
v -0.229895 0.567806 0.000000
v -0.162560 0.567806 0.162560
v 0.000000 0.567806 0.229895
v 0.162560 0.567806 0.162560
v 0.229895 0.567806 -0.000000
v 0.162560 0.567806 -0.162560
v -0.000000 0.747120 -0.319143
v -0.225668 0.747120 -0.225668
v -0.319143 0.747120 0.000000
v -0.225668 0.747120 0.225668
v 0.000000 0.747120 0.319143
v 0.225669 0.747120 0.225668
v 0.319143 0.747120 -0.000000
v 0.225669 0.747120 -0.225668
v -0.000000 0.981996 -0.413752
v -0.292567 0.981996 -0.292567
v -0.413752 0.981996 0.000000
v -0.292567 0.981996 0.292567
v 0.000000 0.981996 0.413752
v 0.292567 0.981996 0.292567
v 0.413752 0.981996 -0.000000
v 0.292567 0.981996 -0.292567
v -0.000000 1.363354 -0.143106
v -0.101191 1.363354 -0.101191
v -0.143106 1.363354 0.000000
v -0.101191 1.363354 0.101191
v 0.000000 1.363354 0.143106
v 0.101191 1.363354 0.101191
v 0.143106 1.363354 0.000000
v 0.101191 1.363354 -0.101191
v -0.000000 1.386084 -0.072164
v -0.051028 1.386084 -0.051028
v -0.072164 1.386084 0.000000
v -0.051028 1.386084 0.051028
v 0.000000 1.386084 0.072164
v 0.051028 1.386084 0.051028
v 0.072164 1.386084 0.000000
v 0.051028 1.386084 -0.051028
v -0.259957 1.172675 0.259957
v -0.367635 1.172675 0.000000
v -0.259957 1.172675 -0.259957
v -0.000000 1.172675 -0.367635
v 0.259957 1.172675 -0.259957
v 0.367635 1.172675 -0.000000
v 0.259957 1.172675 0.259957
v 0.000000 1.172675 0.367635
v -0.211788 1.268015 0.211788
v -0.211788 1.268015 -0.211788
v 0.299513 1.268015 -0.000000
v 0.000000 1.268015 0.299513
v -0.299513 1.268015 0.000000
v -0.000000 1.268015 -0.299513
v 0.211788 1.268015 -0.211788
v 0.211788 1.268015 0.211788
v -0.000000 0.864558 -0.388546
v 0.274743 0.864558 -0.274743
v 0.388546 0.864558 -0.000000
v 0.274743 0.864558 0.274743
v 0.000000 0.864558 0.388546
v -0.274743 0.864558 0.274743
v -0.388546 0.864558 0.000000
v -0.274743 0.864558 -0.274743
v -0.248783 0.637259 0.000000
v -0.175916 0.637259 -0.175916
v 0.175916 0.637259 -0.175916
v 0.248783 0.637259 -0.000000
v 0.175916 0.637259 0.175916
v 0.000000 0.637259 0.248783
v -0.175916 0.637259 0.175916
v -0.000000 0.637259 -0.248783
v 0.146095 0.081176 -0.000000
v 0.159041 0.114171 -0.000000
v 0.153876 0.151405 -0.000000
v 0.167292 0.188640 -0.000000
v 0.161657 0.221634 -0.000000
v 0.175542 0.263109 -0.000000
v 0.124127 0.263109 0.124127
v 0.114309 0.221634 0.114309
v 0.118293 0.188640 0.118293
v 0.108807 0.151405 0.108807
v 0.112459 0.114171 0.112459
v 0.103305 0.081176 0.103305
v 0.000000 0.081176 0.146095
v 0.000000 0.114171 0.159041
v 0.000000 0.151405 0.153876
v 0.000000 0.188640 0.167292
v 0.000000 0.221634 0.161657
v 0.000000 0.263109 0.175542
v -0.124127 0.263109 0.124127
v -0.114309 0.221634 0.114309
v -0.118293 0.188640 0.118293
v -0.108807 0.151405 0.108807
v -0.112459 0.114171 0.112459
v -0.103305 0.081176 0.103305
v -0.146095 0.081176 0.000000
v -0.159041 0.114171 0.000000
v -0.153876 0.151405 0.000000
v -0.167292 0.188640 0.000000
v -0.161657 0.221634 0.000000
v -0.175542 0.263109 0.000000
v -0.124127 0.263109 -0.124127
v -0.114309 0.221634 -0.114309
v -0.118293 0.188640 -0.118293
v -0.108807 0.151405 -0.108807
v -0.112459 0.114171 -0.112459
v -0.103305 0.081176 -0.103305
v 0.103305 0.081176 -0.103305
v 0.112459 0.114171 -0.112459
v 0.108807 0.151405 -0.108807
v 0.118293 0.188640 -0.118293
v 0.114309 0.221634 -0.114309
v 0.124127 0.263109 -0.124127
v -0.000000 0.263109 -0.175542
v -0.000000 0.221634 -0.161657
v -0.000000 0.188640 -0.167292
v -0.000000 0.151405 -0.153876
v -0.000000 0.114171 -0.159041
v -0.000000 0.081176 -0.146095
vn -0.3068 -0.5977 -0.7407
vn 0.3068 -0.5977 -0.7407
vn 0.7407 -0.5977 0.3068
vn -0.3068 -0.5977 0.7407
vn -0.7407 -0.5977 -0.3068
vn 0.7407 -0.5977 -0.3068
vn 0.3068 -0.5977 0.7407
vn -0.7407 -0.5977 0.3068
vn 0.9186 -0.1066 -0.3805
vn 0.3805 -0.1066 0.9186
vn -0.9186 -0.1066 0.3805
vn -0.3805 -0.1066 -0.9186
vn 0.3805 -0.1066 -0.9186
vn 0.9186 -0.1066 0.3805
vn -0.3805 -0.1066 0.9186
vn -0.9186 -0.1066 -0.3805
vn -0.7951 -0.5092 -0.3293
vn 0.7951 -0.5092 -0.3293
vn 0.3293 -0.5092 0.7951
vn -0.7951 -0.5092 0.3293
vn -0.3293 -0.5092 -0.7951
vn 0.3293 -0.5092 -0.7951
vn 0.7951 -0.5092 0.3293
vn -0.3293 -0.5092 0.7951
vn 0.3754 -0.1945 -0.9062
vn 0.9062 -0.1945 0.3754
vn -0.3754 -0.1945 0.9062
vn -0.9062 -0.1945 -0.3754
vn 0.9062 -0.1945 -0.3754
vn 0.3754 -0.1945 0.9062
vn -0.9062 -0.1945 0.3754
vn -0.3754 -0.1945 -0.9062
vn -0.5088 0.8347 0.2107
vn -0.2107 0.8347 -0.5088
vn 0.2107 0.8347 -0.5088
vn 0.5088 0.8347 0.2107
vn -0.2107 0.8347 0.5088
vn -0.5088 0.8347 -0.2107
vn 0.5088 0.8347 -0.2107
vn 0.2107 0.8347 0.5088
vn 0.3027 0.9448 -0.1254
vn 0.1254 0.9448 0.3027
vn -0.3027 0.9448 0.1254
vn -0.1254 0.9448 -0.3027
vn 0.1254 0.9448 -0.3027
vn 0.3027 0.9448 0.1254
vn -0.1254 0.9448 0.3027
vn -0.3027 0.9448 -0.1254
vn 0.3735 0.2181 0.9016
vn 0.9016 0.2181 -0.3735
vn -0.9016 0.2181 -0.3735
vn -0.3735 0.2181 0.9016
vn 0.9016 0.2181 0.3735
vn 0.3735 0.2181 -0.9016
vn -0.3735 0.2181 -0.9016
vn -0.9016 0.2181 0.3735
vn 0.3194 0.5509 0.7710
vn 0.7710 0.5509 -0.3194
vn -0.7710 0.5509 -0.3194
vn -0.3194 0.5509 0.7710
vn 0.7710 0.5509 0.3194
vn 0.3194 0.5509 -0.7710
vn -0.3194 0.5509 -0.7710
vn -0.7710 0.5509 0.3194
vn -0.3359 -0.4792 -0.8109
vn -0.8109 -0.4792 0.3359
vn 0.3359 -0.4792 0.8109
vn 0.8109 -0.4792 -0.3359
vn -0.8109 -0.4792 -0.3359
vn -0.3359 -0.4792 0.8109
vn 0.8109 -0.4792 0.3359
vn 0.3359 -0.4792 -0.8109
vn -0.3711 -0.2437 0.8960
vn 0.8960 -0.2437 0.3711
vn 0.3711 -0.2437 -0.8960
vn -0.3711 -0.2437 -0.8960
vn -0.8960 -0.2437 0.3711
vn 0.3711 -0.2437 0.8960
vn 0.8960 -0.2437 -0.3711
vn -0.8960 -0.2437 -0.3711
vn 0.0000 1.0000 0.0000
vn 0.0000 -1.0000 -0.0000
vn 0.6034 -0.7573 -0.2499
vn 0.2499 -0.7573 0.6034
vn -0.6034 -0.7573 0.2499
vn -0.2499 -0.7573 -0.6034
vn 0.2499 -0.7573 -0.6034
vn 0.6034 -0.7573 0.2499
vn -0.2499 -0.7573 0.6034
vn -0.6034 -0.7573 -0.2499
vn 0.9191 -0.1018 0.3807
vn -0.3807 -0.1018 0.9191
vn -0.9191 -0.1018 -0.3807
vn 0.9191 -0.1018 -0.3807
vn 0.3807 -0.1018 0.9191
vn -0.9191 -0.1018 0.3807
vn -0.3807 -0.1018 -0.9191
vn 0.3807 -0.1018 -0.9191
vn 0.3806 0.1040 -0.9189
vn 0.3598 -0.3408 -0.8686
vn 0.3796 0.1271 -0.9164
vn 0.3631 -0.3158 -0.8766
vn 0.3780 0.1559 -0.9126
vn 0.3656 -0.2955 -0.8826
vn -0.3806 0.1040 -0.9189
vn -0.3598 -0.3408 -0.8686
vn -0.3796 0.1271 -0.9164
vn -0.3631 -0.3158 -0.8766
vn -0.3780 0.1559 -0.9126
vn -0.3656 -0.2955 -0.8826
vn -0.9189 0.1040 0.3806
vn -0.8686 -0.3408 0.3598
vn -0.9164 0.1271 0.3796
vn -0.8766 -0.3158 0.3631
vn -0.9126 0.1559 0.3780
vn -0.8826 -0.2955 0.3656
vn 0.3806 0.1040 0.9189
vn 0.3598 -0.3408 0.8686
vn 0.3796 0.1271 0.9164
vn 0.3631 -0.3158 0.8766
vn 0.3780 0.1559 0.9126
vn 0.3656 -0.2955 0.8826
vn 0.9189 0.1040 -0.3806
vn 0.8686 -0.3408 -0.3598
vn 0.9164 0.1271 -0.3796
vn 0.8766 -0.3158 -0.3631
vn 0.9126 0.1559 -0.3780
vn 0.8826 -0.2955 -0.3656
vn -0.9189 0.1040 -0.3806
vn -0.8686 -0.3408 -0.3598
vn -0.9164 0.1271 -0.3796
vn -0.8766 -0.3158 -0.3631
vn -0.9126 0.1559 -0.3780
vn -0.8826 -0.2955 -0.3656
vn -0.3806 0.1040 0.9189
vn -0.3598 -0.3408 0.8686
vn -0.3796 0.1271 0.9164
vn -0.3631 -0.3158 0.8766
vn -0.3780 0.1559 0.9126
vn -0.3656 -0.2955 0.8826
vn 0.9189 0.1040 0.3806
vn 0.8686 -0.3408 0.3598
vn 0.9164 0.1271 0.3796
vn 0.8766 -0.3158 0.3631
vn 0.9126 0.1559 0.3780
vn 0.8826 -0.2955 0.3656
usemtl Material.001
s off
f 17//1 18//1 26//1 25//1
f 24//2 17//2 25//2 32//2
f 22//3 23//3 31//3 30//3
f 20//4 21//4 29//4 28//4
f 18//5 19//5 27//5 26//5
f 23//6 24//6 32//6 31//6
f 21//7 22//7 30//7 29//7
f 19//8 20//8 28//8 27//8
f 31//9 32//9 40//9 39//9
f 29//10 30//10 38//10 37//10
f 27//11 28//11 36//11 35//11
f 25//12 26//12 34//12 33//12
f 32//13 25//13 33//13 40//13
f 30//14 31//14 39//14 38//14
f 28//15 29//15 37//15 36//15
f 26//16 27//16 35//16 34//16
f 98//17 97//17 43//17 42//17
f 100//18 99//18 48//18 47//18
f 102//19 101//19 46//19 45//19
f 97//20 103//20 44//20 43//20
f 104//21 98//21 42//21 41//21
f 99//22 104//22 41//22 48//22
f 101//23 100//23 47//23 46//23
f 103//24 102//24 45//24 44//24
f 90//25 89//25 49//25 56//25
f 92//26 91//26 55//26 54//26
f 94//27 93//27 53//27 52//27
f 96//28 95//28 51//28 50//28
f 91//29 90//29 56//29 55//29
f 93//30 92//30 54//30 53//30
f 95//31 94//31 52//31 51//31
f 89//32 96//32 50//32 49//32
f 85//33 81//33 60//33 59//33
f 86//34 82//34 58//34 57//34
f 87//35 86//35 57//35 64//35
f 88//36 83//36 63//36 62//36
f 81//37 84//37 61//37 60//37
f 82//38 85//38 59//38 58//38
f 83//39 87//39 64//39 63//39
f 84//40 88//40 62//40 61//40
f 63//41 64//41 72//41 71//41
f 61//42 62//42 70//42 69//42
f 59//43 60//43 68//43 67//43
f 57//44 58//44 66//44 65//44
f 64//45 57//45 65//45 72//45
f 62//46 63//46 71//46 70//46
f 60//47 61//47 69//47 68//47
f 58//48 59//48 67//48 66//48
f 53//49 54//49 79//49 80//49
f 55//50 56//50 77//50 78//50
f 50//51 51//51 74//51 75//51
f 52//52 53//52 80//52 73//52
f 54//53 55//53 78//53 79//53
f 56//54 49//54 76//54 77//54
f 49//55 50//55 75//55 76//55
f 51//56 52//56 73//56 74//56
f 80//57 79//57 88//57 84//57
f 78//58 77//58 87//58 83//58
f 75//59 74//59 85//59 82//59
f 73//60 80//60 84//60 81//60
f 79//61 78//61 83//61 88//61
f 77//62 76//62 86//62 87//62
f 76//63 75//63 82//63 86//63
f 74//64 73//64 81//64 85//64
f 41//65 42//65 96//65 89//65
f 43//66 44//66 94//66 95//66
f 45//67 46//67 92//67 93//67
f 47//68 48//68 90//68 91//68
f 42//69 43//69 95//69 96//69
f 44//70 45//70 93//70 94//70
f 46//71 47//71 91//71 92//71
f 48//72 41//72 89//72 90//72
f 36//73 37//73 102//73 103//73
f 38//74 39//74 100//74 101//74
f 40//75 33//75 104//75 99//75
f 33//76 34//76 98//76 104//76
f 35//77 36//77 103//77 97//77
f 37//78 38//78 101//78 102//78
f 39//79 40//79 99//79 100//79
f 34//80 35//80 97//80 98//80
f 66//81 67//81 68//81 69//81 70//81 71//81 72//81 65//81
usemtl Material.002
f 2//82 1//82 8//82 7//82 6//82 5//82 4//82 3//82
f 7//83 8//83 16//83 15//83
f 5//84 6//84 14//84 13//84
f 3//85 4//85 12//85 11//85
f 1//86 2//86 10//86 9//86
f 8//87 1//87 9//87 16//87
f 6//88 7//88 15//88 14//88
f 4//89 5//89 13//89 12//89
f 2//90 3//90 11//90 10//90
f 111//91 110//91 23//91 22//91
f 123//92 122//92 21//92 20//92
f 135//93 134//93 19//93 18//93
f 110//94 146//94 24//94 23//94
f 122//95 111//95 22//95 21//95
f 134//96 123//96 20//96 19//96
f 147//97 135//97 18//97 17//97
f 146//98 147//98 17//98 24//98
f 16//99 9//99 152//99 141//99
f 141//100 152//100 151//100 142//100
f 142//101 151//101 150//101 143//101
f 143//102 150//102 149//102 144//102
f 144//103 149//103 148//103 145//103
f 145//104 148//104 147//104 146//104
f 9//105 10//105 140//105 152//105
f 152//106 140//106 139//106 151//106
f 151//107 139//107 138//107 150//107
f 150//108 138//108 137//108 149//108
f 149//109 137//109 136//109 148//109
f 148//110 136//110 135//110 147//110
f 11//111 12//111 128//111 129//111
f 129//112 128//112 127//112 130//112
f 130//113 127//113 126//113 131//113
f 131//114 126//114 125//114 132//114
f 132//115 125//115 124//115 133//115
f 133//116 124//116 123//116 134//116
f 13//117 14//117 116//117 117//117
f 117//118 116//118 115//118 118//118
f 118//119 115//119 114//119 119//119
f 119//120 114//120 113//120 120//120
f 120//121 113//121 112//121 121//121
f 121//122 112//122 111//122 122//122
f 15//123 16//123 141//123 105//123
f 105//124 141//124 142//124 106//124
f 106//125 142//125 143//125 107//125
f 107//126 143//126 144//126 108//126
f 108//127 144//127 145//127 109//127
f 109//128 145//128 146//128 110//128
f 10//129 11//129 129//129 140//129
f 140//130 129//130 130//130 139//130
f 139//131 130//131 131//131 138//131
f 138//132 131//132 132//132 137//132
f 137//133 132//133 133//133 136//133
f 136//134 133//134 134//134 135//134
f 12//135 13//135 117//135 128//135
f 128//136 117//136 118//136 127//136
f 127//137 118//137 119//137 126//137
f 126//138 119//138 120//138 125//138
f 125//139 120//139 121//139 124//139
f 124//140 121//140 122//140 123//140
f 14//141 15//141 105//141 116//141
f 116//142 105//142 106//142 115//142
f 115//143 106//143 107//143 114//143
f 114//144 107//144 108//144 113//144
f 113//145 108//145 109//145 112//145
f 112//146 109//146 110//146 111//146
f 19//82 18//82 17//82 24//82 23//82 22//82 21//82 20//82
