# Blender v2.79 (sub 0) OBJ File: 'Cornucopia.blend'
# www.blender.org
mtllib Cornucopia.mtl
o Circle
v -0.724044 4.308064 -3.794527
v -3.385849 4.645722 -2.683136
v -4.488404 4.785586 0.000001
v -3.385849 4.645722 2.683136
v -0.724044 4.308064 3.794528
v 1.937761 3.970405 2.683136
v 3.040316 3.830542 0.000000
v 1.937761 3.970405 -2.683135
v -0.868853 3.149593 -2.750458
v -2.798259 3.394344 -1.944867
v -3.597444 3.495724 0.000001
v -2.798259 3.394344 1.944867
v -0.868853 3.149593 2.750458
v 1.060552 2.904841 1.944867
v 1.859738 2.803462 0.000000
v 1.060552 2.904841 -1.944867
v -0.796449 -0.144809 -1.700073
v -1.996908 -0.081398 -1.202133
v -2.494154 -0.055132 -0.000000
v -1.996908 -0.081398 1.202133
v -0.796449 -0.144809 1.700072
v 0.404011 -0.208220 1.202132
v 0.901257 -0.234486 -0.000000
v 0.404011 -0.208220 -1.202133
v 0.072405 -2.461751 -1.078809
v -0.579246 -2.858319 -0.762833
v -0.849168 -3.022582 -0.000001
v -0.579246 -2.858319 0.762832
v 0.072404 -2.461751 1.078808
v 0.881183 -1.890598 0.762832
v 1.151105 -1.726334 -0.000000
v 0.881183 -1.890598 -0.762833
v 1.207216 -3.125180 -0.929735
v 0.953958 -3.731862 -0.657422
v 0.849055 -3.983158 -0.000001
v 0.953958 -3.731863 0.657421
v 1.207215 -3.125180 0.929734
v 1.617601 -2.343911 0.657421
v 1.722503 -2.092614 -0.000000
v 1.617601 -2.343910 -0.657422
v 2.289651 -3.090262 -0.817042
v 2.336990 -3.666054 -0.577736
v 2.356598 -3.904556 -0.000001
v 2.336990 -3.666055 0.577734
v 2.289650 -3.090262 0.817040
v 2.242311 -2.514470 0.577734
v 2.222703 -2.275969 -0.000000
v 2.242311 -2.514470 -0.577735
v 3.407003 -2.653796 -0.583715
v 3.575075 -3.030775 -0.412749
v 3.644693 -3.186925 -0.000001
v 3.575075 -3.030776 0.412748
v 3.407002 -2.653797 0.583714
v 3.238930 -2.276818 0.412748
v 3.169312 -2.120668 -0.000000
v 3.238930 -2.276818 -0.412749
v 3.865775 -2.263864 -0.563664
v 4.136038 -2.552912 -0.395476
v 4.246062 -2.671846 -0.000001
v 4.136038 -2.552913 0.395475
v 3.865775 -2.263864 0.563663
v 3.589695 -1.972265 0.400621
v 3.474927 -1.851284 -0.000000
v 3.589695 -1.972265 -0.400621
v 4.121565 -1.275196 -0.482377
v 4.445168 -1.186689 -0.335309
v 4.576412 -1.151593 -0.000000
v 4.445169 -1.186689 0.335308
v 4.121565 -1.275196 0.482376
v 3.790838 -1.370374 0.349805
v 3.650647 -1.494219 -0.000000
v 3.790838 -1.370374 -0.349806
v 4.411649 -1.991167 0.410491
v 4.068988 -1.831770 0.583744
v 4.411649 -1.991167 -0.410492
v 4.551339 -2.056709 -0.000000
v 3.579705 -1.615241 -0.000000
v 3.724527 -1.676217 -0.414224
v 3.724527 -1.676217 0.414224
v 4.068988 -1.831770 -0.583745
v 3.753745 -0.863114 -0.550957
v 3.801223 -0.482126 -0.386254
v 3.818600 -0.324592 -0.000000
v 3.801224 -0.482125 0.386254
v 3.753745 -0.863114 0.550956
v 3.699273 -1.246610 0.398979
v 3.699273 -1.246610 -0.398980
v 3.265938 -0.830907 -0.589366
v 3.080730 -0.427926 -0.490116
v 2.959202 -0.264553 -0.000000
v 3.080730 -0.427925 0.490115
v 3.265938 -0.830908 0.589365
v 3.548799 -1.220995 0.500497
v 3.548799 -1.220995 -0.500498
v 3.094366 -1.177513 -0.643178
v 2.705649 -0.968610 -0.538408
v 2.499036 -0.879378 -0.000000
v 2.705648 -0.968608 0.538408
v 3.094366 -1.177513 0.643177
v 3.420564 -1.350083 0.547191
v 3.420564 -1.350083 -0.547192
v 3.207227 -1.533997 -0.529338
v 2.768308 -1.573366 -0.441233
v 2.584960 -1.589082 -0.000000
v 2.768306 -1.573366 0.441232
v 3.207227 -1.533997 0.529338
v 3.511582 -1.427478 0.443260
v 3.511582 -1.427477 -0.443261
v 3.473211 -1.749534 -0.309080
v 3.315883 -1.899652 -0.216693
v 3.250792 -1.960784 -0.000000
v 3.315883 -1.899652 0.216692
v 3.473210 -1.749534 0.309079
v 3.634990 -1.587784 0.219141
v 3.634990 -1.587784 -0.219142
v 3.687217 -1.629453 -0.000000
v 3.552427 -1.809302 -0.160940
v 3.503955 -1.884920 -0.076644
v 3.501654 -1.900890 -0.000001
v 3.503955 -1.884920 0.076643
v 3.552427 -1.809302 0.160939
v 3.643209 -1.693228 0.135267
v 3.643209 -1.693228 -0.135268
v -0.691747 4.562057 -3.508224
v -3.152855 4.874463 -2.480857
v -4.172377 5.003879 0.000001
v -3.152855 4.874463 2.480858
v -0.691747 4.562057 3.508224
v 1.769028 4.249692 2.480521
v 2.788216 4.120319 0.000000
v 1.769028 4.249692 -2.480520
v -0.839884 3.347866 -2.422778
v -2.545615 3.576713 -1.720284
v -3.255915 3.671460 0.000001
v -2.545615 3.576713 1.720284
v -0.839884 3.347866 2.422779
v 0.850450 3.118843 1.704898
v 1.545217 3.023920 0.000000
v 0.850450 3.118843 -1.704897
v -0.784856 -0.034396 -1.332378
v -1.738521 0.058179 -0.954587
v -2.140053 0.093655 -0.000000
v -1.738521 0.058179 0.954586
v -0.784856 -0.034396 1.332377
v 0.143450 -0.139780 0.928364
v 0.519973 -0.188147 -0.000000
v 0.143450 -0.139780 -0.928365
v 0.069470 -2.378855 -0.703783
v -0.381925 -2.639739 -0.516232
v -0.574304 -2.754301 -0.000000
v -0.381925 -2.639739 0.516231
v 0.069470 -2.378855 0.703781
v 0.653836 -1.984722 0.467909
v 0.818672 -1.918724 -0.000000
v 0.653836 -1.984722 -0.467910
v 1.177448 -3.083171 -0.549112
v 1.008095 -3.449231 -0.403033
v 0.938378 -3.609599 -0.000001
v 1.008094 -3.449231 0.403032
v 1.177448 -3.083171 0.549110
v 1.519689 -2.582411 0.372717
v 1.609103 -2.459583 -0.000001
v 1.519689 -2.582410 -0.372718
v 2.232002 -3.080639 -0.437424
v 2.243625 -3.397316 -0.319690
v 2.251921 -3.535005 -0.000000
v 2.243625 -3.397316 0.319688
v 2.232001 -3.080640 0.437423
v 2.239265 -2.782116 0.302269
v 2.249486 -2.659124 -0.000001
v 2.239265 -2.782116 -0.302270
v 3.346944 -2.666646 -0.204567
v 3.404590 -2.805441 -0.152587
v 3.431256 -2.867598 -0.000000
v 3.404590 -2.805441 0.152586
v 3.346944 -2.666646 0.204566
v 3.297930 -2.539790 0.139088
v 3.279435 -2.488633 -0.000001
v 3.297930 -2.539790 -0.139089
v 3.810800 -2.280454 -0.038194
v 3.813325 -2.328391 -0.041039
v 3.823625 -2.352748 -0.000000
v 3.813325 -2.328391 0.041038
v 3.810800 -2.280454 0.038193
v 3.830914 -2.247325 0.020208
v 3.837164 -2.236659 -0.000001
v 3.830914 -2.247325 -0.020209
v 4.097291 -1.292723 0.029125
v 4.066971 -1.323273 0.006623
v 4.074912 -1.321600 0.000000
v 4.066972 -1.323273 -0.006624
v 4.097291 -1.292723 -0.029125
v 4.081334 -1.232587 -0.068929
v 3.368843 -1.046622 -0.000000
v 4.081335 -1.232587 0.068929
v 4.006769 -1.895887 0.021163
v 4.062287 -1.873385 0.018058
v 4.006768 -1.895886 -0.021164
v 4.002616 -1.910223 -0.000000
v 4.118289 -1.784516 -0.000000
v 4.102921 -1.812232 -0.016478
v 4.102921 -1.812232 0.016477
v 4.062287 -1.873385 -0.018059
v 3.658817 -0.879455 -0.032906
v 3.601211 -0.823933 -0.036020
v 3.595027 -0.804659 0.000000
v 3.601212 -0.823932 0.036020
v 3.658817 -0.879455 0.032905
v 3.759944 -0.943403 -0.027567
v 3.759945 -0.943403 0.027566
v 3.212596 -0.890258 -0.067176
v 3.192186 -0.781702 -0.112774
v 3.168457 -0.750669 0.000000
v 3.192186 -0.781701 0.112774
v 3.212596 -0.890258 0.067175
v 3.354083 -1.022052 0.050032
v 3.354083 -1.022051 -0.050033
v 3.110415 -1.130082 -0.117802
v 3.034590 -1.073083 -0.138666
v 2.996620 -1.056726 0.000000
v 3.034589 -1.073082 0.138665
v 3.110415 -1.130082 0.117801
v 3.207535 -1.221643 0.079865
v 3.207535 -1.221643 -0.079866
v 3.200294 -1.298275 -0.056340
v 3.058538 -1.296800 -0.095999
v 3.029031 -1.300556 0.000000
v 3.058537 -1.296800 0.095998
v 3.200294 -1.298275 0.056339
v 3.115209 -1.396878 0.130329
v 3.115209 -1.396879 -0.130331
v 3.344153 -1.533014 -0.010910
v 3.332631 -1.493142 0.062123
v 3.355549 -1.536598 0.000000
v 3.332630 -1.493141 -0.062124
v 3.344153 -1.533014 0.010909
v 3.320341 -1.561903 -0.021890
v 3.320341 -1.561903 0.021889
v 3.288549 -1.631107 0.000000
v 3.312563 -1.605347 0.071656
v 3.372818 -1.555177 0.089267
v 3.417474 -1.521681 -0.000000
v 3.372818 -1.555177 -0.089268
v 3.312562 -1.605348 -0.071657
v 3.304536 -1.629377 -0.038161
v 3.304536 -1.629377 0.038160
v -0.691528 4.564165 -3.767756
v -3.334682 4.899491 -2.664340
v -4.429590 5.038399 0.000001
v -3.334682 4.899491 2.664341
v -0.691528 4.564165 3.767757
v 1.951361 4.228872 2.664072
v 3.046003 4.089999 0.000000
v 1.951361 4.228872 -2.664071
vn 0.6271 -0.7208 -0.2953
vn 0.2127 -0.6687 0.7125
vn -0.7862 -0.5431 0.2948
vn -0.3728 -0.5951 -0.7120
vn 0.2127 -0.6687 -0.7125
vn 0.6271 -0.7208 0.2953
vn -0.3728 -0.5951 0.7120
vn -0.7862 -0.5431 -0.2948
vn -0.3924 -0.2825 -0.8754
vn 0.3451 -0.2820 -0.8952
vn 0.8843 -0.2775 0.3755
vn -0.3924 -0.2825 0.8754
vn -0.8917 -0.2794 -0.3560
vn 0.8843 -0.2775 -0.3755
vn 0.3451 -0.2820 0.8952
vn -0.8917 -0.2794 0.3560
vn 0.9159 0.1587 -0.3687
vn 0.3966 -0.1082 0.9116
vn -0.8150 -0.4613 0.3506
vn -0.3289 -0.3317 -0.8842
vn 0.3966 -0.1082 -0.9116
vn 0.9159 0.1587 0.3687
vn -0.3289 -0.3317 0.8842
vn -0.8150 -0.4613 -0.3506
vn -0.4520 -0.8169 -0.3583
vn 0.5156 0.7761 -0.3631
vn 0.2444 0.1930 0.9503
vn -0.4520 -0.8169 0.3583
vn -0.1444 -0.4004 -0.9049
vn 0.2444 0.1930 -0.9503
vn 0.5156 0.7761 0.3631
vn -0.1444 -0.4004 0.9049
vn 0.1311 0.3188 -0.9387
vn 0.3026 0.8787 0.3693
vn 0.0876 -0.4084 0.9086
vn 0.0565 -0.9294 -0.3647
vn 0.3026 0.8787 -0.3693
vn 0.1311 0.3188 0.9387
vn 0.0565 -0.9294 0.3647
vn 0.0876 -0.4084 -0.9086
vn 0.4580 -0.8108 0.3643
vn 0.2977 -0.3200 -0.8994
vn 0.0436 0.4034 -0.9140
vn -0.1526 0.9133 0.3776
vn 0.2977 -0.3200 0.8994
vn 0.4580 -0.8108 -0.3643
vn -0.1526 0.9133 -0.3776
vn 0.0436 0.4034 0.9140
vn -0.6059 0.7009 -0.3762
vn -0.2286 0.3093 0.9231
vn 0.6057 -0.7025 0.3737
vn 0.2764 -0.2854 -0.9177
vn -0.2286 0.3093 -0.9231
vn -0.6059 0.7009 0.3762
vn 0.2764 -0.2854 0.9177
vn 0.6057 -0.7025 -0.3737
vn 0.4392 0.0882 0.8940
vn 0.9395 -0.0172 -0.3420
vn -0.8921 0.3329 -0.3054
vn -0.3811 0.2249 0.8968
vn 0.9395 -0.0172 0.3420
vn 0.4392 0.0882 -0.8940
vn -0.3811 0.2249 -0.8968
vn -0.8921 0.3329 0.3054
vn -0.8553 0.3760 0.3564
vn -0.3886 0.1383 -0.9110
vn 0.3579 -0.2046 -0.9111
vn 0.8366 -0.4175 0.3548
vn -0.3886 0.1383 0.9110
vn -0.8553 0.3760 -0.3564
vn 0.8366 -0.4175 -0.3548
vn 0.3579 -0.2046 0.9111
vn -0.2040 -0.3737 -0.9048
vn -0.6098 -0.6380 0.4703
vn 0.3987 0.2674 0.8772
vn 0.7054 0.6351 -0.3148
vn -0.6098 -0.6380 -0.4703
vn -0.2040 -0.3737 0.9048
vn 0.7054 0.6351 0.3148
vn 0.3987 0.2674 -0.8772
vn 0.1938 -0.8440 -0.5002
vn 0.1869 -0.2413 0.9523
vn 0.0898 0.9386 0.3330
vn 0.1338 0.3373 -0.9319
vn 0.1869 -0.2413 -0.9523
vn 0.1938 -0.8440 0.5002
vn 0.1338 0.3373 0.9319
vn 0.0898 0.9386 -0.3330
vn 0.7111 -0.5462 -0.4428
vn 0.3006 0.0121 0.9537
vn -0.7443 0.5536 -0.3734
vn -0.1364 0.1958 -0.9711
vn 0.7111 -0.5462 0.4428
vn 0.3006 0.0121 -0.9537
vn -0.1364 0.1958 0.9711
vn -0.7443 0.5536 0.3734
vn -0.2684 -0.2531 -0.9295
vn 0.7209 0.6820 0.1235
vn 0.2258 -0.3502 -0.9091
vn -0.9244 -0.1310 -0.3582
vn -0.2684 -0.2531 0.9295
vn 0.7209 0.6820 -0.1235
vn 0.2258 -0.3502 0.9091
vn -0.9244 -0.1310 0.3582
vn 0.8985 0.3769 0.2251
vn 0.5106 -0.3818 -0.7704
vn -0.4429 -0.8558 -0.2672
vn -0.0214 -0.6534 0.7567
vn 0.8985 0.3769 -0.2251
vn 0.5106 -0.3818 0.7704
vn -0.0214 -0.6534 -0.7567
vn -0.4429 -0.8558 0.2672
vn 0.7141 -0.4144 -0.5642
vn 0.2256 -0.9537 -0.1989
vn 0.4094 -0.7638 0.4990
vn 0.9716 0.1072 0.2112
vn 0.7141 -0.4144 0.5642
vn 0.4094 -0.7638 -0.4990
vn 0.9716 0.1072 -0.2112
vn 0.2256 -0.9537 0.1989
vn -0.6315 0.7163 0.2970
vn -0.2141 0.6651 -0.7154
vn 0.7872 0.5414 -0.2952
vn 0.3733 0.5927 0.7137
vn -0.2141 0.6651 0.7154
vn -0.6315 0.7163 -0.2970
vn 0.3733 0.5927 -0.7137
vn 0.7872 0.5414 0.2952
vn 0.3901 0.2843 0.8758
vn -0.3464 0.2852 0.8937
vn -0.8834 0.2815 -0.3747
vn 0.3901 0.2843 -0.8758
vn 0.8912 0.2800 0.3568
vn -0.8834 0.2815 0.3747
vn -0.3464 0.2852 -0.8937
vn 0.8912 0.2800 -0.3568
vn -0.9194 -0.1619 0.3585
vn -0.4043 0.1045 -0.9086
vn 0.8156 0.4577 -0.3539
vn 0.3186 0.3279 0.8894
vn -0.4043 0.1045 0.9086
vn -0.9194 -0.1619 -0.3585
vn 0.3186 0.3279 -0.8894
vn 0.8156 0.4577 0.3539
vn 0.4510 0.8116 0.3713
vn -0.5463 -0.7666 0.3374
vn -0.2435 -0.1864 -0.9518
vn 0.4510 0.8116 -0.3713
vn 0.1240 0.3677 0.9216
vn -0.2435 -0.1864 0.9518
vn -0.5463 -0.7666 -0.3374
vn 0.1240 0.3677 -0.9216
vn -0.1311 -0.3097 0.9417
vn -0.2796 -0.8881 -0.3647
vn -0.0875 0.3766 -0.9222
vn -0.0582 0.9246 0.3764
vn -0.2796 -0.8881 0.3647
vn -0.1311 -0.3097 -0.9417
vn -0.0582 0.9246 -0.3764
vn -0.0875 0.3766 0.9222
vn -0.4599 0.8050 -0.3747
vn -0.2904 0.2950 0.9103
vn -0.0349 -0.4291 0.9026
vn 0.1530 -0.9183 -0.3652
vn -0.2904 0.2950 -0.9103
vn -0.4599 0.8050 0.3747
vn 0.1530 -0.9183 0.3652
vn -0.0349 -0.4291 -0.9026
vn 0.3851 -0.8500 0.3595
vn 0.0547 -0.4541 -0.8893
vn -0.7379 0.5524 -0.3877
vn -0.3994 0.1108 0.9101
vn 0.0547 -0.4541 0.8893
vn 0.3851 -0.8500 -0.3595
vn -0.3994 0.1108 -0.9101
vn -0.7379 0.5524 0.3877
vn 0.2623 0.0410 0.9641
vn -0.9385 0.0992 0.3309
vn -0.1141 -0.1306 0.9848
vn 0.7620 0.0648 0.6443
vn -0.9385 0.0992 -0.3308
vn 0.2623 0.0410 -0.9641
vn 0.7620 0.0648 -0.6443
vn -0.1141 -0.1306 -0.9848
vn 0.8473 -0.5284 -0.0536
vn 0.8458 -0.5227 -0.1073
vn 0.1632 -0.0395 -0.9858
vn -0.8761 0.3658 -0.3141
vn 0.8458 -0.5227 0.1072
vn 0.8473 -0.5284 0.0536
vn -0.8761 0.3658 0.3141
vn 0.1632 -0.0395 0.9858
vn 0.6218 0.5982 -0.5054
vn -0.0833 0.0498 -0.9953
vn 0.3303 0.2221 0.9174
vn -0.6588 -0.5936 0.4623
vn -0.0833 0.0498 0.9953
vn 0.6218 0.5983 0.5054
vn -0.6588 -0.5936 -0.4623
vn 0.3303 0.2221 -0.9174
vn -0.2549 0.8361 0.4858
vn -0.1482 0.2003 -0.9685
vn -0.1359 -0.9465 -0.2927
vn -0.1169 0.2312 0.9659
vn -0.1482 0.2003 0.9685
vn -0.2549 0.8361 -0.4858
vn -0.1169 0.2312 -0.9659
vn -0.1359 -0.9465 0.2927
vn -0.7482 0.4810 0.4570
vn -0.2541 -0.0331 -0.9666
vn 0.8318 -0.4714 0.2930
vn -0.4521 0.0933 0.8871
vn -0.7482 0.4810 -0.4570
vn -0.2541 -0.0331 0.9666
vn -0.4521 0.0933 -0.8871
vn 0.8318 -0.4714 -0.2930
vn -0.2148 0.1921 0.9576
vn -0.3916 -0.0582 -0.9183
vn 0.9531 0.0029 0.3028
vn 0.9536 0.1393 0.2667
vn -0.2148 0.1921 -0.9576
vn -0.3916 -0.0582 0.9183
vn 0.9530 0.0029 -0.3028
vn 0.9536 0.1393 -0.2667
vn -0.5476 0.0869 -0.8322
vn 0.4267 -0.0732 -0.9014
vn 0.1865 0.5554 0.8104
vn 0.3245 0.6424 -0.6943
vn -0.5476 0.0869 0.8322
vn 0.4267 -0.0732 0.9014
vn 0.3245 0.6424 0.6943
vn 0.1865 0.5554 -0.8104
vn 0.8194 -0.4891 -0.2989
vn -0.3910 -0.9133 -0.1144
vn 0.9313 -0.1928 0.3091
vn 0.7323 -0.1246 0.6695
vn 0.8194 -0.4891 0.2989
vn 0.9313 -0.1928 -0.3091
vn 0.7323 -0.1246 -0.6695
vn -0.3910 -0.9133 0.1144
vn 0.1291 0.9916 0.0078
vn 0.4388 -0.3232 0.8384
vn 0.1332 0.9911 0.0030
vn 0.0524 -0.8483 -0.5269
vn 0.1332 0.9911 -0.0030
vn 0.0524 -0.8483 0.5269
vn 0.8344 0.5496 0.0408
vn 0.1291 0.9916 -0.0078
vn -0.3287 0.1194 -0.9369
vn 0.1224 0.9924 -0.0085
vn 0.1170 0.9931 -0.0037
vn -0.3287 0.1194 0.9369
vn 0.8344 0.5496 -0.0408
vn 0.1170 0.9931 0.0037
vn 0.4388 -0.3232 -0.8384
vn 0.1224 0.9924 0.0085
vn 0.3900 0.0470 -0.9196
vn 0.9244 -0.0204 -0.3809
vn 0.9244 -0.0204 0.3809
vn 0.3900 0.0470 0.9196
vn -0.3659 0.1423 0.9197
vn -0.9005 0.2096 0.3810
vn -0.9005 0.2096 -0.3810
vn -0.3659 0.1423 -0.9197
usemtl Material.001
s off
f 8//1 7//1 15//1 16//1
f 6//2 5//2 13//2 14//2
f 4//3 3//3 11//3 12//3
f 2//4 1//4 9//4 10//4
f 1//5 8//5 16//5 9//5
f 7//6 6//6 14//6 15//6
f 5//7 4//7 12//7 13//7
f 3//8 2//8 10//8 11//8
f 10//9 9//9 17//9 18//9
f 9//10 16//10 24//10 17//10
f 15//11 14//11 22//11 23//11
f 13//12 12//12 20//12 21//12
f 11//13 10//13 18//13 19//13
f 16//14 15//14 23//14 24//14
f 14//15 13//15 21//15 22//15
f 12//16 11//16 19//16 20//16
f 24//17 23//17 31//17 32//17
f 22//18 21//18 29//18 30//18
f 20//19 19//19 27//19 28//19
f 18//20 17//20 25//20 26//20
f 17//21 24//21 32//21 25//21
f 23//22 22//22 30//22 31//22
f 21//23 20//23 28//23 29//23
f 19//24 18//24 26//24 27//24
f 27//25 26//25 34//25 35//25
f 32//26 31//26 39//26 40//26
f 30//27 29//27 37//27 38//27
f 28//28 27//28 35//28 36//28
f 26//29 25//29 33//29 34//29
f 25//30 32//30 40//30 33//30
f 31//31 30//31 38//31 39//31
f 29//32 28//32 36//32 37//32
f 33//33 40//33 48//33 41//33
f 39//34 38//34 46//34 47//34
f 37//35 36//35 44//35 45//35
f 35//36 34//36 42//36 43//36
f 40//37 39//37 47//37 48//37
f 38//38 37//38 45//38 46//38
f 36//39 35//39 43//39 44//39
f 34//40 33//40 41//40 42//40
f 44//41 43//41 51//41 52//41
f 42//42 41//42 49//42 50//42
f 41//43 48//43 56//43 49//43
f 47//44 46//44 54//44 55//44
f 45//45 44//45 52//45 53//45
f 43//46 42//46 50//46 51//46
f 48//47 47//47 55//47 56//47
f 46//48 45//48 53//48 54//48
f 56//49 55//49 63//49 64//49
f 54//50 53//50 61//50 62//50
f 52//51 51//51 59//51 60//51
f 50//52 49//52 57//52 58//52
f 49//53 56//53 64//53 57//53
f 55//54 54//54 62//54 63//54
f 53//55 52//55 60//55 61//55
f 51//56 50//56 58//56 59//56
f 74//57 73//57 68//57 69//57
f 76//58 75//58 66//58 67//58
f 78//59 77//59 71//59 72//59
f 79//60 74//60 69//60 70//60
f 73//61 76//61 67//61 68//61
f 75//62 80//62 65//62 66//62
f 80//63 78//63 72//63 65//63
f 77//64 79//64 70//64 71//64
f 63//65 62//65 79//65 77//65
f 57//66 64//66 78//66 80//66
f 58//67 57//67 80//67 75//67
f 60//68 59//68 76//68 73//68
f 62//69 61//69 74//69 79//69
f 64//70 63//70 77//70 78//70
f 59//71 58//71 75//71 76//71
f 61//72 60//72 73//72 74//72
f 65//73 72//73 87//73 81//73
f 71//74 70//74 86//74
f 69//75 68//75 84//75 85//75
f 67//76 66//76 82//76 83//76
f 72//77 71//77 87//77
f 70//78 69//78 85//78 86//78
f 68//79 67//79 83//79 84//79
f 66//80 65//80 81//80 82//80
f 87//81 71//81 94//81
f 86//82 85//82 92//82 93//82
f 84//83 83//83 90//83 91//83
f 82//84 81//84 88//84 89//84
f 81//85 87//85 94//85 88//85
f 71//86 86//86 93//86
f 85//87 84//87 91//87 92//87
f 83//88 82//88 89//88 90//88
f 94//89 71//89 101//89
f 93//90 92//90 99//90 100//90
f 90//91 89//91 96//91 97//91
f 89//92 88//92 95//92 96//92
f 71//93 93//93 100//93
f 88//94 94//94 101//94 95//94
f 92//95 91//95 98//95 99//95
f 91//96 90//96 97//96 98//96
f 96//97 95//97 102//97 103//97
f 71//98 100//98 107//98
f 95//99 101//99 108//99 102//99
f 97//100 96//100 103//100 104//100
f 99//101 98//101 105//101 106//101
f 101//102 71//102 108//102
f 100//103 99//103 106//103 107//103
f 98//104 97//104 104//104 105//104
f 71//105 107//105 114//105
f 102//106 108//106 115//106 109//106
f 104//107 103//107 110//107 111//107
f 106//108 105//108 112//108 113//108
f 108//109 71//109 115//109
f 107//110 106//110 113//110 114//110
f 103//111 102//111 109//111 110//111
f 105//112 104//112 111//112 112//112
f 109//113 115//113 123//113 117//113
f 111//114 110//114 118//114 119//114
f 113//115 112//115 120//115 121//115
f 71//116 114//116 122//116 116//116
f 114//117 113//117 121//117 122//117
f 110//118 109//118 117//118 118//118
f 115//119 71//119 116//119 123//119
f 112//120 111//120 119//120 120//120
f 131//121 139//121 138//121 130//121
f 129//122 137//122 136//122 128//122
f 127//123 135//123 134//123 126//123
f 125//124 133//124 132//124 124//124
f 124//125 132//125 139//125 131//125
f 130//126 138//126 137//126 129//126
f 128//127 136//127 135//127 127//127
f 126//128 134//128 133//128 125//128
f 133//129 141//129 140//129 132//129
f 132//130 140//130 147//130 139//130
f 138//131 146//131 145//131 137//131
f 136//132 144//132 143//132 135//132
f 134//133 142//133 141//133 133//133
f 139//134 147//134 146//134 138//134
f 137//135 145//135 144//135 136//135
f 135//136 143//136 142//136 134//136
f 147//137 155//137 154//137 146//137
f 145//138 153//138 152//138 144//138
f 143//139 151//139 150//139 142//139
f 141//140 149//140 148//140 140//140
f 140//141 148//141 155//141 147//141
f 146//142 154//142 153//142 145//142
f 144//143 152//143 151//143 143//143
f 142//144 150//144 149//144 141//144
f 150//145 158//145 157//145 149//145
f 155//146 163//146 162//146 154//146
f 153//147 161//147 160//147 152//147
f 151//148 159//148 158//148 150//148
f 149//149 157//149 156//149 148//149
f 148//150 156//150 163//150 155//150
f 154//151 162//151 161//151 153//151
f 152//152 160//152 159//152 151//152
f 156//153 164//153 171//153 163//153
f 162//154 170//154 169//154 161//154
f 160//155 168//155 167//155 159//155
f 158//156 166//156 165//156 157//156
f 163//157 171//157 170//157 162//157
f 161//158 169//158 168//158 160//158
f 159//159 167//159 166//159 158//159
f 157//160 165//160 164//160 156//160
f 167//161 175//161 174//161 166//161
f 165//162 173//162 172//162 164//162
f 164//163 172//163 179//163 171//163
f 170//164 178//164 177//164 169//164
f 168//165 176//165 175//165 167//165
f 166//166 174//166 173//166 165//166
f 171//167 179//167 178//167 170//167
f 169//168 177//168 176//168 168//168
f 179//169 187//169 186//169 178//169
f 177//170 185//170 184//170 176//170
f 175//171 183//171 182//171 174//171
f 173//172 181//172 180//172 172//172
f 172//173 180//173 187//173 179//173
f 178//174 186//174 185//174 177//174
f 176//175 184//175 183//175 175//175
f 174//176 182//176 181//176 173//176
f 197//177 192//177 191//177 196//177
f 199//178 190//178 189//178 198//178
f 201//179 195//179 194//179 200//179
f 202//180 193//180 192//180 197//180
f 196//181 191//181 190//181 199//181
f 198//182 189//182 188//182 203//182
f 203//183 188//183 195//183 201//183
f 200//184 194//184 193//184 202//184
f 186//185 200//185 202//185 185//185
f 180//186 203//186 201//186 187//186
f 181//187 198//187 203//187 180//187
f 183//188 196//188 199//188 182//188
f 185//189 202//189 197//189 184//189
f 187//190 201//190 200//190 186//190
f 182//191 199//191 198//191 181//191
f 184//192 197//192 196//192 183//192
f 188//193 204//193 210//193 195//193
f 194//194 209//194 193//194
f 192//195 208//195 207//195 191//195
f 190//196 206//196 205//196 189//196
f 195//197 210//197 194//197
f 193//198 209//198 208//198 192//198
f 191//199 207//199 206//199 190//199
f 189//200 205//200 204//200 188//200
f 210//201 217//201 194//201
f 209//202 216//202 215//202 208//202
f 207//203 214//203 213//203 206//203
f 205//204 212//204 211//204 204//204
f 204//205 211//205 217//205 210//205
f 194//206 216//206 209//206
f 208//207 215//207 214//207 207//207
f 206//208 213//208 212//208 205//208
f 217//209 224//209 194//209
f 216//210 223//210 222//210 215//210
f 213//211 220//211 219//211 212//211
f 212//212 219//212 218//212 211//212
f 194//213 223//213 216//213
f 211//214 218//214 224//214 217//214
f 215//215 222//215 221//215 214//215
f 214//216 221//216 220//216 213//216
f 219//217 226//217 225//217 218//217
f 194//218 230//218 223//218
f 218//219 225//219 231//219 224//219
f 220//220 227//220 226//220 219//220
f 222//221 229//221 228//221 221//221
f 224//222 231//222 194//222
f 223//223 230//223 229//223 222//223
f 221//224 228//224 227//224 220//224
f 194//225 237//225 230//225
f 225//226 232//226 238//226 231//226
f 227//227 234//227 233//227 226//227
f 229//228 236//228 235//228 228//228
f 231//229 238//229 194//229
f 230//230 237//230 236//230 229//230
f 226//231 233//231 232//231 225//231
f 228//232 235//232 234//232 227//232
f 232//233 240//233 246//233 238//233
f 234//234 242//234 241//234 233//234
f 236//235 244//235 243//235 235//235
f 194//236 239//236 245//236 237//236
f 237//237 245//237 244//237 236//237
f 233//238 241//238 240//238 232//238
f 238//239 246//239 239//239 194//239
f 235//240 243//240 242//240 234//240
f 248//241 125//241 124//241 247//241
f 123//242 246//242 240//242 117//242
f 249//243 126//243 125//243 248//243
f 122//244 245//244 239//244 116//244
f 250//245 127//245 126//245 249//245
f 116//246 239//246 246//246 123//246
f 117//247 240//247 241//247 118//247
f 251//248 128//248 127//248 250//248
f 118//249 241//249 242//249 119//249
f 252//250 129//250 128//250 251//250
f 253//251 130//251 129//251 252//251
f 119//252 242//252 243//252 120//252
f 120//253 243//253 244//253 121//253
f 254//254 131//254 130//254 253//254
f 121//255 244//255 245//255 122//255
f 247//256 124//256 131//256 254//256
f 1//257 247//257 254//257 8//257
f 8//258 254//258 253//258 7//258
f 7//259 253//259 252//259 6//259
f 6//260 252//260 251//260 5//260
f 5//261 251//261 250//261 4//261
f 4//262 250//262 249//262 3//262
f 3//263 249//263 248//263 2//263
f 2//264 248//264 247//264 1//264
