# Blender v2.79 (sub 0) OBJ File: 'Crown.blend'
# www.blender.org
mtllib Crown.mtl
o Circle_Circle.001
v 2.973059 0.000000 2.973058
v 4.204539 0.000000 -0.000000
v 2.973059 0.000000 -2.973058
v 2.973059 0.210446 2.973058
v 4.204539 0.210446 -0.000000
v 2.973059 0.210446 -2.973058
v 3.096992 0.392271 3.096991
v 4.379808 0.392271 -0.000000
v 3.096992 0.392271 -3.096991
v 2.968480 0.622583 2.968479
v 4.198063 0.622583 -0.000000
v 2.968480 0.622583 -2.968479
v 2.933250 1.386249 2.933249
v 4.148241 1.386249 -0.000000
v 2.933250 1.386249 -2.933249
v 3.067312 1.592317 3.067311
v 4.337833 1.592317 -0.000000
v 3.067312 1.592317 -3.067311
v 2.894448 1.871116 2.894446
v 4.093366 1.871116 -0.000000
v 2.894448 1.871116 -2.894446
v 1.195479 3.337355 4.693999
v 2.473829 3.337355 4.164489
v 4.694000 3.337355 -1.195477
v 4.164490 3.337355 -2.473828
v 1.195478 3.337355 -4.693999
v 4.164490 3.337355 2.473828
v 4.694000 3.337355 1.195477
v 2.473829 3.337355 -4.164489
v 1.940836 4.268792 5.365181
v 2.421380 4.268792 5.166133
v 5.365183 4.268792 -1.940834
v 5.166135 4.268792 -2.421379
v 1.940835 4.268792 -5.365181
v 5.166135 4.268792 2.421379
v 5.365183 4.268792 1.940834
v 2.421380 4.268792 -5.166133
v 2.652149 0.000000 2.652148
v 3.750704 0.000000 -0.000000
v 2.652149 0.000000 -2.652148
v 2.746419 1.597026 2.746418
v 3.884022 1.597026 -0.000000
v 2.746419 1.597026 -2.746418
v 2.653161 1.571904 2.653160
v 3.752135 1.571904 -0.000000
v 2.653161 1.571904 -2.653159
v 2.650473 2.128981 2.650472
v 2.650473 2.128981 -2.650472
v 3.748334 2.128981 -0.000000
v 2.337474 3.618436 3.835298
v 1.059123 3.618436 4.364808
v 3.835299 3.618436 -2.337472
v 4.364809 3.618436 -1.059122
v 4.364809 3.618436 1.059122
v 3.835299 3.618436 2.337472
v 1.059123 3.618436 -4.364808
v 2.337474 3.618436 -3.835298
v 2.296840 4.585108 4.865467
v 1.816296 4.585108 5.064515
v 4.865469 4.585108 -2.296839
v 5.064517 4.585108 -1.816294
v 5.064517 4.585108 1.816294
v 4.865469 4.585108 2.296839
v 1.816295 4.585108 -5.064515
v 2.296840 4.585108 -4.865467
v 2.570394 4.355213 5.306100
v 1.934439 4.355213 5.569521
v 5.306102 4.355213 -2.570392
v 5.569523 4.355213 -1.934438
v 5.569523 4.355213 1.934438
v 5.306102 4.355213 2.570392
v 1.934439 4.355213 -5.569521
v 2.570394 4.355213 -5.306100
v 2.405577 4.773827 4.908197
v 1.769622 4.773827 5.171618
v 4.908199 4.773827 -2.405576
v 5.171620 4.773827 -1.769621
v 5.171620 4.773827 1.769621
v 4.908199 4.773827 2.405576
v 1.769622 4.773827 -5.171618
v 2.405577 4.773827 -4.908197
v 2.680281 4.650643 5.571391
v 2.044326 4.650643 5.834812
v 5.571393 4.650643 -2.680279
v 5.834814 4.650643 -2.044325
v 5.834814 4.650643 2.044325
v 5.571393 4.650643 2.680279
v 2.044326 4.650643 -5.834812
v 2.680281 4.650643 -5.571391
v 2.515464 5.069257 5.173488
v 1.879509 5.069257 5.436909
v 5.173490 5.069257 -2.515463
v 5.436911 5.069257 -1.879508
v 5.436911 5.069257 1.879508
v 5.173490 5.069257 2.515463
v 1.879509 5.069257 -5.436909
v 2.515464 5.069257 -5.173488
v 2.622738 4.882637 5.702965
v 2.178052 4.882637 5.887160
v 5.702967 4.882637 -2.622736
v 5.887161 4.882637 -2.178051
v 5.887162 4.882637 2.178051
v 5.702967 4.882637 2.622736
v 2.178052 4.882637 -5.887160
v 2.622738 4.882637 -5.702965
v 2.507491 5.175349 5.424735
v 2.062805 5.175349 5.608930
v 5.424736 5.175349 -2.507490
v 5.608931 5.175349 -2.062804
v 5.608931 5.175349 2.062804
v 5.424736 5.175349 2.507490
v 2.062805 5.175349 -5.608930
v 2.507491 5.175349 -5.424735
v 0.000000 0.000000 -4.204539
v 0.000000 0.000000 4.204539
v -2.973059 0.000000 2.973058
v -4.204539 0.000000 -0.000000
v -2.973059 0.000000 -2.973058
v 0.000000 0.210446 -4.204539
v 0.000000 0.210446 4.204539
v -2.973059 0.210446 2.973058
v -4.204539 0.210446 -0.000000
v -2.973059 0.210446 -2.973058
v 0.000000 0.392271 -4.379808
v 0.000000 0.392271 4.379808
v -3.096992 0.392271 3.096991
v -4.379808 0.392271 -0.000000
v -3.096992 0.392271 -3.096991
v 0.000000 0.622583 -4.198063
v 0.000000 0.622583 4.198063
v -2.968480 0.622583 2.968479
v -4.198063 0.622583 -0.000000
v -2.968480 0.622583 -2.968479
v 0.000000 1.386249 -4.148241
v 0.000000 1.386249 4.148241
v -2.933250 1.386249 2.933249
v -4.148241 1.386249 -0.000000
v -2.933250 1.386249 -2.933249
v 0.000000 1.592317 -4.337833
v 0.000000 1.592317 4.337833
v -3.067312 1.592317 3.067311
v -4.337833 1.592317 -0.000000
v -3.067312 1.592317 -3.067311
v 0.000000 1.871116 -4.093366
v 0.000000 1.871116 4.093366
v -2.894448 1.871116 2.894446
v -4.093366 1.871116 -0.000000
v -2.894448 1.871116 -2.894446
v -1.195479 3.337355 4.693999
v -2.473829 3.337355 4.164489
v -4.694000 3.337355 -1.195477
v -4.164490 3.337355 -2.473828
v -1.195478 3.337355 -4.693999
v -4.164490 3.337355 2.473828
v -4.694000 3.337355 1.195477
v -2.473829 3.337355 -4.164489
v -1.940836 4.268792 5.365181
v -2.421380 4.268792 5.166133
v -5.365183 4.268792 -1.940834
v -5.166135 4.268792 -2.421379
v -1.940835 4.268792 -5.365181
v -5.166135 4.268792 2.421379
v -5.365183 4.268792 1.940834
v -2.421380 4.268792 -5.166133
v -2.652149 0.000000 2.652148
v 0.000000 0.000000 3.785250
v -3.750704 0.000000 -0.000000
v -2.652149 0.000000 -2.652148
v 0.000000 0.000000 -3.785250
v -2.746419 1.597026 2.746418
v 0.000000 1.596668 3.918563
v -3.884022 1.597026 -0.000000
v -2.746419 1.597026 -2.746418
v 0.000000 1.596668 -3.918563
v -2.653161 1.571904 2.653160
v 0.000000 1.585438 3.767570
v -3.752135 1.571904 -0.000000
v -2.653161 1.571904 -2.653159
v 0.000000 1.585438 -3.767570
v -2.650473 2.128981 2.650472
v 0.000000 2.128981 3.748334
v -2.650473 2.128981 -2.650472
v -3.748334 2.128981 -0.000000
v 0.000000 2.128981 -3.748334
v -2.337474 3.618436 3.835298
v -1.059123 3.618436 4.364808
v -3.835299 3.618436 -2.337472
v -4.364809 3.618436 -1.059122
v -4.364809 3.618436 1.059122
v -3.835299 3.618436 2.337472
v -1.059123 3.618436 -4.364808
v -2.337474 3.618436 -3.835298
v -2.296840 4.585108 4.865467
v -1.816296 4.585108 5.064515
v -4.865469 4.585108 -2.296839
v -5.064517 4.585108 -1.816294
v -5.064517 4.585108 1.816294
v -4.865469 4.585108 2.296839
v -1.816295 4.585108 -5.064515
v -2.296840 4.585108 -4.865467
v -2.570394 4.355213 5.306100
v -1.934439 4.355213 5.569521
v -5.306102 4.355213 -2.570392
v -5.569523 4.355213 -1.934438
v -5.569523 4.355213 1.934438
v -5.306102 4.355213 2.570392
v -1.934439 4.355213 -5.569521
v -2.570394 4.355213 -5.306100
v -2.405577 4.773827 4.908197
v -1.769622 4.773827 5.171618
v -4.908199 4.773827 -2.405576
v -5.171620 4.773827 -1.769621
v -5.171620 4.773827 1.769621
v -4.908199 4.773827 2.405576
v -1.769622 4.773827 -5.171618
v -2.405577 4.773827 -4.908197
v -2.680281 4.650643 5.571391
v -2.044326 4.650643 5.834812
v -5.571393 4.650643 -2.680279
v -5.834814 4.650643 -2.044325
v -5.834814 4.650643 2.044325
v -5.571393 4.650643 2.680279
v -2.044326 4.650643 -5.834812
v -2.680281 4.650643 -5.571391
v -2.515464 5.069257 5.173488
v -1.879509 5.069257 5.436909
v -5.173490 5.069257 -2.515463
v -5.436911 5.069257 -1.879508
v -5.436911 5.069257 1.879508
v -5.173490 5.069257 2.515463
v -1.879509 5.069257 -5.436909
v -2.515464 5.069257 -5.173488
v -2.622738 4.882637 5.702965
v -2.178052 4.882637 5.887160
v -5.702967 4.882637 -2.622736
v -5.887161 4.882637 -2.178051
v -5.887162 4.882637 2.178051
v -5.702967 4.882637 2.622736
v -2.178052 4.882637 -5.887160
v -2.622738 4.882637 -5.702965
v -2.507491 5.175349 5.424735
v -2.062805 5.175349 5.608930
v -5.424736 5.175349 -2.507490
v -5.608931 5.175349 -2.062804
v -5.608931 5.175349 2.062804
v -5.424736 5.175349 2.507490
v -2.062805 5.175349 -5.608930
v -2.507491 5.175349 -5.424735
vn 0.9239 0.0000 -0.3827
vn 0.3827 0.0000 0.9239
vn 0.3827 0.0000 -0.9239
vn 0.9239 0.0000 0.3827
vn 0.6899 -0.6651 -0.2858
vn 0.2858 -0.6651 0.6899
vn 0.2858 -0.6651 -0.6899
vn 0.6899 -0.6651 0.2858
vn 0.7465 0.5891 -0.3092
vn 0.3092 0.5891 0.7465
vn 0.3092 0.5891 -0.7465
vn 0.7465 0.5891 0.3092
vn 0.3820 0.0602 -0.9222
vn 0.9222 0.0602 0.3820
vn 0.9222 0.0602 -0.3820
vn 0.3820 0.0602 0.9222
vn 0.2916 -0.6477 -0.7039
vn 0.7039 -0.6477 0.2916
vn 0.7039 -0.6477 -0.2916
vn 0.2916 -0.6477 0.7039
vn 0.7179 0.6295 -0.2974
vn 0.2974 0.6295 0.7179
vn 0.2974 0.6295 -0.7179
vn 0.7179 0.6295 0.2974
vn 0.3149 -0.5682 0.7603
vn 0.3149 -0.5682 -0.7603
vn 0.7603 -0.5682 -0.3149
vn 0.7603 -0.5682 0.3149
vn 0.6625 -0.6970 0.2744
vn 0.2744 -0.6970 0.6625
vn 0.2744 -0.6970 -0.6625
vn 0.6625 -0.6970 -0.2744
vn -0.3901 -0.0047 0.9208
vn 0.1866 -0.9794 -0.0773
vn 0.0517 -0.9905 0.1277
vn 0.0517 -0.9905 -0.1277
vn 0.1866 -0.9794 0.0773
vn -0.9239 -0.0063 0.3827
vn -0.3849 -0.0193 -0.9227
vn -0.3849 -0.0193 0.9227
vn -0.9239 -0.0063 -0.3827
vn -0.3202 0.5476 -0.7730
vn -0.3202 0.5476 0.7730
vn -0.7730 0.5476 0.3202
vn -0.7730 0.5476 -0.3202
vn -0.6637 0.6957 -0.2749
vn -0.2749 0.6957 -0.6637
vn -0.2749 0.6957 0.6637
vn -0.6637 0.6957 0.2749
vn 0.0000 -0.0000 1.0000
vn 0.5530 0.2337 -0.7998
vn -0.7822 0.3999 0.4778
vn -0.7071 -0.0000 -0.7071
vn -0.7998 0.2337 0.5530
vn 0.8909 0.3999 -0.2152
vn 0.9565 0.2337 -0.1745
vn 0.8909 0.3999 0.2152
vn 0.7071 0.0000 -0.7071
vn 0.9565 0.2337 0.1745
vn -0.7822 0.3999 -0.4778
vn -0.7998 0.2337 -0.5530
vn 0.4778 0.3999 0.7822
vn 0.5530 0.2337 0.7998
vn -0.2152 0.3999 -0.8909
vn -0.1745 0.2337 -0.9565
vn -0.2152 0.3999 0.8909
vn 0.0000 -1.0000 0.0000
vn 0.4778 0.3999 -0.7822
vn 0.0919 -0.2879 -0.9532
vn 0.1610 -0.9072 -0.3887
vn 0.0919 -0.2879 0.9532
vn 0.3887 -0.9072 0.1610
vn -0.1745 0.2337 0.9565
vn -0.3827 0.0000 0.9239
vn -0.2744 0.6970 0.6625
vn -0.9532 -0.2879 0.0919
vn -0.3516 0.3948 -0.8488
vn 0.7390 -0.2879 0.6090
vn -0.8488 0.3948 0.3516
vn -0.6090 -0.2879 -0.7390
vn -0.8488 0.3948 -0.3516
vn 0.1610 -0.9072 0.3887
vn -0.3516 0.3948 0.8488
vn -0.9532 -0.2879 -0.0919
vn -0.6090 -0.2879 0.7390
vn 0.3887 -0.9072 -0.1610
vn 0.7390 -0.2879 -0.6090
vn -0.3883 0.9074 -0.1608
vn 0.6093 0.2883 0.7387
vn -0.3883 0.9074 0.1608
vn -0.7387 0.2883 -0.6093
vn -0.9239 0.0000 0.3827
vn -0.2744 0.6970 -0.6625
vn -0.9239 0.0000 -0.3827
vn -0.6625 0.6970 0.2744
vn -0.6625 0.6970 -0.2744
vn -0.3827 -0.0000 -0.9239
vn 0.2667 0.7171 0.6439
vn 0.6439 0.7171 -0.2667
vn 0.6439 0.7171 0.2667
vn 0.2667 0.7171 -0.6439
vn -0.0915 0.2883 -0.9532
vn -0.1608 0.9074 0.3883
vn 0.3517 -0.3943 0.8490
vn -0.0915 0.2883 0.9532
vn 0.6093 0.2883 -0.7387
vn 0.8490 -0.3943 -0.3517
vn -0.7387 0.2883 0.6093
vn 0.8490 -0.3943 0.3517
vn 0.9532 0.2883 -0.0915
vn 0.3517 -0.3943 -0.8490
vn 0.9532 0.2883 0.0915
vn -0.1608 0.9074 -0.3883
vn -0.9239 0.0008 0.3827
vn -0.9239 0.0008 -0.3827
vn -0.3901 -0.0047 -0.9208
vn -0.6899 -0.6651 -0.2858
vn -0.2858 -0.6651 0.6899
vn -0.2858 -0.6651 -0.6899
vn -0.6899 -0.6651 0.2858
vn -0.7465 0.5891 -0.3092
vn -0.3092 0.5891 0.7465
vn -0.3092 0.5891 -0.7465
vn -0.7465 0.5891 0.3092
vn -0.3820 0.0602 -0.9222
vn -0.9222 0.0602 0.3820
vn -0.9222 0.0602 -0.3820
vn -0.3820 0.0602 0.9222
vn -0.2916 -0.6477 -0.7039
vn -0.7039 -0.6477 0.2916
vn -0.7039 -0.6477 -0.2916
vn -0.2916 -0.6477 0.7039
vn -0.7179 0.6295 -0.2974
vn -0.2974 0.6295 0.7179
vn -0.2974 0.6295 -0.7179
vn -0.7179 0.6295 0.2974
vn -0.3149 -0.5682 0.7603
vn -0.3149 -0.5682 -0.7603
vn -0.7603 -0.5682 -0.3149
vn -0.7603 -0.5682 0.3149
vn -0.6625 -0.6970 0.2744
vn -0.2744 -0.6970 0.6625
vn -0.2744 -0.6970 -0.6625
vn -0.6625 -0.6970 -0.2744
vn 0.3901 -0.0047 0.9208
vn -0.1866 -0.9794 -0.0773
vn -0.0517 -0.9905 0.1277
vn -0.0517 -0.9905 -0.1277
vn -0.1866 -0.9794 0.0773
vn 0.9239 -0.0063 0.3827
vn 0.3849 -0.0193 -0.9227
vn 0.3849 -0.0193 0.9227
vn 0.9239 -0.0063 -0.3827
vn 0.3202 0.5476 -0.7730
vn 0.3202 0.5476 0.7730
vn 0.7730 0.5476 0.3202
vn 0.7730 0.5476 -0.3202
vn 0.6637 0.6957 -0.2749
vn 0.2749 0.6957 -0.6637
vn 0.2749 0.6957 0.6637
vn 0.6637 0.6957 0.2749
vn -0.5530 0.2337 -0.7998
vn 0.7822 0.3999 0.4778
vn 0.7998 0.2337 0.5530
vn -0.8909 0.3999 -0.2152
vn -0.9565 0.2337 -0.1745
vn -0.8909 0.3999 0.2152
vn -0.9565 0.2337 0.1745
vn 0.7822 0.3999 -0.4778
vn 0.7998 0.2337 -0.5530
vn -0.4778 0.3999 0.7822
vn -0.5530 0.2337 0.7998
vn 0.2152 0.3999 -0.8909
vn 0.1745 0.2337 -0.9565
vn 0.2152 0.3999 0.8909
vn -0.4778 0.3999 -0.7822
vn -0.0919 -0.2879 -0.9532
vn -0.1610 -0.9072 -0.3887
vn -0.0919 -0.2879 0.9532
vn -0.3887 -0.9072 0.1610
vn 0.1745 0.2337 0.9565
vn 0.2744 0.6970 0.6625
vn 0.9532 -0.2879 0.0919
vn 0.3516 0.3948 -0.8488
vn -0.7390 -0.2879 0.6090
vn 0.8488 0.3948 0.3516
vn 0.6090 -0.2879 -0.7390
vn 0.8488 0.3948 -0.3516
vn -0.1610 -0.9072 0.3887
vn 0.3516 0.3948 0.8488
vn 0.9532 -0.2879 -0.0919
vn 0.6090 -0.2879 0.7390
vn -0.3887 -0.9072 -0.1610
vn -0.7390 -0.2879 -0.6090
vn 0.3883 0.9074 -0.1608
vn -0.6093 0.2883 0.7387
vn 0.3883 0.9074 0.1608
vn 0.7387 0.2883 -0.6093
vn 0.2744 0.6970 -0.6625
vn 0.6625 0.6970 0.2744
vn 0.6625 0.6970 -0.2744
vn -0.2667 0.7171 0.6439
vn -0.6439 0.7171 -0.2667
vn -0.6439 0.7171 0.2667
vn -0.2667 0.7171 -0.6439
vn 0.0915 0.2883 -0.9532
vn 0.1608 0.9074 0.3883
vn -0.3517 -0.3943 0.8490
vn 0.0915 0.2883 0.9532
vn -0.6093 0.2883 -0.7387
vn -0.8490 -0.3943 -0.3517
vn 0.7387 0.2883 0.6093
vn -0.8490 -0.3943 0.3517
vn -0.9532 0.2883 -0.0915
vn -0.3517 -0.3943 -0.8490
vn -0.9532 0.2883 0.0915
vn 0.1608 0.9074 -0.3883
vn 0.9239 0.0008 0.3827
vn 0.9239 0.0008 -0.3827
vn 0.3901 -0.0047 -0.9208
usemtl Material
s off
f 3//1 6//1 5//1 2//1
f 1//2 4//2 120//2 115//2
f 114//3 119//3 6//3 3//3
f 2//4 5//4 4//4 1//4
f 5//5 6//5 9//5 8//5
f 120//6 4//6 7//6 125//6
f 6//7 119//7 124//7 9//7
f 4//8 5//8 8//8 7//8
f 8//9 9//9 12//9 11//9
f 125//10 7//10 10//10 130//10
f 9//11 124//11 129//11 12//11
f 7//12 8//12 11//12 10//12
f 12//13 129//13 134//13 15//13
f 10//14 11//14 14//14 13//14
f 11//15 12//15 15//15 14//15
f 130//16 10//16 13//16 135//16
f 15//17 134//17 139//17 18//17
f 13//18 14//18 17//18 16//18
f 14//19 15//19 18//19 17//19
f 135//20 13//20 16//20 140//20
f 17//21 18//21 21//21 20//21
f 140//22 16//22 19//22 145//22
f 18//23 139//23 144//23 21//23
f 16//24 17//24 20//24 19//24
f 145//25 19//25 23//25 22//25
f 21//26 144//26 26//26 29//26
f 20//27 21//27 25//27 24//27
f 19//28 20//28 28//28 27//28
f 27//29 28//29 36//29 35//29
f 22//30 23//30 31//30 30//30
f 29//31 26//31 34//31 37//31
f 24//32 25//32 33//32 32//32
f 179//33 169//33 40//33 46//33
f 42//34 45//34 46//34 43//34
f 171//35 176//35 44//35 41//35
f 43//36 46//36 179//36 174//36
f 41//37 44//37 45//37 42//37
f 45//38 49//38 48//38 46//38
f 176//39 181//39 47//39 44//39
f 46//40 48//40 184//40 179//40
f 44//41 47//41 49//41 45//41
f 181//42 51//42 50//42 47//42
f 48//43 57//43 56//43 184//43
f 49//44 53//44 52//44 48//44
f 47//45 55//45 54//45 49//45
f 55//46 63//46 62//46 54//46
f 51//47 59//47 58//47 50//47
f 57//48 65//48 64//48 56//48
f 53//49 61//49 60//49 52//49
f 20//50 49//50 45//50
f 28//51 54//51 62//51 36//51
f 22//52 51//52 181//52 145//52
f 21//53 46//53 48//53
f 30//54 59//54 51//54 22//54
f 19//55 47//55 50//55 23//55
f 23//56 50//56 58//56 31//56
f 29//57 57//57 48//57 21//57
f 19//58 44//58 47//58
f 37//59 65//59 57//59 29//59
f 144//60 184//60 56//60 26//60
f 26//61 56//61 64//61 34//61
f 24//62 53//62 49//62 20//62
f 32//63 61//63 53//63 24//63
f 21//64 48//64 52//64 25//64
f 25//65 52//65 60//65 33//65
f 27//66 55//66 47//66 19//66
f 115//67 166//67 38//67 1//67
f 20//68 49//68 54//68 28//68
f 1//67 38//67 39//67 2//67
f 36//69 62//69 78//69 70//69
f 2//67 39//67 40//67 3//67
f 37//70 34//70 72//70 73//70
f 3//67 40//67 169//67 114//67
f 61//71 32//71 69//71 77//71
f 35//72 36//72 70//72 71//72
f 35//73 63//73 55//73 27//73
f 70//3 78//3 94//3 86//3
f 79//74 71//74 87//74 95//74
f 67//30 66//30 82//30 83//30
f 80//75 81//75 97//75 96//75
f 59//76 30//76 67//76 75//76
f 58//77 59//77 75//77 74//77
f 65//78 37//78 73//78 81//78
f 60//79 61//79 77//79 76//79
f 33//80 60//80 76//80 68//80
f 62//81 63//81 79//81 78//81
f 30//82 31//82 66//82 67//82
f 64//83 65//83 81//83 80//83
f 34//84 64//84 80//84 72//84
f 63//85 35//85 71//85 79//85
f 32//86 33//86 68//86 69//86
f 31//87 58//87 74//87 66//87
f 94//88 95//88 111//88 110//88
f 93//89 85//89 101//89 109//89
f 92//90 93//90 109//90 108//90
f 88//91 96//91 112//91 104//91
f 69//32 68//32 84//32 85//32
f 75//92 67//92 83//92 91//92
f 71//29 70//29 86//29 87//29
f 66//1 74//1 90//1 82//1
f 73//31 72//31 88//31 89//31
f 81//4 73//4 89//4 97//4
f 74//93 75//93 91//93 90//93
f 72//94 80//94 96//94 88//94
f 76//95 77//95 93//95 92//95
f 77//2 69//2 85//2 93//2
f 78//96 79//96 95//96 94//96
f 68//97 76//97 92//97 84//97
f 98//98 106//98 107//98 99//98
f 100//99 108//99 109//99 101//99
f 102//100 110//100 111//100 103//100
f 104//101 112//101 113//101 105//101
f 84//102 92//102 108//102 100//102
f 96//103 97//103 113//103 112//103
f 83//104 82//104 98//104 99//104
f 95//105 87//105 103//105 111//105
f 86//106 94//106 110//106 102//106
f 85//107 84//107 100//107 101//107
f 91//108 83//108 99//108 107//108
f 87//109 86//109 102//109 103//109
f 82//110 90//110 106//110 98//110
f 89//111 88//111 104//111 105//111
f 97//112 89//112 105//112 113//112
f 90//113 91//113 107//113 106//113
f 46//114 40//114 39//114 45//114
f 45//115 39//115 38//115 44//115
f 44//116 38//116 166//116 176//116
f 118//94 117//94 122//94 123//94
f 116//74 115//74 120//74 121//74
f 114//97 118//97 123//97 119//97
f 117//92 116//92 121//92 122//92
f 122//117 127//117 128//117 123//117
f 120//118 125//118 126//118 121//118
f 123//119 128//119 124//119 119//119
f 121//120 126//120 127//120 122//120
f 127//121 132//121 133//121 128//121
f 125//122 130//122 131//122 126//122
f 128//123 133//123 129//123 124//123
f 126//124 131//124 132//124 127//124
f 133//125 138//125 134//125 129//125
f 131//126 136//126 137//126 132//126
f 132//127 137//127 138//127 133//127
f 130//128 135//128 136//128 131//128
f 138//129 143//129 139//129 134//129
f 136//130 141//130 142//130 137//130
f 137//131 142//131 143//131 138//131
f 135//132 140//132 141//132 136//132
f 142//133 147//133 148//133 143//133
f 140//134 145//134 146//134 141//134
f 143//135 148//135 144//135 139//135
f 141//136 146//136 147//136 142//136
f 145//137 149//137 150//137 146//137
f 148//138 156//138 153//138 144//138
f 147//139 151//139 152//139 148//139
f 146//140 154//140 155//140 147//140
f 154//141 162//141 163//141 155//141
f 149//142 157//142 158//142 150//142
f 156//143 164//143 161//143 153//143
f 151//144 159//144 160//144 152//144
f 179//145 178//145 168//145 169//145
f 172//146 173//146 178//146 177//146
f 171//147 170//147 175//147 176//147
f 173//148 174//148 179//148 178//148
f 170//149 172//149 177//149 175//149
f 177//150 178//150 182//150 183//150
f 176//151 175//151 180//151 181//151
f 178//152 179//152 184//152 182//152
f 175//153 177//153 183//153 180//153
f 181//154 180//154 185//154 186//154
f 182//155 184//155 191//155 192//155
f 183//156 182//156 187//156 188//156
f 180//157 183//157 189//157 190//157
f 190//158 189//158 197//158 198//158
f 186//159 185//159 193//159 194//159
f 192//160 191//160 199//160 200//160
f 188//161 187//161 195//161 196//161
f 147//50 177//50 183//50
f 155//162 163//162 197//162 189//162
f 149//163 145//163 181//163 186//163
f 148//58 182//58 178//58
f 157//164 149//164 186//164 194//164
f 146//165 150//165 185//165 180//165
f 150//166 158//166 193//166 185//166
f 156//167 148//167 182//167 192//167
f 146//53 180//53 175//53
f 164//168 156//168 192//168 200//168
f 144//169 153//169 191//169 184//169
f 153//170 161//170 199//170 191//170
f 151//171 147//171 183//171 188//171
f 159//172 151//172 188//172 196//172
f 148//173 152//173 187//173 182//173
f 152//174 160//174 195//174 187//174
f 154//175 146//175 180//175 190//175
f 115//67 116//67 165//67 166//67
f 147//176 155//176 189//176 183//176
f 116//67 117//67 167//67 165//67
f 163//177 205//177 213//177 197//177
f 117//67 118//67 168//67 167//67
f 164//178 208//178 207//178 161//178
f 118//67 114//67 169//67 168//67
f 196//179 212//179 204//179 159//179
f 162//180 206//180 205//180 163//180
f 162//181 154//181 190//181 198//181
f 205//97 221//97 229//97 213//97
f 214//2 230//2 222//2 206//2
f 202//142 218//142 217//142 201//142
f 215//182 231//182 232//182 216//182
f 194//183 210//183 202//183 157//183
f 193//184 209//184 210//184 194//184
f 200//185 216//185 208//185 164//185
f 195//186 211//186 212//186 196//186
f 160//187 203//187 211//187 195//187
f 197//188 213//188 214//188 198//188
f 157//189 202//189 201//189 158//189
f 199//190 215//190 216//190 200//190
f 161//191 207//191 215//191 199//191
f 198//192 214//192 206//192 162//192
f 159//193 204//193 203//193 160//193
f 158//194 201//194 209//194 193//194
f 229//195 245//195 246//195 230//195
f 228//196 244//196 236//196 220//196
f 227//197 243//197 244//197 228//197
f 223//198 239//198 247//198 231//198
f 204//144 220//144 219//144 203//144
f 210//4 226//4 218//4 202//4
f 206//141 222//141 221//141 205//141
f 201//94 217//94 225//94 209//94
f 208//143 224//143 223//143 207//143
f 216//92 232//92 224//92 208//92
f 209//199 225//199 226//199 210//199
f 207//1 223//1 231//1 215//1
f 211//200 227//200 228//200 212//200
f 212//74 228//74 220//74 204//74
f 213//201 229//201 230//201 214//201
f 203//3 219//3 227//3 211//3
f 233//202 234//202 242//202 241//202
f 235//203 236//203 244//203 243//203
f 237//204 238//204 246//204 245//204
f 239//205 240//205 248//205 247//205
f 219//206 235//206 243//206 227//206
f 231//207 247//207 248//207 232//207
f 218//208 234//208 233//208 217//208
f 230//209 246//209 238//209 222//209
f 221//210 237//210 245//210 229//210
f 220//211 236//211 235//211 219//211
f 226//212 242//212 234//212 218//212
f 222//213 238//213 237//213 221//213
f 217//214 233//214 241//214 225//214
f 224//215 240//215 239//215 223//215
f 232//216 248//216 240//216 224//216
f 225//217 241//217 242//217 226//217
f 178//218 177//218 167//218 168//218
f 177//219 175//219 165//219 167//219
f 175//220 176//220 166//220 165//220
