# Blender v2.79 (sub 0) OBJ File: 'Fist.blend'
# www.blender.org
mtllib Fist.mtl
o Plane
v -0.427387 -1.005498 0.263262
v 0.556129 -0.999549 0.292957
v -0.437320 -0.999549 -0.295680
v 0.513661 -0.999549 -0.338033
v -0.204457 -1.002691 0.332018
v 0.045036 -0.999549 -0.440038
v -0.607386 -0.572044 0.356979
v 0.908010 -0.488157 0.483427
v -0.533729 -0.418386 -0.383486
v 0.807471 -0.328437 -0.319696
v -0.345474 -0.488899 0.415903
v 0.049450 -0.340973 -0.593998
v 0.270943 -0.999669 0.477118
v 0.425722 -0.467001 0.682314
v 0.873944 0.202901 0.218089
v 0.049450 0.171643 -0.654795
v 0.878848 0.112802 -0.283889
v -0.570474 0.176156 -0.493347
v -0.556307 -0.996867 0.002019
v -0.744443 -0.494896 0.008346
v -0.771661 0.218874 -0.257307
v -0.711207 0.206613 0.153442
v -0.406428 0.220864 0.154209
v 0.433262 0.108820 0.133302
v 0.826233 0.563190 0.261503
v 0.056889 0.730490 -0.588686
v 0.808624 0.760926 -0.265072
v -0.504986 0.707741 -0.447823
v -0.687334 0.700358 -0.252671
v -0.684730 0.470790 0.133291
v -0.328689 0.449753 0.106227
v 0.417428 0.484905 0.269278
v 0.052427 -1.000552 0.410683
v 0.034925 -0.450524 0.535821
v 0.026291 0.184646 0.140048
v 0.029577 0.437376 0.258492
v 0.279349 -0.999549 -0.389036
v 0.428460 -0.334705 -0.456847
v 0.464149 0.142223 -0.469342
v 0.432756 0.745708 -0.426879
v -0.533137 -1.001183 0.132640
v 0.567937 -0.999549 -0.022538
v -0.728005 -0.533470 0.182662
v 0.916680 -0.408297 0.081865
v 0.949734 0.157851 0.052582
v -0.798268 0.212744 -0.051932
v 0.800064 0.874381 -0.010436
v -0.650631 0.879608 -0.107020
v 0.439986 0.972028 0.096790
v 0.028065 0.958367 0.055976
v -0.394107 0.934915 -0.020237
v 0.786755 -0.104604 0.751252
v 1.085693 -0.045480 0.619183
v 0.573832 -0.073861 0.684023
v 0.892205 0.185943 0.360510
v 0.700326 0.117055 0.374774
v 0.554998 0.062336 0.402913
v 1.057855 0.029187 0.426864
v 0.940965 0.184816 0.345930
v 0.671113 0.227165 0.974661
v 0.744627 0.407673 0.882154
v 0.755192 0.469504 0.771427
v 0.745078 0.446035 0.599729
v 0.210659 0.384596 0.942560
v 0.239136 0.494844 0.886381
v 0.232856 0.554942 0.770583
v 0.211813 0.468826 0.669022
v 0.521506 0.082452 0.731778
v 0.546873 0.248451 0.595629
v 0.222324 0.201884 0.775387
v 0.240293 0.330588 0.593657
v 0.081796 0.427308 0.802932
v 0.802034 0.869990 0.350672
v 0.474960 0.925410 0.321912
v 0.851782 0.732384 0.547716
v 0.456919 0.706743 0.518967
v 0.657423 0.745780 0.616108
v 0.826907 0.106610 0.398915
v 0.660625 0.013929 0.432809
v 0.493407 0.093335 0.374320
v 0.786389 0.271455 0.301989
v 0.826907 0.233927 0.327066
v 0.493407 0.221996 0.301712
v 0.535290 0.261137 0.283653
v 0.844095 0.370553 0.582010
v 0.647828 0.336408 0.658296
v 0.449205 0.360558 0.557303
v 0.473052 0.437970 0.378853
v 0.433877 0.422497 0.414267
v 0.427949 0.474040 0.364296
v 0.835453 0.432672 0.400573
v 0.793442 0.443141 0.369294
v 0.832851 0.482132 0.356410
v 0.409047 0.917546 0.294277
v 0.042684 0.899996 0.326304
v 0.433731 0.672367 0.571642
v 0.041436 0.650479 0.572609
v 0.239603 0.686899 0.656642
v 0.419843 -0.041979 0.422381
v 0.256452 -0.142750 0.468790
v 0.085418 -0.056590 0.421088
v 0.372698 0.146229 0.328881
v 0.414702 0.105936 0.349705
v 0.080246 0.092211 0.347977
v 0.120591 0.134392 0.328309
v 0.425835 0.260018 0.603482
v 0.229608 0.223059 0.694274
v 0.030732 0.249198 0.605582
v 0.065115 0.336996 0.427700
v 0.024311 0.319999 0.464308
v 0.023736 0.370844 0.411788
v 0.424839 0.331623 0.422006
v 0.384470 0.342928 0.395513
v 0.423756 0.381687 0.378752
v -0.002985 0.889826 0.240977
v -0.331024 0.870225 0.199968
v 0.015874 0.717700 0.567799
v -0.349488 0.697440 0.471264
v -0.178319 0.747325 0.598525
v 0.022200 0.026754 0.469177
v -0.139921 -0.068483 0.487643
v -0.288679 0.010304 0.396056
v -0.002873 0.199302 0.350024
v 0.033385 0.162872 0.383531
v -0.277775 0.143000 0.312563
v -0.234089 0.183201 0.298158
v 0.010543 0.334246 0.625239
v -0.187175 0.302941 0.674477
v -0.358395 0.317419 0.541225
v -0.307391 0.385041 0.364754
v -0.351210 0.371259 0.394081
v -0.346960 0.411674 0.331148
v 0.030275 0.386369 0.436411
v -0.006480 0.393977 0.399861
v 0.032924 0.429285 0.383495
v -0.363721 0.856693 0.183958
v -0.649841 0.838954 0.173782
v -0.365338 0.669423 0.452703
v -0.680155 0.660344 0.392811
v -0.531380 0.693754 0.506412
v -0.358653 0.050094 0.329347
v -0.501090 -0.046835 0.352880
v -0.637112 0.038766 0.284024
v -0.391760 0.213270 0.242248
v -0.353709 0.170493 0.270455
v -0.632247 0.157228 0.226080
v -0.588862 0.203429 0.211073
v -0.373938 0.307009 0.487418
v -0.539429 0.278797 0.552505
v -0.687935 0.300420 0.436221
v -0.648398 0.377326 0.208960
v -0.690557 0.367528 0.233633
v -0.689952 0.415774 0.198561
v -0.352119 0.378314 0.242328
v -0.390996 0.382328 0.223547
v -0.347093 0.419754 0.209959
v 0.782613 0.101940 0.216906
v 0.809550 0.101470 0.251289
v 0.662621 0.028720 0.210252
v 0.537557 0.083662 0.204765
v 0.510651 0.082229 0.235763
v 0.765974 0.132020 0.209282
v 0.768143 0.205647 0.226113
v 0.782613 0.107381 0.215725
v 0.804829 0.156388 0.238222
v 0.537557 0.090064 0.203375
v 0.515483 0.139329 0.222719
v 0.556380 0.118145 0.198516
v 0.553193 0.191418 0.215072
v 0.362625 -0.048767 0.246223
v 0.391747 -0.048965 0.278780
v 0.240886 -0.123329 0.249126
v 0.116893 -0.061574 0.250657
v 0.092068 -0.061127 0.283287
v 0.345877 -0.007316 0.236294
v 0.351770 0.069924 0.250384
v 0.362786 -0.034935 0.242878
v 0.387572 0.016427 0.262125
v 0.117064 -0.046882 0.247105
v 0.097764 0.005915 0.266043
v 0.136796 -0.016548 0.239665
v 0.135872 0.060391 0.253865
v 0.007248 0.012864 0.279564
v 0.029281 0.017781 0.317247
v -0.100248 -0.070776 0.266633
v -0.218727 -0.020738 0.238760
v -0.249805 -0.020151 0.265591
v -0.010407 0.049105 0.263501
v -0.013817 0.126600 0.271514
v 0.006930 0.024689 0.275574
v 0.023159 0.079141 0.294695
v -0.218998 -0.010657 0.235358
v -0.246705 0.040490 0.245281
v -0.201013 0.020287 0.229241
v -0.211955 0.096643 0.235900
v -0.387400 0.046502 0.167175
v -0.363064 0.047481 0.203674
v -0.480640 -0.032256 0.157333
v -0.582183 0.024400 0.142837
v -0.611490 0.022969 0.171675
v -0.405332 0.074160 0.157796
v -0.405022 0.152234 0.172534
v -0.387377 0.044832 0.167580
v -0.367802 0.097422 0.190275
v -0.582138 0.021144 0.143627
v -0.608020 0.072331 0.159615
v -0.562395 0.057295 0.137940
v -0.571240 0.134387 0.151521
v -0.486335 -2.120815 0.301117
v 0.649758 -2.072123 0.337565
v -0.502675 -2.019643 -0.352562
v 0.595204 -1.959351 -0.402218
v -0.228277 -2.121156 0.382498
v 0.053118 -1.966644 -0.521810
v 0.322017 -2.121480 0.553446
v -0.637484 -2.080648 -0.002799
v 0.069080 -2.121400 0.475314
v 0.324161 -1.962997 -0.462014
v -0.609593 -2.103014 0.149159
v 0.660640 -2.013910 -0.032326
v -0.239062 -0.901681 0.371102
v -0.488312 -0.915835 0.297244
v 0.606510 -0.876539 -0.370939
v 0.660979 -0.898575 0.343076
v -0.487646 -0.888949 -0.339251
v 0.053934 -0.878268 -0.506297
v 0.321808 -0.895770 0.546570
v -0.630467 -0.896940 -0.000598
v 0.058996 -0.894341 0.462849
v 0.330222 -0.877404 -0.438618
v -0.606048 -0.906388 0.148323
v 0.673463 -0.887557 -0.013931
vn 0.9010 -0.3535 -0.2516
vn -0.2116 -0.1954 0.9576
vn -0.7820 -0.3322 0.5273
vn 0.2974 -0.1187 -0.9473
vn -0.3054 -0.1386 -0.9421
vn 0.3870 -0.4302 0.8156
vn -0.3308 -0.1908 0.9242
vn 0.9520 -0.2873 -0.1055
vn 0.3760 -0.0203 -0.9264
vn -0.2832 -0.1553 -0.9464
vn -0.8773 -0.1789 -0.4453
vn -0.8150 -0.1963 -0.5452
vn -0.9962 -0.0788 -0.0360
vn -0.1480 0.2801 0.9485
vn -0.1175 0.4312 0.8946
vn 0.9515 -0.0710 -0.2993
vn -0.0181 -0.3753 0.9267
vn -0.2478 0.1151 -0.9619
vn 0.0408 0.1283 0.9909
vn 0.4018 0.0934 -0.9109
vn -0.9343 0.1986 0.2960
vn -0.7339 0.1414 -0.6644
vn -0.0393 -0.2397 0.9700
vn 0.9777 0.1529 -0.1441
vn -0.1776 -0.1131 0.9776
vn 0.0472 0.9877 0.1490
vn -0.2827 -0.1728 0.9435
vn 0.4021 0.0773 -0.9123
vn 0.3732 -0.0819 -0.9241
vn 0.2984 -0.0530 -0.9530
vn 0.1312 0.9086 -0.3964
vn 0.0587 0.9308 -0.3608
vn -0.0971 0.9400 0.3271
vn -0.9934 0.1003 -0.0557
vn -0.2450 0.8196 -0.5180
vn -0.0685 0.9202 -0.3853
vn -0.9995 0.0253 0.0206
vn 0.9592 0.1798 0.2182
vn -0.9785 0.1947 -0.0679
vn -0.8747 0.0389 0.4830
vn 0.9657 -0.0986 -0.2403
vn -0.9526 -0.2943 0.0767
vn 0.8790 -0.4757 -0.0325
vn 0.9968 0.0799 -0.0045
vn 0.9792 0.1239 -0.1607
vn -0.9912 0.1239 0.0467
vn 0.2245 0.9719 0.0704
vn -0.9826 -0.1681 -0.0788
vn -0.9789 0.1070 0.1742
vn 0.0566 -0.0990 -0.9935
vn -0.6736 0.4154 -0.6114
vn 0.0025 0.4229 -0.9062
vn 0.0068 0.8421 0.5392
vn 0.9982 -0.0259 -0.0534
vn 0.7298 0.4171 -0.5417
vn -0.9915 0.0367 0.1251
vn -0.3816 -0.9238 -0.0298
vn 0.0641 -0.7990 -0.5978
vn 0.9975 -0.0207 -0.0678
vn 0.9974 0.0233 -0.0682
vn -0.9840 -0.1483 -0.0987
vn 0.9875 0.0100 0.1575
vn -0.0108 -0.1354 -0.9907
vn -0.7227 0.4012 -0.5628
vn -0.0628 0.3773 -0.9240
vn -0.1038 0.9424 0.3181
vn 0.9993 -0.0134 -0.0357
vn -0.9981 0.0197 0.0582
vn 0.7103 0.3846 -0.5895
vn -0.9984 0.0474 0.0301
vn -0.4197 -0.9073 -0.0273
vn 0.0249 -0.7782 -0.6276
vn 0.9994 -0.0106 -0.0318
vn -0.0416 0.9716 0.2329
vn 0.9973 0.0710 -0.0202
vn -0.9629 -0.1680 -0.2114
vn -0.9980 0.0084 -0.0626
vn 0.2037 -0.2085 -0.9566
vn -0.6136 0.3215 -0.7212
vn 0.1397 0.3038 -0.9424
vn -0.1722 0.9541 0.2449
vn 0.9946 -0.0129 0.1032
vn -0.9642 -0.0628 0.2578
vn 0.7989 0.3856 -0.4615
vn -0.9979 0.0222 -0.0610
vn -0.3971 -0.9178 -0.0032
vn 0.0590 -0.9666 -0.2493
vn 0.9978 0.0252 0.0610
vn 0.9781 0.0779 0.1930
vn 0.9955 0.0746 0.0580
vn -0.9743 -0.1792 -0.1361
vn 0.9887 0.1055 -0.1067
vn 0.1364 -0.1191 -0.9835
vn -0.6675 0.3546 -0.6548
vn 0.1015 -0.0429 -0.9939
vn 0.9959 0.0041 0.0903
vn -0.9956 0.0926 0.0162
vn 0.7882 0.3801 -0.4839
vn -0.9994 0.0332 0.0092
vn -0.4554 -0.8880 -0.0646
vn -0.0120 -0.7820 -0.6231
vn 0.9940 -0.0329 0.1043
vn -0.0710 0.9046 0.4202
vn -0.3232 0.1177 0.9390
vn -0.2884 0.5035 0.8144
vn -0.2663 0.9386 0.2192
vn 0.3109 0.9500 -0.0286
vn 0.3665 -0.4520 0.8132
vn 0.7835 0.6173 -0.0710
vn 0.8513 0.4948 0.1744
vn 0.5818 -0.1561 0.7982
vn 0.0701 0.9231 -0.3782
vn 0.1476 0.8697 0.4709
vn 0.0831 0.4305 0.8988
vn -0.9896 -0.1086 -0.0941
vn -0.2746 -0.6862 -0.6736
vn -0.7068 -0.5016 0.4989
vn -0.4382 -0.5471 0.7133
vn -0.2502 -0.7138 0.6541
vn -0.0460 0.2520 -0.9666
vn -0.3744 0.6591 -0.6523
vn -0.2186 0.5907 -0.7767
vn -0.3976 0.5542 -0.7313
vn -0.5351 0.7376 0.4118
vn -0.6370 0.6480 -0.4175
vn -0.5631 0.4860 0.6684
vn -0.7332 0.2028 -0.6490
vn -0.7996 -0.4499 -0.3977
vn -0.3285 -0.6767 -0.6590
vn 0.3714 -0.6074 -0.7022
vn -0.3068 -0.6855 -0.6603
vn 0.3020 -0.6195 -0.7246
vn -0.1007 -0.8341 -0.5424
vn 0.4102 -0.7183 -0.5620
vn -0.3207 -0.5543 -0.7681
vn 0.2925 -0.6104 -0.7361
vn 0.2380 0.8235 0.5150
vn -0.4362 0.6220 0.6503
vn 0.3421 0.0851 0.9358
vn -0.4603 -0.5351 0.7084
vn 0.9878 -0.0440 -0.1494
vn -0.9863 -0.0472 -0.1579
vn 0.0047 0.7293 -0.6842
vn 0.4814 -0.8721 -0.0877
vn 0.6408 0.2491 -0.7262
vn 0.4101 -0.5234 0.7469
vn -0.4453 0.1050 0.8892
vn -0.6321 0.2071 -0.7467
vn 0.3216 0.7235 0.6109
vn -0.3955 0.6462 0.6527
vn 0.4067 0.0640 0.9113
vn -0.4295 -0.5079 0.7467
vn 0.9758 -0.0468 -0.2136
vn -0.9949 -0.0370 -0.0941
vn -0.0369 0.7134 -0.6998
vn 0.5237 -0.8470 0.0912
vn 0.5875 0.2252 -0.7772
vn 0.4636 -0.4502 0.7632
vn -0.3993 0.0841 0.9129
vn -0.6520 0.1981 -0.7319
vn 0.2036 0.8711 0.4470
vn -0.5317 0.7303 0.4289
vn 0.1969 0.1527 0.9685
vn -0.5993 -0.4328 0.6734
vn 0.9996 -0.0271 -0.0026
vn -0.9557 -0.0825 -0.2826
vn 0.0804 0.6633 -0.7440
vn 0.5622 -0.8270 -0.0027
vn 0.7343 0.1730 -0.6565
vn 0.3054 -0.4080 0.8604
vn -0.6084 0.1510 0.7791
vn -0.5033 0.1229 -0.8554
vn 0.2921 0.7838 0.5480
vn -0.5300 0.6916 0.4907
vn 0.3350 0.0903 0.9379
vn -0.5986 -0.4766 0.6439
vn 0.9964 -0.0339 -0.0771
vn -0.9692 -0.0523 -0.2407
vn 0.0479 0.7049 -0.7077
vn 0.4675 -0.1119 -0.8769
vn 0.4109 -0.4493 0.7933
vn -0.6110 0.1031 0.7849
vn -0.3648 -0.0988 -0.9258
vn 0.1073 0.8768 0.4688
vn 0.4939 -0.7733 -0.3975
vn -0.3629 -0.8616 -0.3549
vn 0.5204 0.1652 -0.8378
vn -0.4356 0.1692 -0.8841
vn 0.4662 -0.7777 -0.4218
vn -0.4265 -0.8486 -0.3129
vn 0.4762 0.1125 -0.8721
vn -0.4973 0.1411 -0.8560
vn 0.6122 -0.7465 -0.2606
vn -0.3008 -0.8952 -0.3288
vn 0.6293 0.0974 -0.7710
vn -0.3209 0.0258 -0.9468
vn 0.6172 -0.6815 -0.3932
vn -0.3900 -0.8107 -0.4366
vn 0.5993 0.1349 -0.7891
vn -0.3993 0.1019 -0.9112
vn 0.7878 -0.0825 -0.6104
vn -0.7553 -0.0901 -0.6492
vn 0.0354 0.2217 -0.9745
vn 0.7472 -0.1268 -0.6523
vn -0.8018 -0.0927 -0.5904
vn -0.0239 0.1812 -0.9832
vn 0.8701 -0.0986 -0.4830
vn -0.6483 -0.2186 -0.7293
vn 0.1600 0.1085 -0.9811
vn 0.8298 -0.0681 -0.5539
vn -0.6897 -0.1219 -0.7138
vn 0.1038 0.1841 -0.9774
vn 0.4674 -0.8830 -0.0424
vn -0.5977 0.7050 0.3816
vn 0.8067 0.5902 -0.0301
vn -0.2919 0.0749 -0.9535
vn -0.7730 0.0627 0.6313
vn -0.2978 0.0487 0.9534
vn -0.9307 0.0753 -0.3580
vn 0.5401 0.0818 0.8376
vn -0.2929 0.0512 0.9548
vn -0.9803 0.0717 0.1839
vn -0.2954 0.0500 0.9541
vn 0.2128 0.0839 -0.9735
vn 0.2128 0.0834 -0.9735
vn 0.9821 0.0928 -0.1641
vn 0.9952 0.0895 0.0405
vn 0.0472 -0.9870 -0.1539
vn 0.7094 -0.7047 0.0141
vn -0.7902 -0.6038 0.1048
vn 0.2063 -0.4185 -0.8845
vn -0.2601 -0.4184 0.8702
vn -0.7808 -0.5332 -0.3257
vn -0.2699 -0.4261 0.8635
vn 0.3909 -0.6672 0.6341
vn -0.2554 -0.4508 -0.8553
vn 0.2017 -0.4608 -0.8643
vn -0.6415 -0.5956 0.4835
vn -0.2432 -0.4509 0.8588
vn 0.7485 -0.6469 -0.1455
usemtl None
s off
f 232//1 223//1 10//1 44//1
f 222//2 221//2 11//2 7//2
f 231//3 222//3 7//3 43//3
f 230//4 226//4 12//4 38//4
f 226//5 225//5 9//5 12//5
f 227//6 224//6 8//6 14//6
f 229//7 227//7 14//7 34//7
f 8//8 44//8 58//8 53//8
f 39//9 17//9 10//9 38//9
f 9//10 18//10 16//10 12//10
f 225//11 228//11 20//11 9//11
f 18//12 9//12 20//12 21//12
f 43//13 46//13 21//13 20//13
f 11//14 23//14 22//14 7//14
f 34//15 35//15 23//15 11//15
f 45//16 58//16 44//16
f 35//17 24//17 32//17 36//17
f 16//18 18//18 28//18 26//18
f 22//19 23//19 31//19 30//19
f 39//20 16//20 26//20 40//20
f 46//21 22//21 30//21 48//21
f 18//22 21//22 29//22 28//22
f 24//23 15//23 25//23 32//23
f 45//24 17//24 27//24 47//24
f 23//25 35//25 36//25 31//25
f 24//26 35//26 57//26 56//26
f 221//27 229//27 34//27 11//27
f 17//28 39//28 40//28 27//28
f 16//29 39//29 38//29 12//29
f 223//30 230//30 38//30 10//30
f 47//31 27//31 40//31 49//31
f 49//32 40//32 26//32 50//32
f 115//33 116//33 119//33
f 137//34 30//34 139//34
f 28//35 29//35 48//35 51//35
f 26//36 28//36 51//36 50//36
f 95//37 36//37 97//37
f 15//38 45//38 47//38 25//38
f 21//39 46//39 48//39 29//39
f 7//40 22//40 46//40 43//40
f 10//41 17//41 45//41 44//41
f 228//42 231//42 43//42 20//42
f 224//43 232//43 44//43 8//43
f 47//44 73//44 25//44
f 73//45 75//45 25//45
f 74//46 32//46 76//46
f 47//47 49//47 74//47 73//47
f 87//48 89//48 83//48 80//48
f 32//49 74//49 49//49
f 157//50 159//50 160//50 166//50 168//50 162//50 164//50
f 167//51 83//51 84//51 169//51
f 81//52 84//52 88//52 92//52
f 94//53 95//53 98//53
f 78//54 82//54 91//54 85//54
f 82//55 165//55 163//55 81//55
f 76//56 32//56 90//56 89//56 87//56
f 80//57 161//57 159//57 79//57
f 93//58 92//58 88//58 90//58 32//58 25//58
f 85//59 91//59 93//59 25//59 75//59
f 94//60 96//60 32//60
f 108//61 110//61 104//61 101//61
f 32//62 49//62 94//62
f 170//63 172//63 173//63 179//63 181//63 175//63 177//63
f 180//64 104//64 105//64 182//64
f 102//65 105//65 109//65 113//65
f 51//66 116//66 115//66 50//66
f 99//67 103//67 112//67 106//67
f 50//68 36//68 95//68
f 103//69 178//69 176//69 102//69
f 97//70 36//70 111//70 110//70 108//70
f 101//71 174//71 172//71 100//71
f 114//72 113//72 109//72 111//72 36//72 32//72
f 106//73 112//73 114//73 32//73 96//73
f 50//74 95//74 94//74 49//74
f 115//75 117//75 36//75
f 129//76 131//76 125//76 122//76
f 116//77 31//77 118//77
f 183//78 185//78 186//78 192//78 194//78 188//78 190//78
f 193//79 125//79 126//79 195//79
f 123//80 126//80 130//80 134//80
f 48//81 137//81 136//81 51//81
f 120//82 124//82 133//82 127//82
f 31//83 116//83 51//83
f 124//84 191//84 189//84 123//84
f 118//85 31//85 132//85 131//85 129//85
f 122//86 187//86 185//86 121//86
f 135//87 134//87 130//87 132//87 31//87 36//87
f 127//88 133//88 135//88 36//88 117//88
f 50//89 115//89 36//89
f 136//90 138//90 31//90
f 150//91 152//91 146//91 143//91
f 31//92 51//92 136//92
f 196//93 198//93 199//93 205//93 207//93 201//93 203//93
f 206//94 146//94 147//94 208//94
f 144//95 147//95 151//95 155//95
f 141//96 145//96 154//96 148//96
f 30//97 137//97 48//97
f 145//98 204//98 202//98 144//98
f 139//99 30//99 153//99 152//99 150//99
f 143//100 200//100 198//100 142//100
f 156//101 155//101 151//101 153//101 30//101 31//101
f 148//102 154//102 156//102 31//102 138//102
f 136//103 137//103 140//103
f 34//104 14//104 52//104 54//104
f 34//105 57//105 35//105
f 15//106 24//106 56//106 55//106
f 45//107 15//107 55//107 59//107
f 14//108 8//108 53//108 52//108
f 58//109 59//109 63//109 62//109
f 53//110 58//110 62//110 61//110
f 52//111 53//111 61//111 60//111
f 62//112 63//112 67//112 66//112
f 61//113 62//113 66//113 65//113
f 60//114 61//114 65//114 64//114
f 57//115 54//115 68//115 69//115
f 69//116 68//116 70//116 71//116
f 64//117 72//117 70//117
f 54//118 52//118 60//118 68//118
f 64//119 70//119 68//119 60//119
f 63//120 69//120 71//120 67//120
f 57//121 69//121 56//121
f 59//122 55//122 63//122
f 56//123 69//123 63//123 55//123
f 65//124 66//124 72//124
f 72//125 66//125 67//125
f 72//126 64//126 65//126
f 71//127 72//127 67//127
f 70//128 72//128 71//128
f 88//129 89//129 90//129
f 91//130 92//130 93//130
f 109//131 110//131 111//131
f 112//132 113//132 114//132
f 130//133 131//133 132//133
f 133//134 134//134 135//134
f 151//135 152//135 153//135
f 154//136 155//136 156//136
f 75//137 73//137 77//137
f 74//138 76//138 77//138
f 85//139 75//139 77//139 86//139
f 87//140 80//140 79//140 86//140
f 158//141 165//141 82//141 78//141
f 80//142 83//142 167//142 161//142
f 163//143 169//143 84//143 81//143
f 171//144 99//144 100//144 172//144
f 91//145 82//145 81//145 92//145
f 78//146 85//146 86//146 79//146
f 76//147 87//147 86//147 77//147
f 83//148 89//148 88//148 84//148
f 96//149 94//149 98//149
f 95//150 97//150 98//150
f 106//151 96//151 98//151 107//151
f 108//152 101//152 100//152 107//152
f 171//153 178//153 103//153 99//153
f 101//154 104//154 180//154 174//154
f 176//155 182//155 105//155 102//155
f 184//156 120//156 121//156 185//156
f 112//157 103//157 102//157 113//157
f 99//158 106//158 107//158 100//158
f 97//159 108//159 107//159 98//159
f 104//160 110//160 109//160 105//160
f 117//161 115//161 119//161
f 116//162 118//162 119//162
f 127//163 117//163 119//163 128//163
f 129//164 122//164 121//164 128//164
f 184//165 191//165 124//165 120//165
f 122//166 125//166 193//166 187//166
f 189//167 195//167 126//167 123//167
f 197//168 141//168 142//168 198//168
f 133//169 124//169 123//169 134//169
f 120//170 127//170 128//170 121//170
f 118//171 129//171 128//171 119//171
f 125//172 131//172 130//172 126//172
f 138//173 136//173 140//173
f 137//174 139//174 140//174
f 148//175 138//175 140//175 149//175
f 150//176 143//176 142//176 149//176
f 197//177 204//177 145//177 141//177
f 143//178 146//178 206//178 200//178
f 202//179 208//179 147//179 144//179
f 154//180 145//180 144//180 155//180
f 141//181 148//181 149//181 142//181
f 139//182 150//182 149//182 140//182
f 146//183 152//183 151//183 147//183
f 73//184 74//184 77//184
f 159//185 157//185 158//185
f 160//186 159//186 161//186
f 164//187 162//187 163//187 165//187
f 168//188 166//188 167//188 169//188
f 172//189 170//189 171//189
f 173//190 172//190 174//190
f 177//191 175//191 176//191 178//191
f 181//192 179//192 180//192 182//192
f 185//193 183//193 184//193
f 186//194 185//194 187//194
f 190//195 188//195 189//195 191//195
f 194//196 192//196 193//196 195//196
f 198//197 196//197 197//197
f 199//198 198//198 200//198
f 203//199 201//199 202//199 204//199
f 207//200 205//200 206//200 208//200
f 157//201 164//201 165//201 158//201
f 166//202 160//202 161//202 167//202
f 169//203 163//203 162//203 168//203
f 170//204 177//204 178//204 171//204
f 179//205 173//205 174//205 180//205
f 182//206 176//206 175//206 181//206
f 183//207 190//207 191//207 184//207
f 192//208 186//208 187//208 193//208
f 195//209 189//209 188//209 194//209
f 196//210 203//210 204//210 197//210
f 205//211 199//211 200//211 206//211
f 208//212 202//212 201//212 207//212
f 158//213 78//213 79//213 159//213
f 34//214 54//214 57//214
f 45//215 59//215 58//215
f 3//216 6//216 214//216 211//216
f 1//217 41//217 219//217 209//217
f 5//218 1//218 209//218 213//218
f 19//219 3//219 211//219 216//219
f 2//220 13//220 215//220 210//220
f 13//221 33//221 217//221 215//221
f 41//222 19//222 216//222 219//222
f 33//223 5//223 213//223 217//223
f 6//224 37//224 218//224 214//224
f 37//225 4//225 212//225 218//225
f 4//226 42//226 220//226 212//226
f 42//227 2//227 210//227 220//227
f 219//228 216//228 211//228 214//228 218//228 212//228 220//228 210//228 215//228 217//228 213//228 209//228
f 2//229 42//229 232//229 224//229
f 19//230 41//230 231//230 228//230
f 4//231 37//231 230//231 223//231
f 5//232 33//232 229//232 221//232
f 3//233 19//233 228//233 225//233
f 33//234 13//234 227//234 229//234
f 13//235 2//235 224//235 227//235
f 6//236 3//236 225//236 226//236
f 37//237 6//237 226//237 230//237
f 41//238 1//238 222//238 231//238
f 1//239 5//239 221//239 222//239
f 42//240 4//240 223//240 232//240
