# Blender v2.79 (sub 0) OBJ File: 'heart.blend'
# www.blender.org
mtllib Heart.mtl
o Plane
v 0.499887 0.394228 -0.389824
v 0.512908 0.393914 0.390188
v 0.483536 -0.028970 0.367511
v 0.469969 -0.031858 -0.367120
v 0.160466 0.801047 -0.084925
v 0.315536 0.867666 -0.087468
v 0.284573 0.716445 -0.327313
v 0.604019 0.868220 -0.088652
v 0.768198 0.817931 -0.090570
v 0.630015 0.715998 -0.328973
v 0.903075 0.328380 0.311821
v 0.892364 0.730713 -0.091088
v 0.968985 0.598261 -0.090810
v 0.822564 0.581447 -0.322644
v 0.991909 0.087473 0.087487
v 0.850853 0.060451 0.295116
v 0.937253 -0.043439 0.085029
v 0.975247 0.598548 0.087860
v 0.898550 0.730816 0.089045
v 0.826327 0.575784 0.324863
v 1.048798 0.348844 -0.091835
v 0.609789 0.867956 0.089445
v 0.638923 0.706490 0.331307
v 0.773993 0.817998 0.089866
v 0.321569 0.867163 0.089709
v 0.165433 0.802126 0.087706
v 0.304483 0.706688 0.330337
v 0.985191 0.087565 -0.091247
v 0.930624 -0.043166 -0.088907
v 0.844950 0.067891 -0.294403
v 0.466757 -0.597505 0.086320
v 0.599271 -0.428457 0.083389
v 0.475524 -0.415318 0.316869
v 0.461142 -0.600046 -0.088391
v 0.459117 -0.419208 -0.316137
v 0.592591 -0.430016 -0.086937
v 1.055381 0.349007 0.088287
v 0.898526 0.328407 -0.311506
v -0.499887 0.394228 -0.389824
v -0.512908 0.393914 0.390188
v 0.000000 0.084423 0.375041
v 0.000000 -0.477554 0.353907
v -0.483536 -0.028970 0.367511
v 0.000000 0.084346 -0.374670
v 0.000000 -0.477712 -0.353511
v -0.469969 -0.031858 -0.367120
v -0.160466 0.801047 -0.084925
v -0.315536 0.867666 -0.087468
v -0.284573 0.716445 -0.327313
v -0.604019 0.868220 -0.088652
v -0.768198 0.817931 -0.090570
v -0.630015 0.715998 -0.328973
v 0.000000 0.579568 -0.087008
v 0.000000 0.456632 -0.321071
v -0.903075 0.328380 0.311821
v 0.000000 -0.883039 -0.255019
v 0.000000 -1.031665 -0.084582
v -0.892364 0.730713 -0.091088
v -0.968985 0.598261 -0.090810
v -0.822564 0.581447 -0.322644
v -0.991909 0.087473 0.087487
v -0.850853 0.060451 0.295116
v -0.937253 -0.043439 0.085029
v -0.975247 0.598548 0.087860
v -0.898550 0.730816 0.089045
v -0.826327 0.575784 0.324863
v 0.000000 -1.032144 0.083426
v 0.000000 -0.885442 0.254486
v 0.000000 0.456707 0.321672
v 0.000000 0.579877 0.089557
v -1.048798 0.348844 -0.091835
v -0.609789 0.867956 0.089445
v -0.638923 0.706490 0.331307
v -0.773993 0.817998 0.089866
v -0.321569 0.867163 0.089709
v -0.165433 0.802126 0.087706
v -0.304483 0.706688 0.330337
v -0.985191 0.087565 -0.091247
v -0.930624 -0.043166 -0.088907
v -0.844950 0.067891 -0.294403
v -0.466757 -0.597505 0.086320
v -0.599271 -0.428457 0.083389
v -0.475524 -0.415318 0.316869
v -0.461142 -0.600046 -0.088391
v -0.459117 -0.419208 -0.316137
v -0.592591 -0.430016 -0.086937
v -1.055381 0.349007 0.088287
v -0.898526 0.328407 -0.311506
vn 0.0029 -0.0538 0.9986
vn 0.2070 -0.0665 -0.9761
vn -0.0045 0.1876 -0.9822
vn 0.9711 -0.2360 -0.0359
vn 0.0068 -0.0376 -0.9993
vn -0.0023 1.0000 0.0022
vn -0.1141 0.1410 0.9834
vn 0.1061 -0.2355 0.9661
vn 0.2086 -0.0668 0.9757
vn -0.0027 0.1862 0.9825
vn 0.2224 -0.1312 0.9661
vn 0.0067 -0.0376 0.9993
vn 0.6824 -0.7310 -0.0068
vn 0.0972 -0.1326 -0.9864
vn 0.5739 0.8187 -0.0195
vn -0.1184 0.1100 0.9869
vn 0.0941 -0.1313 0.9869
vn 0.1952 0.0154 -0.9806
vn 0.1272 0.1339 0.9828
vn -0.1175 0.1415 -0.9829
vn 0.1085 -0.2347 -0.9660
vn 0.1264 0.1347 -0.9828
vn -0.1220 0.1099 -0.9864
vn 0.1985 0.0099 0.9800
vn 0.0028 -0.0534 -0.9986
vn 0.2227 -0.1333 -0.9657
vn -0.3559 0.8106 -0.4651
vn 0.2485 0.8302 -0.4990
vn 0.7482 0.4317 -0.5038
vn 0.7973 -0.3422 0.4971
vn 0.7461 0.4281 0.5099
vn 0.1805 -0.0962 0.9789
vn 0.2479 0.8193 0.5171
vn -0.3373 0.7941 0.5056
vn 0.7893 -0.3386 -0.5121
vn 0.7202 -0.5574 0.4131
vn 0.7121 -0.5467 -0.4405
vn -0.6621 0.6084 -0.4375
vn 0.5750 -0.6289 -0.5233
vn 0.8206 -0.1970 0.5365
vn -0.0014 0.8318 0.5551
vn -0.6292 0.6194 0.4695
vn 0.4766 0.6631 0.5773
vn 0.5772 -0.6379 0.5098
vn -0.0025 0.8454 -0.5342
vn 0.4786 0.6686 -0.5692
vn 0.6846 -0.5563 0.4711
vn 0.8161 -0.2016 -0.5416
vn 0.6751 -0.5480 -0.4940
vn 0.7520 -0.6586 -0.0266
vn 0.9222 -0.3850 -0.0353
vn 0.7889 -0.6142 -0.0208
vn 0.2919 0.9564 -0.0089
vn 0.8649 0.5010 -0.0306
vn -0.3896 0.9209 0.0107
vn 0.8021 0.2393 0.5472
vn 0.1758 -0.1004 -0.9793
vn 0.8026 0.2378 -0.5470
vn -0.8059 0.5919 0.0091
vn 0.9517 0.3051 -0.0345
vn -0.0029 -0.0538 0.9986
vn -0.2070 -0.0665 -0.9761
vn 0.0045 0.1876 -0.9822
vn -0.9711 -0.2360 -0.0359
vn -0.0068 -0.0376 -0.9993
vn 0.0023 1.0000 0.0022
vn 0.1141 0.1410 0.9834
vn -0.1061 -0.2355 0.9661
vn -0.2086 -0.0668 0.9757
vn 0.0027 0.1862 0.9825
vn -0.2224 -0.1312 0.9661
vn -0.0067 -0.0376 0.9993
vn -0.6824 -0.7310 -0.0068
vn -0.0972 -0.1326 -0.9864
vn -0.5739 0.8187 -0.0195
vn 0.1184 0.1100 0.9869
vn -0.0941 -0.1313 0.9869
vn -0.1952 0.0154 -0.9806
vn -0.1272 0.1339 0.9828
vn 0.1175 0.1415 -0.9829
vn -0.1085 -0.2347 -0.9660
vn -0.1264 0.1347 -0.9828
vn 0.1220 0.1099 -0.9864
vn -0.1985 0.0099 0.9800
vn -0.0028 -0.0534 -0.9986
vn -0.2227 -0.1333 -0.9657
vn 0.3559 0.8106 -0.4651
vn -0.2485 0.8302 -0.4990
vn -0.7482 0.4317 -0.5038
vn -0.7973 -0.3422 0.4971
vn -0.7461 0.4281 0.5099
vn -0.1805 -0.0962 0.9789
vn -0.2479 0.8193 0.5171
vn 0.3373 0.7941 0.5056
vn -0.7893 -0.3386 -0.5121
vn -0.7202 -0.5574 0.4131
vn -0.7121 -0.5467 -0.4405
vn 0.6621 0.6084 -0.4375
vn -0.5750 -0.6289 -0.5233
vn -0.8206 -0.1970 0.5365
vn 0.0014 0.8318 0.5551
vn 0.6292 0.6194 0.4695
vn -0.4766 0.6631 0.5773
vn -0.5772 -0.6379 0.5098
vn 0.0025 0.8454 -0.5342
vn -0.4786 0.6686 -0.5692
vn -0.6846 -0.5563 0.4711
vn -0.8161 -0.2016 -0.5416
vn -0.6751 -0.5480 -0.4940
vn -0.7520 -0.6586 -0.0266
vn -0.9222 -0.3850 -0.0353
vn -0.7889 -0.6142 -0.0208
vn -0.2919 0.9564 -0.0089
vn -0.8649 0.5010 -0.0306
vn 0.3896 0.9209 0.0107
vn -0.8021 0.2393 0.5472
vn -0.1758 -0.1004 -0.9793
vn -0.8026 0.2378 -0.5470
vn 0.8059 0.5919 0.0091
vn -0.9517 0.3051 -0.0345
usemtl None
s off
f 41//1 3//1 2//1
f 1//2 30//2 4//2
f 7//3 10//3 1//3
f 15//4 28//4 21//4 37//4
f 44//5 4//5 45//5
f 22//6 8//6 6//6 25//6
f 69//7 41//7 2//7
f 33//8 42//8 68//8
f 2//9 3//9 16//9
f 27//10 2//10 23//10
f 3//11 33//11 16//11
f 41//12 42//12 3//12
f 67//13 57//13 34//13 31//13
f 35//14 45//14 4//14
f 19//15 12//15 9//15 24//15
f 27//16 69//16 2//16
f 33//17 3//17 42//17
f 14//18 38//18 1//18
f 23//19 2//19 20//19
f 54//20 1//20 44//20
f 35//21 56//21 45//21
f 10//22 14//22 1//22
f 7//23 1//23 54//23
f 20//24 2//24 11//24
f 44//25 1//25 4//25
f 4//26 30//26 35//26
f 5//27 6//27 7//27
f 8//28 9//28 10//28
f 12//29 13//29 14//29
f 15//30 16//30 17//30
f 18//31 19//31 20//31
f 11//32 2//32 16//32
f 22//33 23//33 24//33
f 25//34 26//34 27//34
f 28//35 29//35 30//35
f 31//36 32//36 33//36
f 34//37 35//37 36//37
f 53//38 5//38 7//38 54//38
f 34//39 57//39 56//39 35//39
f 15//40 37//40 11//40 16//40
f 22//41 25//41 27//41 23//41
f 69//42 27//42 26//42 70//42
f 23//43 20//43 19//43 24//43
f 33//44 68//44 67//44 31//44
f 10//45 7//45 6//45 8//45
f 9//46 12//46 14//46 10//46
f 16//47 33//47 32//47 17//47
f 30//48 38//48 21//48 28//48
f 29//49 36//49 35//49 30//49
f 32//50 36//50 29//50 17//50
f 17//51 29//51 28//51 15//51
f 36//52 32//52 31//52 34//52
f 24//53 9//53 8//53 22//53
f 12//54 19//54 18//54 13//54
f 25//55 6//55 5//55 26//55
f 11//56 37//56 18//56 20//56
f 1//57 38//57 30//57
f 21//58 38//58 14//58 13//58
f 26//59 5//59 53//59 70//59
f 37//60 21//60 13//60 18//60
f 41//61 40//61 43//61
f 39//62 46//62 80//62
f 49//63 39//63 52//63
f 61//64 87//64 71//64 78//64
f 44//65 45//65 46//65
f 72//66 75//66 48//66 50//66
f 69//67 40//67 41//67
f 83//68 68//68 42//68
f 40//69 62//69 43//69
f 77//70 73//70 40//70
f 43//71 62//71 83//71
f 41//72 43//72 42//72
f 67//73 81//73 84//73 57//73
f 85//74 46//74 45//74
f 65//75 74//75 51//75 58//75
f 77//76 40//76 69//76
f 83//77 42//77 43//77
f 60//78 39//78 88//78
f 73//79 66//79 40//79
f 54//80 44//80 39//80
f 85//81 45//81 56//81
f 52//82 39//82 60//82
f 49//83 54//83 39//83
f 66//84 55//84 40//84
f 44//85 46//85 39//85
f 46//86 85//86 80//86
f 47//87 49//87 48//87
f 50//88 52//88 51//88
f 58//89 60//89 59//89
f 61//90 63//90 62//90
f 64//91 66//91 65//91
f 55//92 62//92 40//92
f 72//93 74//93 73//93
f 75//94 77//94 76//94
f 78//95 80//95 79//95
f 81//96 83//96 82//96
f 84//97 86//97 85//97
f 53//98 54//98 49//98 47//98
f 84//99 85//99 56//99 57//99
f 61//100 62//100 55//100 87//100
f 72//101 73//101 77//101 75//101
f 69//102 70//102 76//102 77//102
f 73//103 74//103 65//103 66//103
f 83//104 81//104 67//104 68//104
f 52//105 50//105 48//105 49//105
f 51//106 52//106 60//106 58//106
f 62//107 63//107 82//107 83//107
f 80//108 78//108 71//108 88//108
f 79//109 80//109 85//109 86//109
f 82//110 63//110 79//110 86//110
f 63//111 61//111 78//111 79//111
f 86//112 84//112 81//112 82//112
f 74//113 72//113 50//113 51//113
f 58//114 59//114 64//114 65//114
f 75//115 76//115 47//115 48//115
f 55//116 66//116 64//116 87//116
f 39//117 80//117 88//117
f 71//118 59//118 60//118 88//118
f 76//119 70//119 53//119 47//119
f 87//120 64//120 59//120 71//120
