# Blender v2.79 (sub 0) OBJ File: 'HummingBird.blend'
# www.blender.org
mtllib HummingBird.mtl
o Circle
v 0.363034 -0.807103 0.429258
v 0.569207 -0.557908 -0.001617
v 0.270533 -0.288533 -0.468249
v 0.340081 0.093248 0.933475
v 0.480947 0.372444 0.739298
v 0.276881 0.677475 0.527924
v 0.284322 -1.699127 -0.375890
v 0.461379 -1.447566 -0.721482
v 0.204884 -1.178902 -1.096664
v 0.307484 0.464881 1.690708
v 0.116429 -3.077052 -1.997859
v 0.177680 -3.010015 -2.115808
v 0.088948 -2.944724 -2.248028
v 0.440416 -1.603132 -1.083305
v 0.253547 -1.435887 -1.334330
v 0.311421 -1.761579 -0.853100
v 0.273222 0.910070 1.651998
v 0.390422 0.690259 1.647503
v 0.083403 0.612428 1.991631
v 0.206074 0.581253 1.842516
v 0.329113 0.483575 1.491477
v 0.451426 0.701899 1.444169
v 0.298037 0.958035 1.463969
v 0.411031 0.254047 1.135356
v 0.103132 0.497564 1.934744
v 0.334645 1.067703 1.010310
v 0.581286 0.642861 1.075492
v 0.058014 0.377768 2.582686
v 0.072211 0.363216 2.570671
v 0.057974 0.341466 2.585589
v 0.025939 0.154362 3.042052
v 0.030411 0.155189 3.013324
v 0.026014 0.124288 3.029408
v 0.143580 0.549156 1.978809
v 0.267770 -0.258540 -0.521392
v 0.182951 0.715871 0.502366
v 0.086823 -1.153483 -1.140642
v 0.048106 -2.947321 -2.269236
v 0.167533 -1.422812 -1.365273
v 0.180534 0.977853 1.672840
v 0.196931 1.055012 1.443016
v 0.221120 1.121248 1.002406
v 0.055109 0.629788 2.002458
v 0.031210 0.387320 2.599767
v 0.013954 0.155503 3.053200
v 0.539123 -0.827148 -0.219471
v 0.253214 -0.557988 -0.658428
v 0.341761 -1.077059 0.185594
v 0.256326 -0.529380 -0.708797
v 0.578004 -0.032527 0.416786
v 0.332756 0.256983 0.094302
v 0.408711 -0.298664 0.713995
v 0.219872 0.291721 0.056737
v 0.308566 0.089352 -0.825717
v 0.499913 0.047607 -0.751749
v 0.399018 0.380068 -0.068154
v 0.475807 -0.754259 -1.115849
v 0.241899 0.428419 -0.120439
v 0.292637 -0.714440 -1.185956
v 1.691767 1.726053 -3.090834
v 1.667485 1.506952 -3.321031
v 1.734150 1.399110 -3.395652
v 1.785074 1.387719 -3.375596
v 1.794613 1.495010 -3.299871
v 0.837372 1.171021 -1.616093
v 0.937219 0.443007 -2.294839
v 1.069699 1.013209 -1.824299
v 0.933150 1.140221 -1.582787
v 0.953946 1.039801 -1.995710
v 1.048297 0.417642 -2.250180
v 0.048098 -3.429068 -2.384531
v 0.069903 -3.407285 -2.420282
v 0.044612 -3.393750 -2.443531
v 0.023776 -3.400979 -2.458376
v 0.309048 -2.279775 -1.687260
v 0.171247 -2.163507 -1.878882
v 0.213925 -2.392517 -1.513182
v 0.107820 -2.158268 -1.904958
v 1.377735 1.522051 -2.548794
v 2.145790 1.773564 -3.919286
v 2.162546 1.765633 -3.912562
v 2.196716 1.799170 -3.975069
v 2.159922 1.812795 -3.861722
v 2.140306 1.819204 -3.873061
v 2.157155 1.864812 -3.848831
v 2.192458 1.847974 -3.923922
v 2.163056 1.731125 -3.938523
v 2.172200 1.728100 -3.933291
v 2.209322 1.763980 -3.992160
v 0.000000 -0.200122 -0.624901
v 0.000000 -0.910323 0.607732
v -0.363034 -0.807103 0.429258
v -0.569207 -0.557908 -0.001617
v -0.270533 -0.288533 -0.468249
v 0.000000 0.790659 0.452586
v 0.000000 -0.022398 1.013906
v -0.340081 0.093248 0.933475
v -0.480947 0.372444 0.739298
v -0.276881 0.677475 0.527924
v 0.000000 -1.103973 -1.226300
v 0.000000 -1.803327 -0.232741
v -0.284322 -1.699127 -0.375890
v -0.461379 -1.447566 -0.721482
v -0.204884 -1.178902 -1.096664
v 0.000000 -2.952379 -2.310545
v -0.307484 0.464881 1.690708
v 0.000000 -3.104820 -1.949003
v -0.116429 -3.077052 -1.997859
v -0.177680 -3.010015 -2.115808
v -0.088948 -2.944724 -2.248028
v -0.440416 -1.603132 -1.083305
v -0.253547 -1.435887 -1.334330
v 0.000000 -1.827210 -0.757746
v -0.311421 -1.761579 -0.853100
v 0.000000 1.109879 1.713437
v -0.273222 0.910070 1.651998
v 0.000000 -1.397345 -1.425542
v -0.390422 0.690259 1.647503
v 0.000000 1.243900 1.402205
v 0.000000 0.297475 1.785231
v -0.083403 0.612428 1.991631
v -0.206074 0.581253 1.842516
v 0.000000 0.269270 1.648546
v -0.329113 0.483575 1.491477
v -0.451426 0.701899 1.444169
v -0.298037 0.958035 1.463969
v -0.411031 0.254047 1.135356
v 0.000000 0.092994 1.160152
v -0.103132 0.497564 1.934744
v 0.000000 0.408988 2.110019
v 0.000000 0.663601 2.023547
v 0.000000 1.225540 0.987012
v -0.334645 1.067703 1.010310
v -0.581286 0.642861 1.075492
v -0.058014 0.377768 2.582686
v -0.072211 0.363216 2.570671
v -0.057974 0.341466 2.585589
v 0.000000 0.314081 2.593635
v 0.000000 0.398442 2.619654
v -0.025939 0.154362 3.042052
v -0.030411 0.155189 3.013324
v -0.026014 0.124288 3.029408
v 0.000000 0.101952 3.035144
v 0.000000 0.156831 3.066179
v -0.143580 0.549156 1.978809
v 0.000000 0.032892 3.226186
v 0.000000 0.020432 3.218316
v -0.267770 -0.258540 -0.521392
v -0.182951 0.715871 0.502366
v -0.086823 -1.153483 -1.140642
v -0.048106 -2.947321 -2.269236
v -0.167533 -1.422812 -1.365273
v -0.180534 0.977853 1.672840
v -0.196931 1.055012 1.443016
v -0.221120 1.121248 1.002406
v -0.055109 0.629788 2.002458
v -0.031210 0.387320 2.599767
v -0.013954 0.155503 3.053200
v -0.539123 -0.827148 -0.219471
v -0.253214 -0.557988 -0.658428
v 0.000000 -1.180576 0.353377
v -0.341761 -1.077059 0.185594
v 0.000000 -0.473657 -0.806904
v -0.256326 -0.529380 -0.708797
v -0.578004 -0.032527 0.416786
v -0.332756 0.256983 0.094302
v 0.000000 -0.408902 0.837103
v -0.408711 -0.298664 0.713995
v 0.000000 0.359383 -0.016431
v -0.219872 0.291721 0.056737
v -0.308566 0.089352 -0.825717
v -0.499913 0.047607 -0.751749
v -0.399018 0.380068 -0.068154
v -0.475807 -0.754259 -1.115849
v -0.241899 0.428419 -0.120439
v -0.292637 -0.714440 -1.185956
v -1.691767 1.726053 -3.090834
v -1.667485 1.506952 -3.321031
v -1.734150 1.399110 -3.395652
v -1.785074 1.387719 -3.375596
v -1.794613 1.495010 -3.299871
v -0.837372 1.171021 -1.616093
v -0.937219 0.443007 -2.294839
v -1.069699 1.013209 -1.824299
v -0.933150 1.140221 -1.582787
v -0.953946 1.039801 -1.995710
v -1.048297 0.417642 -2.250180
v 0.000000 -3.418999 -2.461105
v 0.000000 -3.438090 -2.369723
v -0.048098 -3.429068 -2.384531
v -0.069903 -3.407285 -2.420282
v -0.044612 -3.393750 -2.443531
v -0.023776 -3.400979 -2.458376
v 0.000000 -3.471868 -2.451314
v -0.309048 -2.279775 -1.687260
v 0.000000 -2.439217 -1.441077
v 0.000000 -2.148063 -1.955747
v -0.171247 -2.163507 -1.878882
v -0.213925 -2.392517 -1.513182
v -0.107820 -2.158268 -1.904958
v -1.377735 1.522051 -2.548794
v -2.145790 1.773564 -3.919286
v -2.162546 1.765633 -3.912562
v -2.196716 1.799170 -3.975069
v -2.159922 1.812795 -3.861722
v -2.140306 1.819204 -3.873061
v -2.157155 1.864812 -3.848831
v -2.192458 1.847974 -3.923922
v -2.163056 1.731125 -3.938523
v -2.172200 1.728100 -3.933291
v -2.209322 1.763980 -3.992160
vn 0.8694 0.4115 -0.2734
vn 0.4232 0.6753 -0.6041
vn 0.8734 0.2346 -0.4269
vn 0.6868 0.3318 -0.6467
vn 0.8476 0.1490 -0.5093
vn 0.8458 0.4677 0.2567
vn 0.3929 0.3597 -0.8463
vn 0.6173 0.7263 0.3022
vn 0.3649 0.6634 -0.6532
vn 0.8437 0.4597 -0.2773
vn 0.5675 0.8211 0.0620
vn 0.6938 0.2497 0.6755
vn 0.5235 0.4827 0.7021
vn 0.8387 0.5061 0.2009
vn 0.8293 0.3457 -0.4391
vn 0.4056 0.7021 -0.5853
vn 0.4032 0.6915 -0.5994
vn 0.5214 0.4780 0.7068
vn 0.5450 0.8149 0.1973
vn 0.5307 0.5572 -0.6387
vn 0.6217 0.7314 0.2803
vn 0.4859 0.3443 -0.8033
vn 0.5252 0.4281 -0.7355
vn 0.4231 0.6702 -0.6097
vn 0.4034 0.5080 -0.7611
vn -0.4709 -0.8547 0.2183
vn 0.8744 0.2417 -0.4207
vn 0.3990 0.6777 -0.6177
vn 0.0386 0.7888 0.6134
vn 0.8714 0.2987 -0.3891
vn -0.8409 0.4336 -0.3240
vn 0.9070 -0.3305 0.2610
vn -0.9941 0.0681 -0.0839
vn 0.8434 -0.2722 0.4631
vn -0.9941 0.0241 -0.1054
vn -0.7978 0.3791 -0.4689
vn -0.7730 -0.0361 -0.6334
vn -0.7785 0.4936 -0.3876
vn 0.8879 0.1014 0.4487
vn -0.8660 0.3265 -0.3788
vn 0.1423 0.8964 0.4198
vn -0.8785 0.1738 -0.4450
vn -0.9188 0.1855 -0.3485
vn 0.1114 0.8718 0.4770
vn -0.9282 0.2576 -0.2685
vn 0.9408 -0.1375 0.3097
vn 0.4250 0.3036 -0.8528
vn 0.4385 0.3239 -0.8384
vn 0.8331 0.1626 -0.5286
vn 0.2433 -0.1766 -0.9537
vn 0.6196 -0.2808 -0.7329
vn 0.5780 -0.2528 -0.7759
vn 0.6846 -0.7284 -0.0263
vn 0.2795 -0.8871 0.3673
vn 0.3752 0.5316 -0.7594
vn 0.3578 0.5333 -0.7665
vn 0.8501 0.2498 -0.4636
vn -0.8640 0.3790 -0.3316
vn -0.7277 0.5116 -0.4568
vn -0.7524 0.0186 -0.6584
vn -0.7476 0.4378 -0.4994
vn -0.8694 0.4115 -0.2734
vn -0.4232 0.6753 -0.6041
vn -0.8734 0.2346 -0.4269
vn -0.6868 0.3318 -0.6467
vn -0.8476 0.1490 -0.5093
vn -0.8458 0.4677 0.2567
vn -0.3929 0.3597 -0.8463
vn -0.6173 0.7263 0.3022
vn -0.3649 0.6634 -0.6532
vn -0.8437 0.4597 -0.2773
vn -0.5675 0.8211 0.0620
vn -0.6938 0.2497 0.6755
vn -0.5235 0.4827 0.7021
vn -0.8387 0.5061 0.2009
vn -0.8293 0.3457 -0.4391
vn -0.4056 0.7021 -0.5853
vn -0.4032 0.6915 -0.5994
vn -0.5214 0.4780 0.7068
vn -0.5450 0.8149 0.1973
vn -0.5307 0.5572 -0.6387
vn -0.6217 0.7314 0.2803
vn -0.4859 0.3443 -0.8033
vn -0.5252 0.4281 -0.7355
vn -0.4231 0.6702 -0.6097
vn -0.4034 0.5080 -0.7611
vn 0.4709 -0.8547 0.2183
vn -0.8744 0.2417 -0.4207
vn -0.3990 0.6777 -0.6177
vn -0.0386 0.7888 0.6134
vn -0.8714 0.2987 -0.3891
vn 0.8409 0.4336 -0.3240
vn -0.9070 -0.3305 0.2610
vn 0.9941 0.0681 -0.0839
vn -0.8434 -0.2722 0.4631
vn 0.9941 0.0241 -0.1054
vn 0.7978 0.3791 -0.4689
vn 0.7730 -0.0361 -0.6334
vn 0.7785 0.4936 -0.3876
vn -0.8879 0.1014 0.4487
vn 0.8660 0.3265 -0.3788
vn -0.1423 0.8964 0.4198
vn 0.8785 0.1738 -0.4450
vn 0.9188 0.1855 -0.3485
vn -0.1114 0.8718 0.4770
vn 0.9282 0.2576 -0.2685
vn -0.9408 -0.1375 0.3097
vn -0.4250 0.3036 -0.8528
vn -0.4385 0.3239 -0.8384
vn -0.8331 0.1626 -0.5286
vn -0.2433 -0.1766 -0.9537
vn -0.6196 -0.2808 -0.7329
vn -0.5780 -0.2528 -0.7759
vn -0.6846 -0.7284 -0.0263
vn -0.2795 -0.8871 0.3673
vn -0.3752 0.5316 -0.7594
vn -0.3578 0.5333 -0.7665
vn -0.8501 0.2498 -0.4636
vn 0.8640 0.3790 -0.3316
vn 0.7277 0.5116 -0.4568
vn 0.7524 0.0186 -0.6584
vn 0.7476 0.4378 -0.4994
vn 0.5553 0.7612 0.3349
vn 0.4331 -0.8835 -0.1782
vn 0.4233 -0.8211 -0.3829
vn 0.9147 -0.3887 -0.1103
vn 0.5068 0.7589 0.4089
vn 0.8755 0.4042 0.2650
vn 0.7372 0.6154 0.2791
vn 0.8143 -0.5747 -0.0818
vn 0.7053 -0.6904 0.1608
vn 0.6909 0.5659 0.4500
vn 0.5419 0.6644 0.5146
vn 0.5706 -0.7503 -0.3339
vn 0.9929 -0.0441 0.1108
vn 0.9928 -0.0641 0.1015
vn 0.9865 -0.0613 0.1518
vn 0.5057 0.7608 0.4067
vn 0.5444 0.7704 0.3319
vn -0.5553 0.7612 0.3349
vn -0.4331 -0.8835 -0.1782
vn -0.4233 -0.8211 -0.3829
vn -0.9147 -0.3887 -0.1103
vn -0.5068 0.7589 0.4089
vn -0.8755 0.4042 0.2650
vn -0.7372 0.6154 0.2791
vn -0.8143 -0.5747 -0.0818
vn -0.7053 -0.6904 0.1608
vn -0.6909 0.5659 0.4500
vn -0.5419 0.6644 0.5146
vn -0.5706 -0.7503 -0.3339
vn -0.9929 -0.0441 0.1108
vn -0.9928 -0.0641 0.1015
vn -0.9865 -0.0613 0.1518
vn -0.5057 0.7608 0.4067
vn -0.5444 0.7704 0.3319
vn 0.3508 -0.4001 0.8467
vn 0.8919 -0.1125 0.4381
vn 0.5069 -0.5968 0.6220
vn 0.9168 -0.3125 0.2485
vn 0.3931 -0.5629 0.7271
vn 0.5302 -0.8459 0.0581
vn 0.9020 -0.3275 0.2814
vn 0.9081 -0.3880 0.1572
vn 0.8728 -0.4708 0.1287
vn 0.3062 -0.9477 0.0899
vn 0.4905 -0.7659 0.4156
vn 0.6593 -0.6376 0.3985
vn 0.7521 -0.1738 0.6357
vn 0.8556 -0.3440 0.3869
vn 0.9113 -0.4099 0.0384
vn 0.3570 -0.7658 0.5348
vn 0.9157 -0.3081 0.2581
vn 0.4873 -0.6022 0.6324
vn 0.9212 -0.2509 0.2975
vn 0.4290 -0.4251 0.7970
vn 0.8639 -0.3463 0.3658
vn 0.8559 -0.0810 0.5107
vn 0.0112 -0.8570 -0.5152
vn 0.0725 -0.7784 -0.6236
vn 0.8948 -0.2848 0.3439
vn 0.9354 -0.1966 0.2938
vn 0.1088 -0.7185 -0.6870
vn 0.3846 -0.7196 0.5782
vn 0.8775 -0.4199 0.2316
vn 0.8922 -0.3848 0.2365
vn 0.3483 -0.7005 0.6229
vn 0.8720 0.0930 0.4806
vn 0.8981 -0.0602 0.4357
vn 0.8622 0.0004 0.5066
vn 0.9019 -0.2826 0.3267
vn 0.8669 -0.2759 0.4152
vn -0.3508 -0.4001 0.8467
vn -0.8919 -0.1125 0.4381
vn -0.5069 -0.5968 0.6220
vn -0.9168 -0.3125 0.2485
vn -0.3931 -0.5629 0.7271
vn -0.5302 -0.8459 0.0581
vn -0.9020 -0.3275 0.2814
vn -0.9081 -0.3880 0.1572
vn -0.8728 -0.4708 0.1287
vn -0.3062 -0.9477 0.0899
vn -0.4905 -0.7659 0.4156
vn -0.6593 -0.6376 0.3985
vn -0.7521 -0.1738 0.6357
vn -0.8556 -0.3440 0.3869
vn -0.9113 -0.4099 0.0384
vn -0.3570 -0.7658 0.5348
vn -0.9157 -0.3081 0.2581
vn -0.4873 -0.6022 0.6324
vn -0.9212 -0.2509 0.2975
vn -0.4290 -0.4251 0.7970
vn -0.8639 -0.3463 0.3658
vn -0.8559 -0.0810 0.5107
vn -0.0112 -0.8570 -0.5152
vn -0.0725 -0.7784 -0.6236
vn -0.8948 -0.2848 0.3439
vn -0.9354 -0.1966 0.2938
vn -0.1088 -0.7185 -0.6870
vn -0.3846 -0.7196 0.5782
vn -0.8775 -0.4199 0.2316
vn -0.8922 -0.3848 0.2365
vn -0.3483 -0.7005 0.6229
vn -0.8720 0.0930 0.4806
vn -0.8981 -0.0602 0.4357
vn -0.8622 0.0004 0.5066
vn -0.9019 -0.2826 0.3267
vn -0.8669 -0.2759 0.4152
usemtl Material.001
s off
f 51//1 6//1 5//1 50//1
f 53//2 36//2 6//2 51//2
f 47//3 46//3 8//3 9//3
f 49//4 47//4 9//4 37//4
f 76//5 75//5 12//5 13//5
f 22//6 23//6 17//6 18//6
f 78//7 76//7 13//7 38//7
f 41//8 119//8 115//8 40//8
f 37//9 9//9 15//9 39//9
f 9//10 8//10 14//10 15//10
f 42//11 132//11 119//11 41//11
f 18//12 17//12 19//12 20//12
f 40//13 115//13 131//13 43//13
f 27//14 26//14 23//14 22//14
f 5//15 6//15 26//15 27//15
f 36//16 95//16 132//16 42//16
f 6//17 36//17 42//17 26//17
f 17//18 40//18 43//18 19//18
f 26//19 42//19 41//19 23//19
f 100//20 37//20 39//20 117//20
f 23//21 41//21 40//21 17//21
f 197//22 78//22 38//22 105//22
f 163//23 49//23 37//23 100//23
f 169//24 95//24 36//24 53//24
f 90//25 35//25 49//25 163//25
f 47//26 49//26 59//26 57//26
f 3//27 2//27 46//27 47//27
f 90//28 169//28 53//28 35//28
f 53//29 51//29 56//29 58//29
f 3//30 51//30 50//30 2//30
f 79//31 60//31 61//31
f 51//32 3//32 55//32 56//32
f 49//33 35//33 54//33 59//33
f 3//34 47//34 57//34 55//34
f 35//35 53//35 58//35 54//35
f 61//36 84//36 80//36
f 62//37 61//37 80//37 87//37
f 61//38 60//38 85//38 84//38
f 68//39 67//39 79//39
f 69//40 65//40 79//40
f 65//41 68//41 79//41
f 66//42 69//42 61//42 62//42
f 59//43 54//43 69//43 66//43
f 58//44 56//44 68//44 65//44
f 54//45 58//45 65//45 69//45
f 56//46 55//46 67//46 68//46
f 105//47 38//47 74//47 188//47
f 38//48 13//48 73//48 74//48
f 13//49 12//49 72//49 73//49
f 74//50 194//50 188//50
f 73//51 194//51 74//51
f 72//52 194//52 73//52
f 71//53 194//53 72//53
f 189//54 194//54 71//54
f 117//55 39//55 78//55 197//55
f 39//56 15//56 76//56 78//56
f 15//57 14//57 75//57 76//57
f 79//58 61//58 69//58
f 86//59 84//59 85//59
f 87//60 80//60 82//60 89//60
f 86//61 82//61 80//61 84//61
f 166//62 165//62 98//62 99//62
f 170//63 166//63 99//63 149//63
f 160//64 104//64 103//64 159//64
f 164//65 150//65 104//65 160//65
f 198//66 110//66 109//66 195//66
f 125//67 118//67 116//67 126//67
f 200//68 151//68 110//68 198//68
f 154//69 153//69 115//69 119//69
f 150//70 152//70 112//70 104//70
f 104//71 112//71 111//71 103//71
f 155//72 154//72 119//72 132//72
f 118//73 122//73 121//73 116//73
f 153//74 156//74 131//74 115//74
f 134//75 125//75 126//75 133//75
f 98//76 134//76 133//76 99//76
f 149//77 155//77 132//77 95//77
f 99//78 133//78 155//78 149//78
f 116//79 121//79 156//79 153//79
f 133//80 126//80 154//80 155//80
f 100//81 117//81 152//81 150//81
f 126//82 116//82 153//82 154//82
f 197//83 105//83 151//83 200//83
f 163//84 100//84 150//84 164//84
f 169//85 170//85 149//85 95//85
f 90//86 163//86 164//86 148//86
f 160//87 174//87 176//87 164//87
f 94//88 160//88 159//88 93//88
f 90//89 148//89 170//89 169//89
f 170//90 175//90 173//90 166//90
f 94//91 93//91 165//91 166//91
f 201//92 178//92 177//92
f 166//93 173//93 172//93 94//93
f 164//94 176//94 171//94 148//94
f 94//95 172//95 174//95 160//95
f 148//96 171//96 175//96 170//96
f 178//97 202//97 206//97
f 179//98 209//98 202//98 178//98
f 178//99 206//99 207//99 177//99
f 185//100 201//100 184//100
f 186//101 201//101 182//101
f 182//102 201//102 185//102
f 183//103 179//103 178//103 186//103
f 176//104 183//104 186//104 171//104
f 175//105 182//105 185//105 173//105
f 171//106 186//106 182//106 175//106
f 173//107 185//107 184//107 172//107
f 105//108 188//108 193//108 151//108
f 151//109 193//109 192//109 110//109
f 110//110 192//110 191//110 109//110
f 193//111 188//111 194//111
f 192//112 193//112 194//112
f 191//113 192//113 194//113
f 190//114 191//114 194//114
f 189//115 190//115 194//115
f 117//116 197//116 200//116 152//116
f 152//117 200//117 198//117 112//117
f 112//118 198//118 195//118 111//118
f 201//119 186//119 178//119
f 208//120 207//120 206//120
f 209//121 211//121 204//121 202//121
f 208//122 206//122 202//122 204//122
usemtl Material.002
f 43//123 131//123 139//123 44//123
f 130//124 25//124 30//124 138//124
f 138//125 30//125 33//125 143//125
f 30//126 29//126 32//126 33//126
f 44//127 139//127 144//127 45//127
f 29//128 28//128 31//128 32//128
f 29//129 34//129 19//129 28//129
f 30//130 25//130 34//130 29//130
f 25//131 20//131 34//131
f 20//132 19//132 34//132
f 31//133 45//133 144//133 146//133
f 143//134 33//134 147//134
f 31//135 146//135 33//135
f 147//136 33//136 146//136
f 32//137 31//137 33//137
f 28//138 44//138 45//138 31//138
f 19//139 43//139 44//139 28//139
f 156//140 157//140 139//140 131//140
f 130//141 138//141 137//141 129//141
f 138//142 143//142 142//142 137//142
f 137//143 142//143 141//143 136//143
f 157//144 158//144 144//144 139//144
f 136//145 141//145 140//145 135//145
f 136//146 135//146 121//146 145//146
f 137//147 136//147 145//147 129//147
f 129//148 145//148 122//148
f 122//149 145//149 121//149
f 140//150 146//150 144//150 158//150
f 143//151 147//151 142//151
f 140//152 142//152 146//152
f 147//153 146//153 142//153
f 141//154 142//154 140//154
f 135//155 140//155 158//155 157//155
f 121//156 135//156 157//156 156//156
usemtl Material.003
f 52//157 4//157 96//157 167//157
f 50//158 5//158 4//158 52//158
f 48//159 161//159 101//159 7//159
f 46//160 48//160 7//160 8//160
f 77//161 196//161 107//161 11//161
f 123//162 21//162 10//162 120//162
f 75//163 77//163 11//163 12//163
f 21//164 22//164 18//164 10//164
f 8//165 7//165 16//165 14//165
f 7//166 101//166 113//166 16//166
f 128//167 24//167 21//167 123//167
f 120//168 10//168 25//168 130//168
f 10//169 18//169 20//169 25//169
f 24//170 27//170 22//170 21//170
f 4//171 5//171 27//171 24//171
f 96//172 4//172 24//172 128//172
f 2//173 1//173 48//173 46//173
f 1//174 91//174 161//174 48//174
f 2//175 50//175 52//175 1//175
f 1//176 52//176 167//176 91//176
f 64//177 81//177 83//177
f 64//178 83//178 85//178 60//178
f 87//179 89//179 88//179
f 88//179 63//179 87//179
f 70//180 66//180 62//180 63//180
f 67//181 70//181 63//181 64//181
f 55//182 57//182 70//182 67//182
f 57//183 59//183 66//183 70//183
f 11//184 107//184 189//184 71//184
f 12//185 11//185 71//185 72//185
f 14//186 16//186 77//186 75//186
f 16//187 113//187 196//187 77//187
f 79//188 67//188 64//188 60//188
f 83//189 86//189 85//189
f 89//190 82//190 81//190 88//190
f 83//191 81//191 82//191 86//191
f 64//192 63//192 88//192 81//192
f 62//179 87//179 63//179
f 168//193 167//193 96//193 97//193
f 165//194 168//194 97//194 98//194
f 162//195 102//195 101//195 161//195
f 159//196 103//196 102//196 162//196
f 199//197 108//197 107//197 196//197
f 123//198 120//198 106//198 124//198
f 195//199 109//199 108//199 199//199
f 124//200 106//200 118//200 125//200
f 103//201 111//201 114//201 102//201
f 102//202 114//202 113//202 101//202
f 128//203 123//203 124//203 127//203
f 120//204 130//204 129//204 106//204
f 106//205 129//205 122//205 118//205
f 127//206 124//206 125//206 134//206
f 97//207 127//207 134//207 98//207
f 96//208 128//208 127//208 97//208
f 93//209 159//209 162//209 92//209
f 92//210 162//210 161//210 91//210
f 93//211 92//211 168//211 165//211
f 92//212 91//212 167//212 168//212
f 181//213 205//213 203//213
f 181//214 177//214 207//214 205//214
f 209//215 210//215 211//215
f 210//215 209//215 180//215
f 187//216 180//216 179//216 183//216
f 184//217 181//217 180//217 187//217
f 172//218 184//218 187//218 174//218
f 174//219 187//219 183//219 176//219
f 108//220 190//220 189//220 107//220
f 109//221 191//221 190//221 108//221
f 111//222 195//222 199//222 114//222
f 114//223 199//223 196//223 113//223
f 201//224 177//224 181//224 184//224
f 205//225 207//225 208//225
f 211//226 210//226 203//226 204//226
f 205//227 208//227 204//227 203//227
f 181//228 203//228 210//228 180//228
f 179//215 180//215 209//215
