# Blender v2.79 (sub 0) OBJ File: 'Ring.blend'
# www.blender.org
mtllib Ring.mtl
o Sphere
v 0.000000 0.258819 -0.965926
v 0.000000 0.000000 -1.000000
v 0.000000 -0.258819 -0.965926
v 0.482963 0.258819 -0.836516
v 0.500000 0.000000 -0.866025
v 0.482963 -0.258819 -0.836516
v 0.836516 0.258819 -0.482963
v 0.866025 0.000000 -0.500000
v 0.836516 -0.258819 -0.482963
v 0.965925 0.258819 -0.000000
v 1.000000 0.000000 -0.000000
v 0.965926 -0.258819 -0.000000
v 0.836516 0.258819 0.482962
v 0.866025 0.000000 0.499999
v 0.836516 -0.258819 0.482962
v 0.482963 0.258819 0.836516
v 0.500000 0.000000 0.866025
v 0.482963 -0.258819 0.836516
v -0.000000 0.258819 0.965925
v -0.000000 0.000000 0.999999
v -0.000000 -0.258819 0.965925
v -0.482963 0.258819 0.836516
v -0.500000 0.000000 0.866025
v -0.482963 -0.258819 0.836516
v -0.438561 -0.247364 -0.759611
v -0.455231 0.000000 -0.788484
v -0.438561 0.247364 -0.759611
v -0.759610 -0.247364 -0.438562
v -0.788483 0.000000 -0.455232
v -0.836516 0.258819 0.482962
v -0.866025 0.000000 0.499999
v -0.836516 -0.258819 0.482962
v -0.759610 0.247364 -0.438562
v -0.877122 -0.247364 -0.000000
v -0.910462 0.000000 -0.000001
v -0.877122 0.247364 -0.000000
v -0.759610 -0.247364 0.438561
v -0.788483 0.000000 0.455231
v -0.759610 0.247364 0.438561
v -0.438561 -0.247364 0.759610
v -0.965925 0.258819 -0.000000
v -0.999999 0.000000 -0.000001
v -0.965925 -0.258819 -0.000000
v -0.455231 0.000000 0.788483
v -0.438561 0.247364 0.759610
v -0.000000 -0.247364 0.877122
v -0.000000 0.000000 0.910462
v -0.000000 0.247364 0.877122
v 0.438561 -0.247364 0.759610
v 0.455231 0.000000 0.788483
v 0.438561 0.247364 0.759610
v -0.836516 0.258819 -0.482963
v -0.866025 0.000000 -0.500000
v -0.836516 -0.258819 -0.482963
v 0.759610 -0.247364 0.438561
v 0.788483 0.000000 0.455231
v 0.759610 0.247364 0.438561
v 0.877123 -0.247364 -0.000000
v 0.910462 0.000000 -0.000000
v 0.877122 0.247364 -0.000000
v 0.759610 -0.247364 -0.438562
v 0.788483 0.000000 -0.455231
v -0.482963 0.258819 -0.836516
v -0.500000 0.000000 -0.866025
v -0.482963 -0.258819 -0.836516
v 0.759610 0.247364 -0.438562
v 0.438561 -0.247364 -0.759611
v 0.455231 0.000000 -0.788484
v 0.438561 0.247364 -0.759611
v 0.000000 -0.247364 -0.877123
v 0.000000 0.000000 -0.910463
v 0.000000 0.247364 -0.877123
v -0.783616 -0.285228 -0.452422
v -0.759131 -0.267000 -0.438285
v -0.438285 -0.267000 -0.759132
v -0.452421 -0.285228 -0.783617
v 0.000000 -0.285228 -0.904843
v 0.000000 -0.267000 -0.876570
v 0.438285 -0.267000 -0.759132
v 0.452421 -0.285228 -0.783617
v 0.759132 -0.267000 -0.438285
v 0.783616 -0.285228 -0.452422
v 0.452421 -0.285228 0.783616
v 0.438285 -0.267000 0.759131
v -0.000000 -0.267000 0.876569
v -0.000000 -0.285228 0.904842
v 0.904842 -0.285228 -0.000000
v 0.876570 -0.267000 -0.000000
v 0.759132 -0.267000 0.438284
v 0.783616 -0.285228 0.452421
v -0.452421 -0.285228 0.783616
v -0.438285 -0.267000 0.759131
v -0.759131 -0.267000 0.438284
v -0.783616 -0.285228 0.452421
v -0.904842 -0.285228 -0.000000
v -0.876570 -0.267000 -0.000000
v 0.000000 0.285228 -0.904843
v 0.000000 0.267000 -0.876570
v -0.438285 0.267000 -0.759132
v -0.452421 0.285228 -0.783617
v -0.783616 0.285228 0.452421
v -0.759131 0.267000 0.438284
v -0.438285 0.267000 0.759131
v -0.452421 0.285228 0.783616
v 0.783616 0.285228 0.452421
v 0.759132 0.267000 0.438284
v 0.876570 0.267000 -0.000000
v 0.904842 0.285228 -0.000000
v 0.452421 0.285228 -0.783617
v 0.438285 0.267000 -0.759132
v -0.000000 0.285228 0.904842
v -0.000000 0.267000 0.876569
v 0.438285 0.267000 0.759131
v 0.452421 0.285228 0.783616
v 0.759132 0.267000 -0.438285
v 0.783616 0.285228 -0.452421
v -0.759131 0.267000 -0.438285
v -0.783616 0.285228 -0.452422
v -0.904842 0.285228 -0.000000
v -0.876570 0.267000 -0.000000
vn 0.2568 0.1262 -0.9582
vn 0.2568 -0.1262 -0.9582
vn 0.7015 0.1262 -0.7015
vn 0.7015 -0.1262 -0.7015
vn 0.9582 0.1262 -0.2568
vn 0.9582 -0.1262 -0.2568
vn 0.9582 -0.1261 0.2568
vn 0.9582 0.1262 0.2568
vn 0.7015 0.1262 0.7015
vn 0.7015 -0.1262 0.7015
vn -0.9656 0.0272 -0.2587
vn -0.2587 0.0272 -0.9656
vn -0.2587 -0.0272 0.9656
vn 0.7068 0.0272 0.7068
vn -0.7068 0.0272 -0.7068
vn 0.9656 0.0272 -0.2587
vn 0.7068 0.0272 -0.7068
vn 0.2587 0.0272 -0.9656
vn -0.9656 0.0272 0.2587
vn -0.2587 0.0272 0.9656
vn 0.2568 0.1262 0.9582
vn -0.7068 0.0272 0.7068
vn 0.2587 0.0272 0.9656
vn 0.2568 -0.1262 0.9582
vn 0.7068 -0.0272 -0.7068
vn -0.2568 -0.1262 0.9582
vn -0.2587 -0.0272 -0.9656
vn -0.7068 -0.0272 -0.7068
vn 0.9656 -0.0272 -0.2587
vn -0.7068 -0.0272 0.7068
vn -0.9656 -0.0272 -0.2587
vn 0.9656 -0.0272 0.2587
vn 0.2587 -0.0272 0.9656
vn -0.9656 -0.0272 0.2587
vn -0.2568 0.1262 0.9582
vn 0.2587 -0.0272 -0.9656
vn 0.7068 -0.0272 0.7068
vn -0.3946 0.9127 -0.1057
vn -0.3946 0.9127 0.1057
vn -0.7015 0.1262 0.7015
vn -0.1057 -0.9127 0.3946
vn 0.2889 -0.9127 0.2889
vn -0.7015 -0.1262 0.7015
vn 0.2889 0.9127 -0.2889
vn -0.3946 -0.9127 0.1057
vn -0.1057 0.9127 0.3946
vn -0.2889 0.9127 -0.2889
vn 0.3946 0.9127 -0.1057
vn -0.3946 -0.9127 -0.1057
vn 0.3946 -0.9127 -0.1057
vn -0.2889 -0.9127 0.2889
vn 0.2889 0.9127 0.2889
vn 0.1057 0.9127 0.3946
vn 0.3946 -0.9127 0.1057
vn 0.1057 -0.9127 0.3946
vn -0.9582 0.1262 0.2568
vn 0.1057 0.9127 -0.3946
vn 0.2889 -0.9127 -0.2889
vn -0.9582 -0.1262 0.2568
vn -0.9582 0.1262 -0.2568
vn -0.1057 -0.9127 -0.3946
vn 0.3946 0.9127 0.1057
vn -0.9582 -0.1262 -0.2568
vn -0.2889 0.9127 0.2889
vn 0.1057 -0.9127 -0.3946
vn -0.2889 -0.9127 -0.2889
vn -0.1057 0.9127 -0.3946
vn 0.2567 -0.1291 0.9578
vn 0.2567 0.1291 0.9578
vn 0.7012 0.1291 0.7012
vn 0.7012 -0.1291 0.7012
vn 0.9578 0.1291 0.2567
vn 0.9578 -0.1291 0.2567
vn 0.9578 0.1291 -0.2567
vn 0.9578 -0.1291 -0.2567
vn -0.7015 0.1262 -0.7015
vn 0.7012 0.1291 -0.7012
vn 0.7012 -0.1291 -0.7012
vn -0.7015 -0.1262 -0.7015
vn 0.2567 -0.1291 -0.9578
vn 0.2567 0.1291 -0.9578
vn -0.2567 0.1291 -0.9578
vn -0.2567 -0.1291 -0.9578
vn -0.2568 -0.1262 -0.9582
vn -0.7012 0.1291 -0.7012
vn -0.7012 -0.1291 -0.7012
vn -0.9578 -0.1291 -0.2567
vn -0.9578 0.1291 -0.2567
vn -0.9578 0.1291 0.2567
vn -0.9578 -0.1291 0.2567
vn -0.7012 0.1291 0.7012
vn -0.7012 -0.1291 0.7012
vn -0.2568 0.1262 -0.9582
vn -0.2567 0.1291 0.9578
vn -0.2567 -0.1291 0.9578
vn 0.1437 -0.8317 -0.5362
vn -0.3926 -0.8317 -0.3926
vn 0.5362 -0.8317 -0.1437
vn 0.5363 -0.8317 0.1437
vn -0.5362 -0.8317 0.1437
vn 0.3926 -0.8317 -0.3926
vn -0.5363 -0.8317 -0.1437
vn -0.1437 -0.8317 -0.5362
vn -0.3926 -0.8317 0.3926
vn 0.1437 -0.8317 0.5362
vn -0.1437 -0.8317 0.5363
vn 0.3926 -0.8317 0.3926
vn 0.5363 0.8317 0.1437
vn 0.5362 0.8317 -0.1437
vn -0.3926 0.8317 0.3926
vn 0.1437 0.8317 -0.5362
vn 0.3926 0.8317 0.3926
vn -0.5362 0.8317 0.1437
vn -0.3926 0.8317 -0.3926
vn -0.1437 0.8317 -0.5362
vn -0.1437 0.8317 0.5362
vn -0.5362 0.8317 -0.1437
vn 0.3926 0.8317 -0.3926
vn 0.1437 0.8317 0.5362
vn 0.9656 0.0272 0.2587
usemtl Material.001
s off
f 2//1 1//1 4//1 5//1
f 3//2 2//2 5//2 6//2
f 5//3 4//3 7//3 8//3
f 6//4 5//4 8//4 9//4
f 8//5 7//5 10//5 11//5
f 9//6 8//6 11//6 12//6
f 12//7 11//7 14//7 15//7
f 11//8 10//8 13//8 14//8
f 14//9 13//9 16//9 17//9
f 15//10 14//10 17//10 18//10
f 89//11 55//11 58//11 88//11
f 85//12 46//12 49//12 84//12
f 98//13 72//13 69//13 110//13
f 75//14 25//14 28//14 74//14
f 84//15 49//15 55//15 89//15
f 96//16 34//16 37//16 93//16
f 93//17 37//17 40//17 92//17
f 92//18 40//18 46//18 85//18
f 88//19 58//19 61//19 81//19
f 79//20 67//20 70//20 78//20
f 17//21 16//21 19//21 20//21
f 81//22 61//22 67//22 79//22
f 78//23 70//23 25//23 75//23
f 18//24 17//24 20//24 21//24
f 103//25 45//25 39//25 102//25
f 21//26 20//26 23//26 24//26
f 113//27 51//27 48//27 112//27
f 106//28 57//28 51//28 113//28
f 102//29 39//29 36//29 120//29
f 110//30 69//30 66//30 115//30
f 107//31 60//31 57//31 106//31
f 120//32 36//32 33//32 117//32
f 99//33 27//33 72//33 98//33
f 115//34 66//34 60//34 107//34
f 20//35 19//35 22//35 23//35
f 112//36 48//36 45//36 103//36
f 117//37 33//37 27//37 99//37
f 41//38 119//38 118//38 52//38
f 30//39 101//39 119//39 41//39
f 23//40 22//40 30//40 31//40
f 24//41 91//41 86//41 21//41
f 18//42 83//42 90//42 15//42
f 24//43 23//43 31//43 32//43
f 4//44 109//44 116//44 7//44
f 43//45 95//45 94//45 32//45
f 19//46 111//46 104//46 22//46
f 52//47 118//47 100//47 63//47
f 7//48 116//48 108//48 10//48
f 54//49 73//49 95//49 43//49
f 12//50 87//50 82//50 9//50
f 32//51 94//51 91//51 24//51
f 13//52 105//52 114//52 16//52
f 16//53 114//53 111//53 19//53
f 15//54 90//54 87//54 12//54
f 21//55 86//55 83//55 18//55
f 31//56 30//56 41//56 42//56
f 1//57 97//57 109//57 4//57
f 9//58 82//58 80//58 6//58
f 32//59 31//59 42//59 43//59
f 42//60 41//60 52//60 53//60
f 3//61 77//61 76//61 65//61
f 10//62 108//62 105//62 13//62
f 43//63 42//63 53//63 54//63
f 22//64 104//64 101//64 30//64
f 6//65 80//65 77//65 3//65
f 65//66 76//66 73//66 54//66
f 63//67 100//67 97//67 1//67
f 26//68 71//68 72//68 27//68
f 25//69 70//69 71//69 26//69
f 28//70 25//70 26//70 29//70
f 29//71 26//71 27//71 33//71
f 34//72 28//72 29//72 35//72
f 35//73 29//73 33//73 36//73
f 37//74 34//74 35//74 38//74
f 38//75 35//75 36//75 39//75
f 53//76 52//76 63//76 64//76
f 40//77 37//77 38//77 44//77
f 44//78 38//78 39//78 45//78
f 54//79 53//79 64//79 65//79
f 47//80 44//80 45//80 48//80
f 46//81 40//81 44//81 47//81
f 49//82 46//82 47//82 50//82
f 50//83 47//83 48//83 51//83
f 65//84 64//84 2//84 3//84
f 55//85 49//85 50//85 56//85
f 56//86 50//86 51//86 57//86
f 59//87 56//87 57//87 60//87
f 58//88 55//88 56//88 59//88
f 61//89 58//89 59//89 62//89
f 62//90 59//90 60//90 66//90
f 67//91 61//91 62//91 68//91
f 68//92 62//92 66//92 69//92
f 64//93 63//93 1//93 2//93
f 70//94 67//94 68//94 71//94
f 71//95 68//95 69//95 72//95
f 92//96 85//96 86//96 91//96
f 84//97 89//97 90//97 83//97
f 96//98 93//98 94//98 95//98
f 74//99 96//99 95//99 73//99
f 88//100 81//100 82//100 87//100
f 93//101 92//101 91//101 94//101
f 89//102 88//102 87//102 90//102
f 85//103 84//103 83//103 86//103
f 81//104 79//104 80//104 82//104
f 78//105 75//105 76//105 77//105
f 79//106 78//106 77//106 80//106
f 75//107 74//107 73//107 76//107
f 120//108 117//108 118//108 119//108
f 102//109 120//109 119//109 101//109
f 110//110 115//110 116//110 109//110
f 112//111 103//111 104//111 111//111
f 117//112 99//112 100//112 118//112
f 115//113 107//113 108//113 116//113
f 106//114 113//114 114//114 105//114
f 113//115 112//115 111//115 114//115
f 98//116 110//116 109//116 97//116
f 107//117 106//117 105//117 108//117
f 103//118 102//118 101//118 104//118
f 99//119 98//119 97//119 100//119
f 74//120 28//120 34//120 96//120
