# Blender v2.79 (sub 0) OBJ File: 'SpyGlass.blend'
# www.blender.org
mtllib SpyGlass.mtl
o Circle
v 0.349597 0.057340 2.945337
v 0.247202 0.304543 2.945337
v -0.000000 0.406937 2.945337
v -0.247202 0.304543 2.945337
v -0.349597 0.057340 2.945337
v -0.247202 -0.189862 2.945337
v 0.000000 -0.292257 2.945337
v 0.247202 -0.189862 2.945337
v 0.349597 0.057340 2.625870
v 0.247202 0.304543 2.625870
v -0.000000 0.406937 2.625870
v -0.247203 0.304542 2.625870
v -0.349597 0.057340 2.625870
v -0.247203 -0.189862 2.625870
v -0.000000 -0.292257 2.625870
v 0.247202 -0.189862 2.625870
v 0.331589 0.057340 2.625870
v 0.234469 0.291809 2.625870
v -0.000000 0.388929 2.625870
v -0.234469 0.291809 2.625870
v -0.331589 0.057340 2.625870
v -0.234469 -0.177128 2.625870
v -0.000000 -0.274249 2.625870
v 0.234468 -0.177128 2.625870
v 0.331589 0.057340 1.472923
v 0.234469 0.291809 1.472923
v -0.000000 0.388929 1.472923
v -0.234469 0.291809 1.472923
v -0.331589 0.057340 1.472923
v -0.234469 -0.177128 1.472923
v 0.000000 -0.274249 1.472923
v 0.234469 -0.177128 1.472923
v 0.305711 0.057340 1.431681
v 0.216171 0.273511 1.431681
v -0.000000 0.363051 1.431681
v -0.216171 0.273511 1.431681
v -0.305711 0.057340 1.431681
v -0.216171 -0.158830 1.431681
v 0.000000 -0.248371 1.431681
v 0.216170 -0.158830 1.431681
v 0.347405 0.057340 0.729150
v 0.245652 0.302993 0.729150
v -0.000000 0.404745 0.729150
v -0.245653 0.302993 0.729150
v -0.347405 0.057340 0.729150
v -0.245652 -0.188312 0.729150
v -0.000000 -0.290065 0.729150
v 0.245652 -0.188312 0.729150
v -0.000000 -0.287699 1.396128
v 0.243979 -0.186639 1.396128
v -0.345039 0.057340 1.396128
v -0.243979 -0.186639 1.396128
v -0.000000 0.402379 1.396128
v -0.243979 0.301319 1.396128
v 0.345039 0.057340 1.396128
v 0.243979 0.301320 1.396128
v 0.254117 0.057340 0.703155
v 0.179688 0.237028 0.703155
v -0.000000 0.311457 0.703155
v -0.179688 0.237028 0.703155
v -0.254117 0.057340 0.703155
v -0.179688 -0.122348 0.703155
v -0.000000 -0.196777 0.703155
v 0.179688 -0.122348 0.703155
v 0.254117 0.057340 -0.575312
v 0.179688 0.237028 -0.575312
v 0.000000 0.311457 -0.575312
v -0.179688 0.237028 -0.575312
v -0.254117 0.057340 -0.575312
v -0.179688 -0.122348 -0.575312
v 0.000000 -0.196777 -0.575312
v 0.179688 -0.122348 -0.575312
v 0.302139 0.057340 -0.575312
v 0.213645 0.270985 -0.575312
v 0.000000 0.359479 -0.575312
v -0.213645 0.270985 -0.575312
v -0.302139 0.057340 -0.575312
v -0.213645 -0.156304 -0.575312
v 0.000000 -0.244799 -0.575312
v 0.213645 -0.156305 -0.575312
v 0.302139 0.057340 -0.669294
v 0.213645 0.270985 -0.669294
v 0.000000 0.359479 -0.669294
v -0.213645 0.270985 -0.669294
v -0.302139 0.057340 -0.669294
v -0.213645 -0.156304 -0.669294
v 0.000000 -0.244799 -0.669294
v 0.213645 -0.156305 -0.669294
v 0.217702 0.057340 -0.669294
v 0.153939 0.211279 -0.669294
v 0.000000 0.275042 -0.669294
v -0.153939 0.211279 -0.669294
v -0.217702 0.057340 -0.669294
v -0.153939 -0.096599 -0.669294
v 0.000000 -0.160362 -0.669294
v 0.153939 -0.096598 -0.669294
v 0.217702 0.057340 -2.146356
v 0.153939 0.211279 -2.146356
v 0.000000 0.275042 -2.146356
v -0.153939 0.211279 -2.146356
v -0.217702 0.057340 -2.146356
v -0.153939 -0.096599 -2.146356
v 0.000000 -0.160362 -2.146356
v 0.153939 -0.096598 -2.146356
v 0.271019 0.057340 -2.146356
v 0.191639 0.248979 -2.146356
v 0.000000 0.328359 -2.146356
v -0.191639 0.248979 -2.146356
v -0.271019 0.057340 -2.146356
v -0.191639 -0.134299 -2.146356
v 0.000000 -0.213679 -2.146356
v 0.191639 -0.134299 -2.146356
v 0.271019 0.057340 -2.251240
v 0.191639 0.248979 -2.251240
v 0.000000 0.328359 -2.251240
v -0.191639 0.248979 -2.251240
v -0.271019 0.057340 -2.251240
v -0.191639 -0.134299 -2.251240
v 0.000000 -0.213679 -2.251240
v 0.191639 -0.134299 -2.251240
v 0.204605 0.057340 -2.251240
v 0.144677 0.202018 -2.251240
v 0.000000 0.261945 -2.251240
v -0.144677 0.202018 -2.251240
v -0.204605 0.057340 -2.251240
v -0.144677 -0.087337 -2.251240
v 0.000000 -0.147265 -2.251240
v 0.144678 -0.087337 -2.251240
v 0.204605 0.057340 -3.038150
v 0.144678 0.202018 -3.038150
v -0.000000 0.261945 -3.038150
v -0.144677 0.202018 -3.038150
v -0.204605 0.057340 -3.038150
v -0.144677 -0.087337 -3.038150
v 0.000000 -0.147265 -3.038150
v 0.144678 -0.087337 -3.038150
v 0.215042 0.057340 -3.038150
v 0.152058 0.209398 -3.038150
v -0.000000 0.272382 -3.038150
v -0.152058 0.209398 -3.038150
v -0.215042 0.057340 -3.038150
v -0.152058 -0.094718 -3.038150
v 0.000000 -0.157702 -3.038150
v 0.152058 -0.094718 -3.038150
v 0.215042 0.057340 -3.150735
v 0.152058 0.209398 -3.150735
v -0.000000 0.272382 -3.150735
v -0.152058 0.209398 -3.150735
v -0.215042 0.057340 -3.150735
v -0.152058 -0.094718 -3.150735
v 0.000000 -0.157702 -3.150735
v 0.152058 -0.094718 -3.150735
v 0.215042 0.057340 -3.192214
v 0.152058 0.209398 -3.192214
v -0.000000 0.272382 -3.192214
v -0.152058 0.209398 -3.192214
v -0.215042 0.057340 -3.192214
v -0.152058 -0.094718 -3.192214
v 0.000000 -0.157702 -3.192214
v 0.152058 -0.094718 -3.192214
v -0.000000 0.292134 -3.164562
v -0.000000 0.292134 -3.178388
v -0.166024 0.223364 -3.178388
v -0.166024 0.223364 -3.164562
v 0.234794 0.057340 -3.164562
v 0.234794 0.057340 -3.178388
v 0.166024 0.223364 -3.178388
v 0.166024 0.223364 -3.164562
v 0.166025 -0.108684 -3.164562
v 0.166025 -0.108684 -3.178388
v -0.166024 -0.108684 -3.164562
v -0.166024 -0.108684 -3.178388
v 0.000000 -0.177454 -3.178388
v 0.000000 -0.177454 -3.164562
v -0.234794 0.057340 -3.178388
v -0.234794 0.057340 -3.164562
v 0.113657 0.057340 -3.192214
v 0.080368 0.137707 -3.192214
v -0.000000 0.170997 -3.192214
v -0.080367 0.137707 -3.192214
v -0.113656 0.057340 -3.192214
v -0.080367 -0.023027 -3.192214
v 0.000000 -0.056316 -3.192214
v 0.080368 -0.023027 -3.192214
v 0.113656 0.057340 0.927396
v 0.080367 0.137707 0.927396
v -0.000000 0.170997 0.927396
v -0.080367 0.137707 0.927396
v -0.113657 0.057340 0.927396
v -0.080367 -0.023027 0.927396
v -0.000000 -0.056316 0.927396
v 0.080367 -0.023027 0.927396
v 0.261404 0.057340 2.945336
v 0.184841 0.242181 2.945337
v -0.000000 0.318745 2.945337
v -0.184841 0.242181 2.945337
v -0.261405 0.057340 2.945337
v -0.184841 -0.127501 2.945337
v 0.000000 -0.204064 2.945337
v 0.184841 -0.127501 2.945337
v 0.261405 0.057340 1.453536
v 0.184841 0.242181 1.453536
v -0.000000 0.318745 1.453536
v -0.184841 0.242181 1.453536
v -0.261405 0.057340 1.453536
v -0.184841 -0.127501 1.453536
v 0.000000 -0.204064 1.453536
v 0.184841 -0.127501 1.453536
v -0.000000 -0.204064 2.759948
v -0.184841 -0.127501 2.759948
v -0.261405 0.057340 2.759948
v -0.184841 0.242181 2.759948
v -0.000000 0.318745 2.759948
v 0.184841 0.242181 2.759948
v 0.184841 -0.127501 2.759948
v 0.261404 0.057340 2.759948
v -0.113656 0.057340 -3.162437
v -0.080367 -0.023027 -3.162437
v -0.000000 0.170997 -3.162437
v -0.080367 0.137707 -3.162437
v 0.113657 0.057340 -3.162437
v 0.080368 0.137707 -3.162437
v 0.080368 -0.023027 -3.162437
v 0.000000 -0.056316 -3.162437
vn 0.9239 -0.3827 0.0000
vn -0.3827 -0.9239 0.0000
vn -0.9239 0.3827 -0.0000
vn 0.3827 0.9239 -0.0000
vn 0.3827 -0.9239 0.0000
vn -0.9239 -0.3827 -0.0000
vn -0.3827 0.9239 0.0000
vn 0.9239 0.3827 0.0000
vn 0.0000 0.0000 -1.0000
vn 0.3827 -0.9239 0.0033
vn -0.9239 -0.3827 0.0033
vn -0.3827 0.9239 0.0033
vn 0.9239 0.3827 0.0033
vn 0.9239 -0.3827 0.0033
vn -0.3827 -0.9239 0.0033
vn -0.9239 0.3827 0.0033
vn 0.3827 0.9239 0.0033
vn 0.2676 0.6461 0.7147
vn -0.6461 0.2676 0.7147
vn -0.2676 -0.6461 0.7147
vn 0.6461 -0.2676 0.7147
vn 0.6461 0.2676 0.7147
vn -0.2676 0.6461 0.7147
vn -0.6461 -0.2676 0.7147
vn 0.2676 -0.6461 0.7147
vn 0.1105 0.2668 -0.9574
vn 0.1105 -0.2668 -0.9574
vn -0.2668 -0.1105 -0.9574
vn -0.1105 0.2668 -0.9574
vn 0.2668 0.1105 -0.9574
vn 0.2668 -0.1105 -0.9574
vn -0.1105 -0.2668 -0.9574
vn -0.2668 0.1105 -0.9574
vn 0.0000 0.0000 1.0000
vn 0.7993 0.3311 -0.5015
vn 0.7993 -0.3311 -0.5015
vn -0.3311 -0.7993 -0.5015
vn -0.7993 0.3311 -0.5015
vn 0.3311 0.7993 -0.5015
vn 0.3311 -0.7993 -0.5015
vn -0.7993 -0.3311 -0.5015
vn -0.3311 0.7993 -0.5015
vn -0.3704 -0.8943 0.2511
vn 0.3704 -0.8943 0.2511
vn 0.8943 -0.3704 0.2511
vn 0.8943 0.3704 0.2511
vn 0.3704 0.8943 0.2511
vn -0.3704 0.8943 0.2511
vn -0.8943 0.3704 0.2511
vn -0.8943 -0.3704 0.2511
vn -0.2311 0.5579 -0.7971
vn 0.5580 0.2311 -0.7970
vn 0.5579 -0.2311 -0.7971
vn -0.2311 -0.5579 -0.7971
vn -0.5579 0.2311 -0.7971
vn 0.2311 0.5579 -0.7970
vn 0.2311 -0.5579 -0.7971
vn -0.5579 -0.2311 -0.7971
vn -0.5579 -0.2311 0.7971
vn 0.2311 -0.5579 0.7971
vn 0.2311 0.5579 0.7971
vn -0.5579 0.2311 0.7970
vn -0.2311 -0.5579 0.7971
vn 0.5579 -0.2311 0.7970
vn 0.5579 0.2311 0.7971
vn -0.2311 0.5579 0.7971
usemtl Material
s off
f 1//1 8//1 16//1 9//1
f 7//2 6//2 14//2 15//2
f 5//3 4//3 12//3 13//3
f 3//4 2//4 10//4 11//4
f 8//5 7//5 15//5 16//5
f 6//6 5//6 13//6 14//6
f 4//7 3//7 11//7 12//7
f 2//8 1//8 9//8 10//8
f 16//9 15//9 23//9 24//9
f 14//9 13//9 21//9 22//9
f 12//9 11//9 19//9 20//9
f 10//9 9//9 17//9 18//9
f 9//9 16//9 24//9 17//9
f 15//9 14//9 22//9 23//9
f 13//9 12//9 20//9 21//9
f 11//9 10//9 18//9 19//9
f 50//10 49//10 47//10 48//10
f 52//11 51//11 45//11 46//11
f 54//12 53//12 43//12 44//12
f 56//13 55//13 41//13 42//13
f 55//14 50//14 48//14 41//14
f 49//15 52//15 46//15 47//15
f 51//16 54//16 44//16 45//16
f 53//17 56//17 42//17 43//17
f 35//18 34//18 56//18 53//18
f 37//19 36//19 54//19 51//19
f 39//20 38//20 52//20 49//20
f 33//21 40//21 50//21 55//21
f 34//22 33//22 55//22 56//22
f 36//23 35//23 53//23 54//23
f 38//24 37//24 51//24 52//24
f 40//25 39//25 49//25 50//25
f 43//26 42//26 58//26 59//26
f 48//27 47//27 63//27 64//27
f 46//28 45//28 61//28 62//28
f 44//29 43//29 59//29 60//29
f 42//30 41//30 57//30 58//30
f 41//31 48//31 64//31 57//31
f 47//32 46//32 62//32 63//32
f 45//33 44//33 60//33 61//33
f 60//7 59//7 67//7 68//7
f 58//8 57//8 65//8 66//8
f 57//1 64//1 72//1 65//1
f 63//2 62//2 70//2 71//2
f 61//3 60//3 68//3 69//3
f 59//4 58//4 66//4 67//4
f 64//5 63//5 71//5 72//5
f 62//6 61//6 69//6 70//6
f 94//6 93//6 101//6 102//6
f 92//7 91//7 99//7 100//7
f 90//8 89//8 97//8 98//8
f 89//1 96//1 104//1 97//1
f 95//2 94//2 102//2 103//2
f 93//3 92//3 100//3 101//3
f 91//4 90//4 98//4 99//4
f 96//5 95//5 103//5 104//5
f 128//5 127//5 135//5 136//5
f 126//6 125//6 133//6 134//6
f 124//7 123//7 131//7 132//7
f 122//8 121//8 129//8 130//8
f 121//1 128//1 136//1 129//1
f 127//2 126//2 134//2 135//2
f 125//3 124//3 132//3 133//3
f 123//4 122//4 130//4 131//4
f 8//34 1//34 193//34 200//34
f 6//34 7//34 199//34 198//34
f 4//34 5//34 197//34 196//34
f 2//34 3//34 195//34 194//34
f 7//34 8//34 200//34 199//34
f 5//34 6//34 198//34 197//34
f 3//34 4//34 196//34 195//34
f 1//34 2//34 194//34 193//34
f 200//3 193//3 216//3 215//3
f 193//6 194//6 214//6 216//6
f 195//5 196//5 212//5 213//5
f 197//8 198//8 210//8 211//8
f 199//7 200//7 215//7 209//7
f 194//2 195//2 213//2 214//2
f 196//1 197//1 211//1 212//1
f 198//4 199//4 209//4 210//4
usemtl Material.001
f 23//2 22//2 30//2 31//2
f 21//3 20//3 28//3 29//3
f 19//4 18//4 26//4 27//4
f 24//5 23//5 31//5 32//5
f 22//6 21//6 29//6 30//6
f 20//7 19//7 27//7 28//7
f 18//8 17//8 25//8 26//8
f 17//1 24//1 32//1 25//1
f 26//35 25//35 33//35 34//35
f 25//36 32//36 40//36 33//36
f 31//37 30//37 38//37 39//37
f 29//38 28//38 36//38 37//38
f 27//39 26//39 34//39 35//39
f 32//40 31//40 39//40 40//40
f 30//41 29//41 37//41 38//41
f 28//42 27//42 35//42 36//42
usemtl Material.002
f 218//8 217//8 189//8 190//8
f 220//5 219//5 187//5 188//5
f 222//6 221//6 185//6 186//6
f 221//3 223//3 192//3 185//3
f 224//4 218//4 190//4 191//4
f 217//1 220//1 188//1 189//1
f 219//2 222//2 186//2 187//2
f 223//7 224//7 191//7 192//7
f 210//4 209//4 207//4 206//4
f 212//1 211//1 205//1 204//1
f 214//2 213//2 203//2 202//2
f 209//7 215//7 208//7 207//7
f 211//8 210//8 206//8 205//8
f 213//5 212//5 204//5 203//5
f 216//6 214//6 202//6 201//6
f 215//3 216//3 201//3 208//3
f 203//43 187//43 186//43 202//43
f 188//44 187//44 203//44 204//44
f 189//45 188//45 204//45 205//45
f 190//46 189//46 205//46 206//46
f 191//47 190//47 206//47 207//47
f 192//48 191//48 207//48 208//48
f 185//49 192//49 208//49 201//49
f 186//50 185//50 201//50 202//50
usemtl Material.003
f 72//34 71//34 79//34 80//34
f 70//34 69//34 77//34 78//34
f 68//34 67//34 75//34 76//34
f 66//34 65//34 73//34 74//34
f 65//34 72//34 80//34 73//34
f 71//34 70//34 78//34 79//34
f 69//34 68//34 76//34 77//34
f 67//34 66//34 74//34 75//34
f 77//3 76//3 84//3 85//3
f 75//4 74//4 82//4 83//4
f 80//5 79//5 87//5 88//5
f 78//6 77//6 85//6 86//6
f 76//7 75//7 83//7 84//7
f 74//8 73//8 81//8 82//8
f 73//1 80//1 88//1 81//1
f 79//2 78//2 86//2 87//2
f 81//9 88//9 96//9 89//9
f 87//9 86//9 94//9 95//9
f 85//9 84//9 92//9 93//9
f 83//9 82//9 90//9 91//9
f 88//9 87//9 95//9 96//9
f 86//9 85//9 93//9 94//9
f 84//9 83//9 91//9 92//9
f 82//9 81//9 89//9 90//9
f 104//34 103//34 111//34 112//34
f 102//34 101//34 109//34 110//34
f 100//34 99//34 107//34 108//34
f 98//34 97//34 105//34 106//34
f 97//34 104//34 112//34 105//34
f 103//34 102//34 110//34 111//34
f 101//34 100//34 108//34 109//34
f 99//34 98//34 106//34 107//34
f 111//2 110//2 118//2 119//2
f 109//3 108//3 116//3 117//3
f 107//4 106//4 114//4 115//4
f 112//5 111//5 119//5 120//5
f 110//6 109//6 117//6 118//6
f 108//7 107//7 115//7 116//7
f 106//8 105//8 113//8 114//8
f 105//1 112//1 120//1 113//1
f 114//9 113//9 121//9 122//9
f 113//9 120//9 128//9 121//9
f 119//9 118//9 126//9 127//9
f 117//9 116//9 124//9 125//9
f 115//9 114//9 122//9 123//9
f 120//9 119//9 127//9 128//9
f 118//9 117//9 125//9 126//9
f 116//9 115//9 123//9 124//9
f 131//34 130//34 138//34 139//34
f 136//34 135//34 143//34 144//34
f 134//34 133//34 141//34 142//34
f 132//34 131//34 139//34 140//34
f 130//34 129//34 137//34 138//34
f 129//34 136//34 144//34 137//34
f 135//34 134//34 142//34 143//34
f 133//34 132//34 140//34 141//34
f 137//1 144//1 152//1 145//1
f 143//2 142//2 150//2 151//2
f 141//3 140//3 148//3 149//3
f 139//4 138//4 146//4 147//4
f 144//5 143//5 151//5 152//5
f 142//6 141//6 149//6 150//6
f 140//7 139//7 147//7 148//7
f 138//8 137//8 145//8 146//8
f 163//51 162//51 155//51 156//51
f 167//52 166//52 153//52 154//52
f 166//53 170//53 160//53 153//53
f 173//54 172//54 158//54 159//54
f 175//55 163//55 156//55 157//55
f 162//56 167//56 154//56 155//56
f 170//57 173//57 159//57 160//57
f 172//58 175//58 157//58 158//58
f 150//59 149//59 176//59 171//59
f 171//6 176//6 175//6 172//6
f 152//60 151//60 174//60 169//60
f 169//5 174//5 173//5 170//5
f 147//61 146//61 168//61 161//61
f 161//4 168//4 167//4 162//4
f 149//62 148//62 164//62 176//62
f 176//3 164//3 163//3 175//3
f 151//63 150//63 171//63 174//63
f 174//2 171//2 172//2 173//2
f 145//64 152//64 169//64 165//64
f 165//1 169//1 170//1 166//1
f 146//65 145//65 165//65 168//65
f 168//8 165//8 166//8 167//8
f 148//66 147//66 161//66 164//66
f 164//7 161//7 162//7 163//7
f 160//9 159//9 183//9 184//9
f 158//9 157//9 181//9 182//9
f 156//9 155//9 179//9 180//9
f 154//9 153//9 177//9 178//9
f 153//9 160//9 184//9 177//9
f 159//9 158//9 182//9 183//9
f 157//9 156//9 180//9 181//9
f 155//9 154//9 178//9 179//9
f 184//7 183//7 224//7 223//7
f 179//2 178//2 222//2 219//2
f 181//1 180//1 220//1 217//1
f 183//4 182//4 218//4 224//4
f 177//3 184//3 223//3 221//3
f 178//6 177//6 221//6 222//6
f 180//5 179//5 219//5 220//5
f 182//8 181//8 217//8 218//8
