# Blender v2.79 (sub 0) OBJ File: 'Triquetra.blend'
# www.blender.org
mtllib Triquetra.mtl
o Circle_Circle.001
v 0.076550 0.871182 -0.418977
v 0.054128 1.033404 -0.296244
v 0.000019 1.221839 0.000065
v -0.054139 1.033404 0.296364
v -0.076561 0.871182 0.419098
v -0.054139 0.708960 0.296364
v -0.000031 0.520525 0.000055
v 0.054128 0.708960 -0.296244
v 3.295267 -1.764958 0.199199
v 3.466838 -1.779938 0.348547
v 3.586718 -1.810309 0.655334
v 3.366106 -1.779938 0.899915
v 3.152811 -1.764958 0.978950
v 2.984320 -1.762883 0.830164
v 2.839242 -1.748581 0.518774
v 3.085051 -1.762883 0.278797
v 1.905552 -0.185779 0.348195
v 2.080983 -0.039082 0.073846
v 2.056103 0.092380 0.809012
v 1.972644 -0.039082 0.666851
v 2.360602 0.369899 0.431330
v 2.184438 0.223843 0.705544
v 2.209317 0.092380 -0.029622
v 2.292776 0.223843 0.112540
v 1.107209 0.537007 -0.094012
v 1.002422 0.537007 0.479552
v 1.108319 0.830691 0.498899
v 1.213106 0.830691 -0.074665
v 0.992686 0.362036 0.181419
v 1.033669 0.683849 0.608014
v 1.222158 1.005908 0.223342
v 1.181860 0.683849 -0.203127
v 2.561341 -0.991386 0.468003
v 2.774422 -0.827448 0.894411
v 3.125139 -0.664624 0.571006
v 2.911429 -0.827447 0.144484
v 2.765191 -0.900330 0.231257
v 2.668312 -0.900330 0.761535
v 2.920660 -0.754565 0.807638
v 3.017539 -0.754565 0.277359
v -3.110703 -1.763684 -0.916937
v -3.324247 -1.781754 -0.837947
v -3.555087 -1.793039 -0.595235
v -3.424978 -1.781754 -0.286580
v -3.253160 -1.763684 -0.137186
v -3.039617 -1.752630 -0.216176
v -2.807611 -1.731311 -0.458675
v -2.938885 -1.752630 -0.767543
v -1.908461 -0.185779 -0.348604
v -1.975553 -0.039082 -0.667260
v -2.212226 0.092380 0.029213
v -2.083892 -0.039082 -0.074256
v -2.363511 0.369899 -0.431739
v -2.295685 0.223843 -0.112949
v -2.059012 0.092380 -0.809422
v -2.187346 0.223843 -0.705953
v -1.005331 0.537007 -0.479961
v -1.110118 0.537007 0.093603
v -1.216015 0.830691 0.074256
v -1.111228 0.830691 -0.499308
v -0.995620 0.362027 -0.181833
v -1.184769 0.683849 0.202718
v -1.225044 1.005916 -0.223747
v -1.036578 0.683849 -0.608423
v -2.564250 -0.991386 -0.468413
v -2.914338 -0.827448 -0.144894
v -3.128047 -0.664624 -0.571416
v -2.777330 -0.827447 -0.894820
v -2.671221 -0.900330 -0.761945
v -2.768099 -0.900330 -0.231667
v -3.020448 -0.754565 -0.277769
v -2.923569 -0.754565 -0.808047
v -0.817848 -0.551679 -0.047022
v -0.962958 -0.621884 0.079059
v -1.134964 -0.693963 0.381471
v -0.976197 -0.585467 0.680228
v -0.836569 -0.500179 0.803160
v -0.691459 -0.429975 0.677079
v -0.519452 -0.357898 0.374668
v -0.678220 -0.466391 0.075910
v -0.074363 3.583168 -0.251415
v -0.123062 3.871779 -0.148157
v -0.185438 4.054808 0.120211
v -0.135379 3.905661 0.411176
v -0.091782 3.631085 0.539601
v -0.013203 3.454532 0.436019
v 0.007298 3.304908 0.083231
v 0.013439 3.420651 -0.123314
v -0.827181 1.676730 0.244642
v -1.008330 1.696137 -0.062558
v -1.191243 1.771377 0.658034
v -1.021577 1.732578 0.539013
v -1.536364 1.815450 0.220622
v -1.355422 1.795083 0.527875
v -1.172508 1.719842 -0.192716
v -1.342174 1.758642 -0.073696
v -1.040987 0.555482 0.015721
v -1.053800 0.590727 0.597571
v -1.363091 0.544234 0.593576
v -1.350278 0.508988 0.011726
v -0.863592 0.601660 0.308963
v -1.211099 0.574780 0.716078
v -1.540369 0.497328 0.300380
v -1.192979 0.524935 -0.106781
v -0.439388 2.646530 0.194435
v -0.728709 2.841636 0.558206
v -1.000605 2.991754 0.161165
v -0.711956 2.795553 -0.202554
v -0.589028 2.724926 -0.083695
v -0.600874 2.757511 0.454243
v -0.851637 2.912263 0.439347
v -0.839792 2.879678 -0.098592
v 3.074774 -2.141749 0.164723
v 3.181875 -2.297574 0.292844
v 3.273472 -2.435862 0.584065
v 3.169557 -2.263692 0.852176
v 3.057355 -2.093833 0.955739
v 2.956412 -1.934646 0.827550
v 2.968729 -1.968528 0.268218
v 1.029396 -1.718055 0.491167
v 0.966303 -1.914514 0.199644
v 0.886486 -2.027787 0.933924
v 0.953055 -1.878073 0.801214
v 0.763230 -2.389400 0.525973
v 0.825404 -2.192595 0.817456
v 0.905221 -2.079322 0.083175
v 0.838651 -2.229036 0.215885
v -0.012649 -1.324853 0.152269
v -0.025461 -1.289607 0.734118
v -0.231656 -1.524614 0.743813
v -0.218843 -1.559860 0.161964
v 0.104279 -1.168092 0.437481
v -0.131212 -1.399811 0.859471
v -0.349133 -1.680887 0.458559
v -0.113092 -1.449657 0.036611
v 2.055636 -1.915668 0.525736
v 2.040454 -2.221828 0.925908
v 2.043308 -2.574097 0.565350
v 2.057206 -2.267911 0.165148
v 2.057298 -2.113928 0.267696
v 2.045451 -2.081342 0.805635
v 2.040363 -2.375811 0.823361
v 2.052209 -2.408397 0.285422
v 0.889237 -0.405367 -0.680343
v 1.050839 -0.487634 -0.585479
v 1.264773 -0.591294 -0.321432
v 1.151949 -0.518771 0.007575
v 1.032228 -0.449402 0.158363
v 0.870626 -0.367136 0.063499
v 0.656693 -0.263474 -0.200548
v 0.769516 -0.335998 -0.529555
v -3.018533 -2.067311 -0.764049
v -3.103786 -2.238952 -0.640611
v -3.164254 -2.391980 -0.353666
v -3.009712 -2.267923 -0.088829
v -2.885493 -2.108282 0.016288
v -2.812896 -1.933371 -0.104820
v -2.754349 -1.750228 -0.389857
v -2.906970 -1.904401 -0.656602
v -0.864285 -1.642972 -0.185857
v -0.845489 -1.804746 -0.503723
v -0.659856 -1.998805 0.193594
v -0.744310 -1.835904 0.089727
v -0.599420 -2.310932 -0.266084
v -0.617310 -2.148800 0.051646
v -0.802943 -1.954740 -0.645671
v -0.718488 -2.117641 -0.541804
v 0.119122 -1.202471 -0.532237
v 0.216983 -1.232608 0.041758
v 0.421145 -1.464873 -0.005245
v 0.323284 -1.434737 -0.579240
v 0.045959 -1.080024 -0.217204
v 0.339332 -1.354983 0.137135
v 0.494849 -1.586823 -0.320345
v 0.200935 -1.312363 -0.674617
v -1.875489 -1.854799 -0.223533
v -1.803617 -2.203746 0.133080
v -1.860964 -2.513333 -0.260585
v -1.931569 -2.164342 -0.617411
v -1.915869 -2.022852 -0.499254
v -1.825394 -2.050714 0.031423
v -1.819317 -2.345236 0.014923
v -1.909793 -2.317374 -0.515754
v 0.128111 3.718306 -0.303958
v 0.223793 3.893617 -0.193152
v 0.347091 4.046320 0.078515
v 0.317867 3.864646 0.358630
v 0.261152 3.677336 0.476379
v 0.159387 3.505305 0.366783
v 0.065312 3.534276 -0.184999
v 0.954163 1.778792 -0.144038
v 1.088590 1.834599 -0.470195
v 1.375202 1.830552 0.219883
v 1.189768 1.803440 0.123256
v 1.652947 1.927334 -0.255376
v 1.518727 1.870569 0.070695
v 1.232115 1.874616 -0.619382
v 1.417549 1.901727 -0.522755
v 1.126341 0.692807 -0.526542
v 1.224202 0.662670 0.047453
v 1.529343 0.620416 -0.006789
v 1.431482 0.650553 -0.580784
v 0.993937 0.703802 -0.207260
v 1.397040 0.635302 0.139210
v 1.661635 0.608694 -0.326090
v 1.258644 0.677922 -0.672541
v 0.568295 2.743654 -0.027593
v 0.908674 2.899958 0.309769
v 1.120435 3.096750 -0.103189
v 0.780722 2.939362 -0.440721
v 0.676107 2.854457 -0.313938
v 0.766583 2.826594 0.216738
v 1.013289 2.984863 0.182987
v 0.922813 3.012726 -0.347690
vn -0.6726 -0.2895 -0.6810
vn -0.6759 -0.2004 0.7093
vn 0.6841 0.3384 0.6462
vn 0.6675 0.2380 -0.7056
vn -0.3814 -0.2004 -0.9024
vn -0.8699 -0.2895 0.3992
vn 0.3749 0.2380 0.8960
vn 0.8684 0.3384 -0.3626
vn 0.4963 0.7431 -0.4489
vn 0.1424 0.5331 0.8340
vn -0.5192 -0.7296 0.4452
vn -0.1616 -0.5219 -0.8376
vn 0.4281 0.5331 -0.7297
vn 0.3055 0.7431 0.5954
vn -0.4473 -0.5219 0.7263
vn -0.3282 -0.7296 -0.6000
vn -0.0337 -0.8389 -0.5432
vn -0.2313 -0.6096 0.7582
vn 0.0493 0.8362 0.5462
vn 0.2503 0.6063 -0.7548
vn 0.0517 -0.6096 -0.7910
vn -0.2235 -0.8389 0.4962
vn -0.0328 0.6063 0.7945
vn 0.2392 0.8362 -0.4935
vn 0.7614 0.5011 -0.4112
vn 0.3438 0.3495 0.8716
vn -0.7314 -0.5393 0.4174
vn -0.3039 -0.3977 -0.8657
vn 0.6297 0.3495 -0.6937
vn 0.5668 0.5011 0.6539
vn -0.5904 -0.3977 0.7024
vn -0.5366 -0.5393 -0.6490
vn 0.8801 -0.2835 -0.3809
vn 0.3976 -0.1239 0.9092
vn -0.8636 0.3273 0.3836
vn -0.3909 0.1701 -0.9046
vn 0.6720 -0.2148 -0.7087
vn 0.7061 -0.2177 0.6738
vn -0.6649 0.2513 0.7034
vn -0.6872 0.2806 -0.6701
vn -0.3055 0.7431 -0.5954
vn -0.4281 0.5331 0.7297
vn 0.3282 -0.7296 0.6000
vn 0.4473 -0.5219 -0.7263
vn -0.1424 0.5331 -0.8340
vn -0.4963 0.7431 0.4489
vn 0.1616 -0.5219 0.8376
vn 0.5192 -0.7296 -0.4452
vn -0.5668 0.5011 -0.6539
vn -0.6297 0.3495 0.6937
vn 0.5366 -0.5393 0.6490
vn 0.5904 -0.3977 -0.7024
vn -0.3438 0.3495 -0.8716
vn -0.7614 0.5011 0.4112
vn 0.3039 -0.3977 0.8657
vn 0.7314 -0.5393 -0.4174
vn -0.0489 0.8363 -0.5462
vn -0.2389 0.8363 0.4936
vn -0.2500 0.6064 0.7549
vn -0.0520 -0.6097 0.7910
vn 0.0333 -0.8390 0.5431
vn 0.2232 -0.8390 -0.4962
vn 0.2311 -0.6097 -0.7582
vn 0.0331 0.6064 -0.7945
vn 0.6872 -0.5810 -0.4362
vn 0.4274 -0.3313 0.8412
vn -0.7035 0.5394 0.4627
vn -0.4264 0.2768 -0.8612
vn 0.4512 -0.4240 -0.7853
vn 0.7341 -0.5184 0.4386
vn -0.4524 0.3647 0.8138
vn -0.6782 0.4811 -0.5555
vn -0.8356 -0.0313 -0.5484
vn -0.6242 0.0465 0.7799
vn 0.8349 0.0047 0.5504
vn 0.6237 -0.0689 -0.7786
vn -0.5893 -0.0496 -0.8064
vn -0.8590 0.0328 0.5110
vn 0.5888 0.0272 0.8078
vn 0.8582 -0.0596 -0.5098
vn 0.8105 0.2557 -0.5270
vn 0.5614 0.2599 0.7857
vn -0.8157 -0.2404 0.5262
vn -0.5678 -0.2414 -0.7870
vn 0.5960 0.1647 -0.7859
vn 0.7873 0.3195 0.5274
vn -0.6024 -0.1462 0.7847
vn -0.7925 -0.3043 -0.5286
vn -0.7512 0.3182 -0.5783
vn -0.5612 0.3138 0.7659
vn 0.7700 -0.2731 0.5767
vn 0.5842 -0.2556 -0.7703
vn -0.5262 0.2177 -0.8220
vn -0.7750 0.3837 0.5022
vn 0.5491 -0.1592 0.8204
vn 0.7938 -0.3386 -0.5052
vn -0.1401 0.7468 -0.6502
vn -0.1084 0.6137 0.7821
vn 0.0740 -0.8083 0.5841
vn 0.0716 -0.6262 -0.7764
vn -0.0724 0.5146 -0.8544
vn -0.1592 0.8345 0.5275
vn 0.0359 -0.5277 0.8487
vn 0.0974 -0.8726 -0.4786
vn -0.4453 -0.7451 -0.4966
vn -0.3465 -0.4614 0.8167
vn 0.4224 0.7589 0.4956
vn 0.3273 0.4731 -0.8180
vn -0.3116 -0.5575 -0.7695
vn -0.4686 -0.6809 0.5628
vn 0.2923 0.5692 0.7685
vn 0.4457 0.6947 -0.5646
vn -0.1046 -0.8640 -0.4924
vn -0.0873 -0.5527 0.8288
vn 0.1528 0.8555 0.4947
vn 0.1489 0.5404 -0.8281
vn -0.0523 -0.6489 -0.7591
vn -0.1284 -0.7986 0.5880
vn 0.1138 0.6367 0.7626
vn 0.1766 0.7900 -0.5871
vn -0.6523 -0.5608 -0.5100
vn -0.6755 -0.4969 0.5448
vn -0.4967 -0.3396 0.7988
vn 0.4742 0.4195 0.7741
vn 0.6623 0.5482 0.5108
vn 0.6855 0.4843 -0.5436
vn 0.5088 0.3243 -0.7975
vn -0.4621 -0.4348 -0.7730
vn -0.3613 0.2778 -0.8901
vn -0.6311 0.3914 -0.6697
vn -0.8952 0.1390 0.4235
vn -0.6726 0.1281 0.7289
vn 0.3817 -0.2156 0.8988
vn 0.7024 -0.3869 0.5975
vn 0.8286 -0.3889 -0.4027
vn 0.5964 -0.2605 -0.7593
vn 0.1922 0.8122 -0.5508
vn -0.0425 0.5659 0.8234
vn -0.1080 -0.8576 0.5029
vn 0.0528 -0.5759 -0.8158
vn 0.1764 0.5374 -0.8246
vn 0.0042 0.8184 0.5746
vn -0.1221 -0.5539 0.8236
vn -0.0200 -0.8405 -0.5415
vn 0.4028 -0.6533 -0.6410
vn 0.4137 -0.5746 0.7062
vn -0.3867 0.6641 0.6398
vn -0.3920 0.5872 -0.7082
vn 0.2485 -0.4271 -0.8694
vn 0.5169 -0.7505 0.4117
vn -0.2324 0.4380 0.8684
vn -0.4897 0.7666 -0.4154
vn -0.7376 0.5571 -0.3816
vn -0.3902 0.2754 0.8786
vn 0.7299 -0.5665 0.3824
vn 0.3770 -0.2936 -0.8785
vn -0.5888 0.4433 -0.6758
vn -0.6062 0.4406 0.6621
vn 0.5778 -0.4567 0.6764
vn 0.5927 -0.4594 -0.6616
vn 0.1204 -0.7821 -0.6115
vn 0.0818 -0.6594 0.7474
vn -0.1841 0.7637 0.6188
vn -0.1380 0.6523 -0.7453
vn 0.0731 -0.5265 -0.8471
vn 0.1345 -0.8681 0.4778
vn -0.1409 0.5061 0.8509
vn -0.1709 0.8639 -0.4738
vn -0.6675 -0.5290 -0.5241
vn -0.2814 -0.4291 0.8583
vn 0.7398 0.5078 0.4414
vn 0.3126 0.4053 -0.8591
vn -0.5566 -0.3444 -0.7560
vn -0.4865 -0.5933 0.6414
vn 0.5859 0.3211 0.7440
vn 0.5611 0.5628 -0.6070
vn 0.7464 0.0399 -0.6643
vn 0.7317 -0.0343 0.6808
vn -0.7455 -0.0666 0.6632
vn -0.7311 0.0118 -0.6822
vn 0.4649 0.0478 -0.8841
vn 0.9246 -0.0150 0.3808
vn -0.4643 -0.0703 0.8829
vn -0.9238 -0.0117 -0.3827
vn 0.6603 0.3896 -0.6420
vn 0.6687 0.2322 0.7064
vn -0.6789 -0.3447 0.6483
vn -0.6918 -0.1741 -0.7008
vn 0.4016 0.3145 -0.8601
vn 0.8420 0.3336 0.4239
vn -0.4242 -0.2565 0.8685
vn -0.8609 -0.2887 -0.4190
vn 0.7050 -0.2344 -0.6693
vn 0.8824 -0.2891 0.3712
vn 0.7097 -0.2268 0.6670
vn -0.4392 0.1639 0.8833
vn -0.7000 0.2498 0.6691
vn -0.8773 0.3044 -0.3711
vn -0.7035 0.2453 -0.6670
vn 0.4453 -0.1454 -0.8835
vn 0.1869 -0.5613 -0.8062
vn 0.8148 -0.5157 -0.2648
vn 0.3975 -0.8362 0.3778
vn 0.2976 -0.5124 0.8055
vn 0.1230 0.4641 0.8772
vn 0.0908 0.8632 0.4967
vn -0.0643 0.8507 -0.5216
vn -0.2747 0.4256 -0.8622
vn -0.6249 -0.5792 -0.5234
vn -0.7855 -0.3886 0.4816
vn -0.5681 -0.1977 0.7988
vn 0.1692 0.5896 0.7898
vn 0.2844 0.8307 0.4786
vn 0.8984 -0.0139 -0.4389
vn 0.7208 -0.1898 -0.6667
vn -0.2549 -0.4888 -0.8343
usemtl Material.001
s off
f 37//1 16//1 15//1 33//1
f 38//2 14//2 13//2 34//2
f 39//3 12//3 11//3 35//3
f 40//4 10//4 9//4 36//4
f 36//5 9//5 16//5 37//5
f 33//6 15//6 14//6 38//6
f 34//7 13//7 12//7 39//7
f 35//8 11//8 10//8 40//8
f 31//9 21//9 24//9 28//9
f 30//10 19//10 22//10 27//10
f 29//11 17//11 20//11 26//11
f 32//12 23//12 18//12 25//12
f 28//13 24//13 23//13 32//13
f 27//14 22//14 21//14 31//14
f 26//15 20//15 19//15 30//15
f 25//16 18//16 17//16 29//16
f 8//17 25//17 29//17 7//17
f 6//18 26//18 30//18 5//18
f 4//19 27//19 31//19 3//19
f 2//20 28//20 32//20 1//20
f 1//21 32//21 25//21 8//21
f 7//22 29//22 26//22 6//22
f 5//23 30//23 27//23 4//23
f 3//24 31//24 28//24 2//24
f 21//25 35//25 40//25 24//25
f 19//26 34//26 39//26 22//26
f 17//27 33//27 38//27 20//27
f 23//28 36//28 37//28 18//28
f 24//29 40//29 36//29 23//29
f 22//30 39//30 35//30 21//30
f 20//31 38//31 34//31 19//31
f 18//32 37//32 33//32 17//32
f 69//33 65//33 47//33 48//33
f 70//34 66//34 45//34 46//34
f 71//35 67//35 43//35 44//35
f 72//36 68//36 41//36 42//36
f 68//37 69//37 48//37 41//37
f 65//38 70//38 46//38 47//38
f 66//39 71//39 44//39 45//39
f 67//40 72//40 42//40 43//40
f 63//41 60//41 56//41 53//41
f 62//42 59//42 54//42 51//42
f 61//43 58//43 52//43 49//43
f 64//44 57//44 50//44 55//44
f 60//45 64//45 55//45 56//45
f 59//46 63//46 53//46 54//46
f 58//47 62//47 51//47 52//47
f 57//48 61//48 49//48 50//48
f 53//49 56//49 72//49 67//49
f 51//50 54//50 71//50 66//50
f 49//51 52//51 70//51 65//51
f 55//52 50//52 69//52 68//52
f 56//53 55//53 68//53 72//53
f 54//54 53//54 67//54 71//54
f 52//55 51//55 66//55 70//55
f 50//56 49//56 65//56 69//56
f 2//57 60//57 63//57 3//57
f 3//58 63//58 59//58 4//58
f 4//59 59//59 62//59 5//59
f 5//60 62//60 58//60 6//60
f 6//61 58//61 61//61 7//61
f 7//62 61//62 57//62 8//62
f 8//63 57//63 64//63 1//63
f 1//64 64//64 60//64 2//64
f 109//65 88//65 87//65 105//65
f 110//66 86//66 85//66 106//66
f 111//67 84//67 83//67 107//67
f 112//68 82//68 81//68 108//68
f 108//69 81//69 88//69 109//69
f 105//70 87//70 86//70 110//70
f 106//71 85//71 84//71 111//71
f 107//72 83//72 82//72 112//72
f 103//73 93//73 96//73 100//73
f 102//74 91//74 94//74 99//74
f 101//75 89//75 92//75 98//75
f 104//76 95//76 90//76 97//76
f 100//77 96//77 95//77 104//77
f 99//78 94//78 93//78 103//78
f 98//79 92//79 91//79 102//79
f 97//80 90//80 89//80 101//80
f 80//81 97//81 101//81 79//81
f 78//82 98//82 102//82 77//82
f 76//83 99//83 103//83 75//83
f 74//84 100//84 104//84 73//84
f 73//85 104//85 97//85 80//85
f 79//86 101//86 98//86 78//86
f 77//87 102//87 99//87 76//87
f 75//88 103//88 100//88 74//88
f 93//89 107//89 112//89 96//89
f 91//90 106//90 111//90 94//90
f 89//91 105//91 110//91 92//91
f 95//92 108//92 109//92 90//92
f 96//93 112//93 108//93 95//93
f 94//94 111//94 107//94 93//94
f 92//95 110//95 106//95 91//95
f 90//96 109//96 105//96 89//96
f 140//97 136//97 15//97 119//97
f 141//98 137//98 117//98 118//98
f 142//99 138//99 115//99 116//99
f 143//100 139//100 113//100 114//100
f 139//101 140//101 119//101 113//101
f 136//102 141//102 118//102 15//102
f 137//103 142//103 116//103 117//103
f 138//104 143//104 114//104 115//104
f 134//105 131//105 127//105 124//105
f 133//106 130//106 125//106 122//106
f 132//107 129//107 123//107 120//107
f 135//108 128//108 121//108 126//108
f 131//109 135//109 126//109 127//109
f 130//110 134//110 124//110 125//110
f 129//111 133//111 122//111 123//111
f 128//112 132//112 120//112 121//112
f 124//113 127//113 143//113 138//113
f 122//114 125//114 142//114 137//114
f 120//115 123//115 141//115 136//115
f 126//116 121//116 140//116 139//116
f 127//117 126//117 139//117 143//117
f 125//118 124//118 138//118 142//118
f 123//119 122//119 137//119 141//119
f 121//120 120//120 136//120 140//120
f 74//121 131//121 134//121 75//121
f 75//122 134//122 130//122 76//122
f 76//123 130//123 133//123 77//123
f 77//124 133//124 129//124 78//124
f 78//125 129//125 132//125 79//125
f 79//126 132//126 128//126 80//126
f 80//127 128//127 135//127 73//127
f 73//128 135//128 131//128 74//128
f 9//129 113//129 119//129 16//129
f 16//130 119//130 15//130
f 15//131 118//131 14//131
f 14//132 118//132 117//132 13//132
f 13//133 117//133 116//133 12//133
f 12//134 116//134 115//134 11//134
f 11//135 115//135 114//135 10//135
f 10//136 114//136 113//136 9//136
f 180//137 159//137 158//137 176//137
f 181//138 157//138 156//138 177//138
f 182//139 155//139 154//139 178//139
f 183//140 153//140 152//140 179//140
f 179//141 152//141 159//141 180//141
f 176//142 158//142 157//142 181//142
f 177//143 156//143 155//143 182//143
f 178//144 154//144 153//144 183//144
f 174//145 164//145 167//145 171//145
f 173//146 162//146 165//146 170//146
f 172//147 160//147 163//147 169//147
f 175//148 166//148 161//148 168//148
f 171//149 167//149 166//149 175//149
f 170//150 165//150 164//150 174//150
f 169//151 163//151 162//151 173//151
f 168//152 161//152 160//152 172//152
f 151//153 168//153 172//153 150//153
f 149//154 169//154 173//154 148//154
f 147//155 170//155 174//155 146//155
f 145//156 171//156 175//156 144//156
f 144//157 175//157 168//157 151//157
f 150//158 172//158 169//158 149//158
f 148//159 173//159 170//159 147//159
f 146//160 174//160 171//160 145//160
f 164//161 178//161 183//161 167//161
f 162//162 177//162 182//162 165//162
f 160//163 176//163 181//163 163//163
f 166//164 179//164 180//164 161//164
f 167//165 183//165 179//165 166//165
f 165//166 182//166 178//166 164//166
f 163//167 181//167 177//167 162//167
f 161//168 180//168 176//168 160//168
f 211//169 207//169 87//169 190//169
f 212//170 208//170 188//170 189//170
f 213//171 209//171 186//171 187//171
f 214//172 210//172 184//172 185//172
f 210//173 211//173 190//173 184//173
f 207//174 212//174 189//174 87//174
f 208//175 213//175 187//175 188//175
f 209//176 214//176 185//176 186//176
f 205//177 202//177 198//177 195//177
f 204//178 201//178 196//178 193//178
f 203//179 200//179 194//179 191//179
f 206//180 199//180 192//180 197//180
f 202//181 206//181 197//181 198//181
f 201//182 205//182 195//182 196//182
f 200//183 204//183 193//183 194//183
f 199//184 203//184 191//184 192//184
f 195//185 198//185 214//185 209//185
f 193//186 196//186 213//186 208//186
f 191//187 194//187 212//187 207//187
f 197//188 192//188 211//188 210//188
f 198//189 197//189 210//189 214//189
f 196//190 195//190 209//190 213//190
f 194//191 193//191 208//191 212//191
f 192//192 191//192 207//192 211//192
f 145//193 202//193 205//193 146//193
f 146//194 205//194 201//194 147//194
f 147//195 201//195 204//195 148//195
f 148//196 204//196 200//196 149//196
f 149//197 200//197 203//197 150//197
f 150//198 203//198 199//198 151//198
f 151//199 199//199 206//199 144//199
f 144//200 206//200 202//200 145//200
f 81//201 184//201 190//201 88//201
f 88//202 190//202 87//202
f 87//203 189//203 86//203
f 86//204 189//204 188//204 85//204
f 85//205 188//205 187//205 84//205
f 84//206 187//206 186//206 83//206
f 83//207 186//207 185//207 82//207
f 82//208 185//208 184//208 81//208
f 42//209 153//209 154//209 43//209
f 43//210 154//210 155//210 44//210
f 44//211 155//211 156//211 45//211
f 45//212 156//212 157//212 46//212
f 46//213 157//213 158//213 47//213
f 47//214 158//214 159//214 48//214
f 48//215 159//215 152//215 41//215
f 41//216 152//216 153//216 42//216
